<svg width="995" height="995" xmlns="http://www.w3.org/2000/svg" xmlns:xlink="http://www.w3.org/1999/xlink" overflow="hidden"><defs><clipPath id="clip0"><rect x="988" y="461" width="995" height="995"/></clipPath><clipPath id="clip1"><rect x="1320" y="793" width="330" height="331"/></clipPath><clipPath id="clip2"><rect x="1320" y="793" width="330" height="331"/></clipPath><clipPath id="clip3"><rect x="1320" y="793" width="330" height="331"/></clipPath><clipPath id="clip4"><rect x="1320" y="793" width="330" height="331"/></clipPath><clipPath id="clip5"><rect x="1320" y="793" width="330" height="331"/></clipPath><clipPath id="clip6"><rect x="1320" y="793" width="330" height="331"/></clipPath></defs><g clip-path="url(#clip0)" transform="translate(-988 -461)"><path d="M1320.5 793.5 1650.5 793.5 1650.5 1123.5 1320.5 1123.5Z" stroke="#E2F0D9" stroke-width="4.58333" stroke-miterlimit="8" fill-rule="evenodd"/><path d="M990.5 793.5 1320.5 793.5 1320.5 1123.5 990.5 1123.5Z" stroke="#E2F0D9" stroke-width="4.58333" stroke-miterlimit="8" fill-rule="evenodd"/><path d="M1100.11 950.463C1098.52 950.463 1097.08 950.868 1095.8 951.679 1094.51 952.489 1093.49 953.739 1092.74 955.427 1091.98 957.116 1091.6 959.203 1091.6 961.689 1091.6 964.418 1092 966.66 1092.8 968.416 1093.59 970.173 1094.63 971.422 1095.9 972.165 1097.17 972.908 1098.57 973.28 1100.11 973.28 1102.44 973.28 1104.64 972.354 1106.74 970.504 1108.83 968.653 1110.91 965.796 1112.96 961.932 1110.58 957.798 1108.39 954.853 1106.39 953.097 1104.39 951.341 1102.3 950.463 1100.11 950.463ZM1133.38 941.668C1134.74 941.668 1135.9 941.79 1136.87 942.033L1135.57 948.315C1134.76 948.18 1134.01 948.112 1133.3 948.112 1131.47 948.112 1129.83 948.531 1128.38 949.369 1126.93 950.206 1125.46 951.584 1123.96 953.502 1122.46 955.421 1120.66 958.231 1118.55 961.932 1119.88 964.499 1121.17 966.694 1122.42 968.518 1123.68 970.341 1124.88 971.76 1126.03 972.773 1127.18 973.786 1128.33 974.529 1129.49 975.002 1130.66 975.475 1131.94 975.711 1133.34 975.711 1134.18 975.711 1134.91 975.657 1135.53 975.549L1136.91 981.466C1135.18 981.898 1133.61 982.115 1132.21 982.115 1128.75 982.115 1125.74 980.912 1123.17 978.508 1120.61 976.103 1118.13 972.28 1115.76 967.038 1113.11 971.523 1110.52 974.752 1107.99 976.724 1105.47 978.697 1102.71 979.683 1099.71 979.683 1097.14 979.683 1094.86 978.899 1092.88 977.332 1090.89 975.765 1089.37 973.638 1088.3 970.949 1087.23 968.261 1086.7 965.282 1086.7 962.013 1086.7 958.69 1087.29 955.63 1088.48 952.834 1089.67 950.037 1091.28 947.876 1093.3 946.349 1095.33 944.823 1097.6 944.059 1100.11 944.059 1102.25 944.059 1104.13 944.471 1105.77 945.296 1107.4 946.12 1108.98 947.41 1110.51 949.166 1112.03 950.922 1113.78 953.475 1115.76 956.826 1117.57 953.367 1119.33 950.51 1121.04 948.254 1122.76 945.998 1124.57 944.336 1126.47 943.269 1128.38 942.202 1130.68 941.668 1133.38 941.668Z" fill="#FFFFFF" fill-rule="evenodd"/><text fill="#000000" fill-opacity="0" font-family="Arial,Arial_MSFontService,sans-serif" font-size="40.4463" x="1086.7" y="977.059">∝</text><path d="M1189.2 929.632 1191.43 929.632C1191.27 932.225 1191.19 935.819 1191.19 940.412L1191.19 975.022C1191.19 976.589 1191.27 977.771 1191.45 978.568 1191.63 979.366 1191.94 980.014 1192.38 980.514 1192.83 981.014 1193.47 981.405 1194.31 981.689 1195.15 981.973 1196.2 982.189 1197.47 982.338 1198.74 982.486 1200.41 982.587 1202.49 982.641L1202.49 985.6 1172.54 985.6 1172.54 982.641C1175.54 982.506 1177.68 982.324 1178.97 982.094 1180.25 981.865 1181.23 981.52 1181.91 981.061 1182.58 980.602 1183.07 979.953 1183.39 979.116 1183.7 978.278 1183.85 976.914 1183.85 975.022L1183.85 942.155C1183.85 941.074 1183.66 940.284 1183.28 939.784 1182.91 939.284 1182.35 939.034 1181.62 939.034 1180.76 939.034 1179.53 939.48 1177.93 940.371 1176.34 941.263 1174.37 942.492 1172.02 944.059L1170.23 940.939Z" fill="#FFFFFF" fill-rule="evenodd"/><text fill="#000000" fill-opacity="0" font-family="Arial,Arial_MSFontService,sans-serif" font-size="55.9683" x="1170.23" y="978.604">1</text><path d="M1650.5 793.5 1980.5 793.5 1980.5 1123.5 1650.5 1123.5Z" stroke="#E2F0D9" stroke-width="4.58333" stroke-miterlimit="8" fill-rule="evenodd"/><path d="M1760.11 950.463C1758.52 950.463 1757.08 950.868 1755.8 951.679 1754.51 952.489 1753.49 953.739 1752.74 955.427 1751.98 957.116 1751.6 959.203 1751.6 961.689 1751.6 964.418 1752 966.66 1752.8 968.416 1753.59 970.173 1754.63 971.422 1755.9 972.165 1757.17 972.908 1758.57 973.28 1760.11 973.28 1762.44 973.28 1764.64 972.354 1766.74 970.504 1768.83 968.653 1770.91 965.796 1772.96 961.932 1770.58 957.798 1768.39 954.853 1766.39 953.097 1764.39 951.341 1762.3 950.463 1760.11 950.463ZM1793.38 941.668C1794.74 941.668 1795.9 941.79 1796.87 942.033L1795.57 948.315C1794.76 948.18 1794.01 948.112 1793.3 948.112 1791.47 948.112 1789.83 948.531 1788.38 949.369 1786.93 950.206 1785.46 951.584 1783.96 953.502 1782.46 955.421 1780.66 958.231 1778.55 961.932 1779.88 964.499 1781.17 966.694 1782.42 968.518 1783.68 970.341 1784.88 971.76 1786.03 972.773 1787.18 973.786 1788.33 974.529 1789.49 975.002 1790.66 975.475 1791.94 975.711 1793.34 975.711 1794.18 975.711 1794.91 975.657 1795.53 975.549L1796.91 981.466C1795.18 981.898 1793.61 982.115 1792.21 982.115 1788.75 982.115 1785.74 980.912 1783.17 978.508 1780.61 976.103 1778.13 972.28 1775.76 967.038 1773.11 971.523 1770.52 974.752 1767.99 976.724 1765.47 978.697 1762.71 979.683 1759.71 979.683 1757.14 979.683 1754.86 978.899 1752.88 977.332 1750.89 975.765 1749.37 973.638 1748.3 970.949 1747.23 968.261 1746.7 965.282 1746.7 962.013 1746.7 958.69 1747.29 955.63 1748.48 952.834 1749.67 950.037 1751.28 947.876 1753.3 946.349 1755.33 944.823 1757.6 944.059 1760.11 944.059 1762.25 944.059 1764.13 944.471 1765.77 945.296 1767.4 946.12 1768.98 947.41 1770.51 949.166 1772.03 950.922 1773.78 953.475 1775.76 956.826 1777.57 953.367 1779.33 950.51 1781.04 948.254 1782.76 945.998 1784.57 944.336 1786.47 943.269 1788.38 942.202 1790.68 941.668 1793.38 941.668Z" fill="#FFFFFF" fill-rule="evenodd"/><text fill="#000000" fill-opacity="0" font-family="Arial,Arial_MSFontService,sans-serif" font-size="40.4463" x="1746.7" y="977.059">∝</text><path d="M1849.2 929.632 1851.43 929.632C1851.27 932.225 1851.19 935.819 1851.19 940.412L1851.19 975.022C1851.19 976.589 1851.27 977.771 1851.45 978.568 1851.63 979.366 1851.94 980.014 1852.38 980.514 1852.83 981.014 1853.47 981.405 1854.31 981.689 1855.15 981.973 1856.2 982.189 1857.47 982.338 1858.74 982.486 1860.41 982.587 1862.49 982.641L1862.49 985.6 1832.54 985.6 1832.54 982.641C1835.54 982.506 1837.68 982.324 1838.97 982.094 1840.25 981.865 1841.23 981.52 1841.91 981.061 1842.58 980.602 1843.07 979.953 1843.39 979.116 1843.7 978.278 1843.85 976.914 1843.85 975.022L1843.85 942.155C1843.85 941.074 1843.66 940.284 1843.28 939.784 1842.91 939.284 1842.35 939.034 1841.62 939.034 1840.76 939.034 1839.53 939.48 1837.93 940.371 1836.34 941.263 1834.37 942.492 1832.02 944.059L1830.23 940.939Z" fill="#FFFFFF" fill-rule="evenodd"/><text fill="#000000" fill-opacity="0" font-family="Arial,Arial_MSFontService,sans-serif" font-size="55.9683" x="1830.23" y="978.604">1</text><path d="M990.5 1123.5 1320.5 1123.5 1320.5 1453.5 990.5 1453.5Z" stroke="#E2F0D9" stroke-width="4.58333" stroke-miterlimit="8" fill-rule="evenodd"/><path d="M1100.11 1280.46C1098.52 1280.46 1097.08 1280.87 1095.8 1281.68 1094.51 1282.49 1093.49 1283.74 1092.74 1285.43 1091.98 1287.12 1091.6 1289.2 1091.6 1291.69 1091.6 1294.42 1092 1296.66 1092.8 1298.42 1093.59 1300.17 1094.63 1301.42 1095.9 1302.17 1097.17 1302.91 1098.57 1303.28 1100.11 1303.28 1102.44 1303.28 1104.64 1302.35 1106.74 1300.5 1108.83 1298.65 1110.91 1295.8 1112.96 1291.93 1110.58 1287.8 1108.39 1284.85 1106.39 1283.1 1104.39 1281.34 1102.3 1280.46 1100.11 1280.46ZM1133.38 1271.67C1134.74 1271.67 1135.9 1271.79 1136.87 1272.03L1135.57 1278.31C1134.76 1278.18 1134.01 1278.11 1133.3 1278.11 1131.47 1278.11 1129.83 1278.53 1128.38 1279.37 1126.93 1280.21 1125.46 1281.58 1123.96 1283.5 1122.46 1285.42 1120.66 1288.23 1118.55 1291.93 1119.88 1294.5 1121.17 1296.69 1122.42 1298.52 1123.68 1300.34 1124.88 1301.76 1126.03 1302.77 1127.18 1303.79 1128.33 1304.53 1129.49 1305 1130.66 1305.47 1131.94 1305.71 1133.34 1305.71 1134.18 1305.71 1134.91 1305.66 1135.53 1305.55L1136.91 1311.47C1135.18 1311.9 1133.61 1312.11 1132.21 1312.11 1128.75 1312.11 1125.74 1310.91 1123.17 1308.51 1120.61 1306.1 1118.13 1302.28 1115.76 1297.04 1113.11 1301.52 1110.52 1304.75 1107.99 1306.72 1105.47 1308.7 1102.71 1309.68 1099.71 1309.68 1097.14 1309.68 1094.86 1308.9 1092.88 1307.33 1090.89 1305.77 1089.37 1303.64 1088.3 1300.95 1087.23 1298.26 1086.7 1295.28 1086.7 1292.01 1086.7 1288.69 1087.29 1285.63 1088.48 1282.83 1089.67 1280.04 1091.28 1277.88 1093.3 1276.35 1095.33 1274.82 1097.6 1274.06 1100.11 1274.06 1102.25 1274.06 1104.13 1274.47 1105.77 1275.3 1107.4 1276.12 1108.98 1277.41 1110.51 1279.17 1112.03 1280.92 1113.78 1283.48 1115.76 1286.83 1117.57 1283.37 1119.33 1280.51 1121.04 1278.25 1122.76 1276 1124.57 1274.34 1126.47 1273.27 1128.38 1272.2 1130.68 1271.67 1133.38 1271.67Z" fill="#FFFFFF" fill-rule="evenodd"/><text fill="#000000" fill-opacity="0" font-family="Arial,Arial_MSFontService,sans-serif" font-size="40.4463" x="1086.7" y="1307.06">∝</text><path d="M1189.2 1259.63 1191.43 1259.63C1191.27 1262.23 1191.19 1265.82 1191.19 1270.41L1191.19 1305.02C1191.19 1306.59 1191.27 1307.77 1191.45 1308.57 1191.63 1309.37 1191.94 1310.01 1192.38 1310.51 1192.83 1311.01 1193.47 1311.41 1194.31 1311.69 1195.15 1311.97 1196.2 1312.19 1197.47 1312.34 1198.74 1312.49 1200.41 1312.59 1202.49 1312.64L1202.49 1315.6 1172.54 1315.6 1172.54 1312.64C1175.54 1312.51 1177.68 1312.32 1178.97 1312.09 1180.25 1311.86 1181.23 1311.52 1181.91 1311.06 1182.58 1310.6 1183.07 1309.95 1183.39 1309.12 1183.7 1308.28 1183.85 1306.91 1183.85 1305.02L1183.85 1272.15C1183.85 1271.07 1183.66 1270.28 1183.28 1269.78 1182.91 1269.28 1182.35 1269.03 1181.62 1269.03 1180.76 1269.03 1179.53 1269.48 1177.93 1270.37 1176.34 1271.26 1174.37 1272.49 1172.02 1274.06L1170.23 1270.94Z" fill="#FFFFFF" fill-rule="evenodd"/><text fill="#000000" fill-opacity="0" font-family="Arial,Arial_MSFontService,sans-serif" font-size="55.9683" x="1170.23" y="1308.6">1</text><path d="M1320.5 1123.5 1650.5 1123.5 1650.5 1453.5 1320.5 1453.5Z" stroke="#E2F0D9" stroke-width="4.58333" stroke-miterlimit="8" fill-rule="evenodd"/><path d="M1430.11 1280.46C1428.52 1280.46 1427.08 1280.87 1425.8 1281.68 1424.51 1282.49 1423.49 1283.74 1422.74 1285.43 1421.98 1287.12 1421.6 1289.2 1421.6 1291.69 1421.6 1294.42 1422 1296.66 1422.8 1298.42 1423.59 1300.17 1424.63 1301.42 1425.9 1302.17 1427.17 1302.91 1428.57 1303.28 1430.11 1303.28 1432.44 1303.28 1434.64 1302.35 1436.74 1300.5 1438.83 1298.65 1440.91 1295.8 1442.96 1291.93 1440.58 1287.8 1438.39 1284.85 1436.39 1283.1 1434.39 1281.34 1432.3 1280.46 1430.11 1280.46ZM1463.38 1271.67C1464.74 1271.67 1465.9 1271.79 1466.87 1272.03L1465.57 1278.31C1464.76 1278.18 1464.01 1278.11 1463.3 1278.11 1461.47 1278.11 1459.83 1278.53 1458.38 1279.37 1456.93 1280.21 1455.46 1281.58 1453.96 1283.5 1452.46 1285.42 1450.66 1288.23 1448.55 1291.93 1449.88 1294.5 1451.17 1296.69 1452.42 1298.52 1453.68 1300.34 1454.88 1301.76 1456.03 1302.77 1457.18 1303.79 1458.33 1304.53 1459.49 1305 1460.66 1305.47 1461.94 1305.71 1463.34 1305.71 1464.18 1305.71 1464.91 1305.66 1465.53 1305.55L1466.91 1311.47C1465.18 1311.9 1463.61 1312.11 1462.21 1312.11 1458.75 1312.11 1455.74 1310.91 1453.17 1308.51 1450.61 1306.1 1448.13 1302.28 1445.76 1297.04 1443.11 1301.52 1440.52 1304.75 1437.99 1306.72 1435.47 1308.7 1432.71 1309.68 1429.71 1309.68 1427.14 1309.68 1424.86 1308.9 1422.88 1307.33 1420.89 1305.77 1419.37 1303.64 1418.3 1300.95 1417.23 1298.26 1416.7 1295.28 1416.7 1292.01 1416.7 1288.69 1417.29 1285.63 1418.48 1282.83 1419.67 1280.04 1421.28 1277.88 1423.3 1276.35 1425.33 1274.82 1427.6 1274.06 1430.11 1274.06 1432.25 1274.06 1434.13 1274.47 1435.77 1275.3 1437.4 1276.12 1438.98 1277.41 1440.51 1279.17 1442.03 1280.92 1443.78 1283.48 1445.76 1286.83 1447.57 1283.37 1449.33 1280.51 1451.04 1278.25 1452.76 1276 1454.57 1274.34 1456.47 1273.27 1458.38 1272.2 1460.68 1271.67 1463.38 1271.67Z" fill="#FFFFFF" fill-rule="evenodd"/><text fill="#000000" fill-opacity="0" font-family="Arial,Arial_MSFontService,sans-serif" font-size="40.4463" x="1416.7" y="1307.06">∝</text><path d="M1519.2 1259.63 1521.43 1259.63C1521.27 1262.23 1521.19 1265.82 1521.19 1270.41L1521.19 1305.02C1521.19 1306.59 1521.27 1307.77 1521.45 1308.57 1521.63 1309.37 1521.94 1310.01 1522.38 1310.51 1522.83 1311.01 1523.47 1311.41 1524.31 1311.69 1525.15 1311.97 1526.2 1312.19 1527.47 1312.34 1528.74 1312.49 1530.41 1312.59 1532.49 1312.64L1532.49 1315.6 1502.54 1315.6 1502.54 1312.64C1505.54 1312.51 1507.68 1312.32 1508.97 1312.09 1510.25 1311.86 1511.23 1311.52 1511.91 1311.06 1512.58 1310.6 1513.07 1309.95 1513.39 1309.12 1513.7 1308.28 1513.85 1306.91 1513.85 1305.02L1513.85 1272.15C1513.85 1271.07 1513.66 1270.28 1513.28 1269.78 1512.91 1269.28 1512.35 1269.03 1511.62 1269.03 1510.76 1269.03 1509.53 1269.48 1507.93 1270.37 1506.34 1271.26 1504.37 1272.49 1502.02 1274.06L1500.23 1270.94Z" fill="#FFFFFF" fill-rule="evenodd"/><text fill="#000000" fill-opacity="0" font-family="Arial,Arial_MSFontService,sans-serif" font-size="55.9683" x="1500.23" y="1308.6">1</text><path d="M1650.5 1123.5 1980.5 1123.5 1980.5 1453.5 1650.5 1453.5Z" stroke="#E2F0D9" stroke-width="4.58333" stroke-miterlimit="8" fill-rule="evenodd"/><path d="M1760.11 1280.46C1758.52 1280.46 1757.08 1280.87 1755.8 1281.68 1754.51 1282.49 1753.49 1283.74 1752.74 1285.43 1751.98 1287.12 1751.6 1289.2 1751.6 1291.69 1751.6 1294.42 1752 1296.66 1752.8 1298.42 1753.59 1300.17 1754.63 1301.42 1755.9 1302.17 1757.17 1302.91 1758.57 1303.28 1760.11 1303.28 1762.44 1303.28 1764.64 1302.35 1766.74 1300.5 1768.83 1298.65 1770.91 1295.8 1772.96 1291.93 1770.58 1287.8 1768.39 1284.85 1766.39 1283.1 1764.39 1281.34 1762.3 1280.46 1760.11 1280.46ZM1793.38 1271.67C1794.74 1271.67 1795.9 1271.79 1796.87 1272.03L1795.57 1278.31C1794.76 1278.18 1794.01 1278.11 1793.3 1278.11 1791.47 1278.11 1789.83 1278.53 1788.38 1279.37 1786.93 1280.21 1785.46 1281.58 1783.96 1283.5 1782.46 1285.42 1780.66 1288.23 1778.55 1291.93 1779.88 1294.5 1781.17 1296.69 1782.42 1298.52 1783.68 1300.34 1784.88 1301.76 1786.03 1302.77 1787.18 1303.79 1788.33 1304.53 1789.49 1305 1790.66 1305.47 1791.94 1305.71 1793.34 1305.71 1794.18 1305.71 1794.91 1305.66 1795.53 1305.55L1796.91 1311.47C1795.18 1311.9 1793.61 1312.11 1792.21 1312.11 1788.75 1312.11 1785.74 1310.91 1783.17 1308.51 1780.61 1306.1 1778.13 1302.28 1775.76 1297.04 1773.11 1301.52 1770.52 1304.75 1767.99 1306.72 1765.47 1308.7 1762.71 1309.68 1759.71 1309.68 1757.14 1309.68 1754.86 1308.9 1752.88 1307.33 1750.89 1305.77 1749.37 1303.64 1748.3 1300.95 1747.23 1298.26 1746.7 1295.28 1746.7 1292.01 1746.7 1288.69 1747.29 1285.63 1748.48 1282.83 1749.67 1280.04 1751.28 1277.88 1753.3 1276.35 1755.33 1274.82 1757.6 1274.06 1760.11 1274.06 1762.25 1274.06 1764.13 1274.47 1765.77 1275.3 1767.4 1276.12 1768.98 1277.41 1770.51 1279.17 1772.03 1280.92 1773.78 1283.48 1775.76 1286.83 1777.57 1283.37 1779.33 1280.51 1781.04 1278.25 1782.76 1276 1784.57 1274.34 1786.47 1273.27 1788.38 1272.2 1790.68 1271.67 1793.38 1271.67Z" fill="#FFFFFF" fill-rule="evenodd"/><text fill="#000000" fill-opacity="0" font-family="Arial,Arial_MSFontService,sans-serif" font-size="40.4463" x="1746.7" y="1307.06">∝</text><path d="M1849.2 1259.63 1851.43 1259.63C1851.27 1262.23 1851.19 1265.82 1851.19 1270.41L1851.19 1305.02C1851.19 1306.59 1851.27 1307.77 1851.45 1308.57 1851.63 1309.37 1851.94 1310.01 1852.38 1310.51 1852.83 1311.01 1853.47 1311.41 1854.31 1311.69 1855.15 1311.97 1856.2 1312.19 1857.47 1312.34 1858.74 1312.49 1860.41 1312.59 1862.49 1312.64L1862.49 1315.6 1832.54 1315.6 1832.54 1312.64C1835.54 1312.51 1837.68 1312.32 1838.97 1312.09 1840.25 1311.86 1841.23 1311.52 1841.91 1311.06 1842.58 1310.6 1843.07 1309.95 1843.39 1309.12 1843.7 1308.28 1843.85 1306.91 1843.85 1305.02L1843.85 1272.15C1843.85 1271.07 1843.66 1270.28 1843.28 1269.78 1842.91 1269.28 1842.35 1269.03 1841.62 1269.03 1840.76 1269.03 1839.53 1269.48 1837.93 1270.37 1836.34 1271.26 1834.37 1272.49 1832.02 1274.06L1830.23 1270.94Z" fill="#FFFFFF" fill-rule="evenodd"/><text fill="#000000" fill-opacity="0" font-family="Arial,Arial_MSFontService,sans-serif" font-size="55.9683" x="1830.23" y="1308.6">1</text><path d="M990.5 463.5 1320.5 463.5 1320.5 793.5 990.5 793.5Z" stroke="#E2F0D9" stroke-width="4.58333" stroke-miterlimit="8" fill-rule="evenodd"/><path d="M1100.11 620.463C1098.52 620.463 1097.08 620.868 1095.8 621.679 1094.51 622.489 1093.49 623.739 1092.74 625.427 1091.98 627.116 1091.6 629.203 1091.6 631.689 1091.6 634.418 1092 636.66 1092.8 638.416 1093.59 640.173 1094.63 641.422 1095.9 642.165 1097.17 642.908 1098.57 643.28 1100.11 643.28 1102.44 643.28 1104.64 642.354 1106.74 640.504 1108.83 638.653 1110.91 635.796 1112.96 631.932 1110.58 627.798 1108.39 624.853 1106.39 623.097 1104.39 621.341 1102.3 620.463 1100.11 620.463ZM1133.38 611.668C1134.74 611.668 1135.9 611.79 1136.87 612.033L1135.57 618.315C1134.76 618.18 1134.01 618.112 1133.3 618.112 1131.47 618.112 1129.83 618.531 1128.38 619.369 1126.93 620.206 1125.46 621.584 1123.96 623.502 1122.46 625.421 1120.66 628.231 1118.55 631.932 1119.88 634.499 1121.17 636.694 1122.42 638.518 1123.68 640.341 1124.88 641.76 1126.03 642.773 1127.18 643.786 1128.33 644.529 1129.49 645.002 1130.66 645.475 1131.94 645.711 1133.34 645.711 1134.18 645.711 1134.91 645.657 1135.53 645.549L1136.91 651.466C1135.18 651.898 1133.61 652.115 1132.21 652.115 1128.75 652.115 1125.74 650.912 1123.17 648.508 1120.61 646.103 1118.13 642.28 1115.76 637.038 1113.11 641.523 1110.52 644.752 1107.99 646.724 1105.47 648.697 1102.71 649.683 1099.71 649.683 1097.14 649.683 1094.86 648.899 1092.88 647.332 1090.89 645.765 1089.37 643.638 1088.3 640.949 1087.23 638.261 1086.7 635.282 1086.7 632.013 1086.7 628.69 1087.29 625.63 1088.48 622.834 1089.67 620.037 1091.28 617.876 1093.3 616.349 1095.33 614.823 1097.6 614.059 1100.11 614.059 1102.25 614.059 1104.13 614.471 1105.77 615.296 1107.4 616.12 1108.98 617.41 1110.51 619.166 1112.03 620.922 1113.78 623.475 1115.76 626.826 1117.57 623.367 1119.33 620.51 1121.04 618.254 1122.76 615.998 1124.57 614.336 1126.47 613.269 1128.38 612.202 1130.68 611.668 1133.38 611.668Z" fill="#FFFFFF" fill-rule="evenodd"/><text fill="#000000" fill-opacity="0" font-family="Arial,Arial_MSFontService,sans-serif" font-size="40.4463" x="1086.7" y="647.059">∝</text><path d="M1189.2 599.632 1191.43 599.632C1191.27 602.225 1191.19 605.819 1191.19 610.412L1191.19 645.022C1191.19 646.589 1191.27 647.771 1191.45 648.568 1191.63 649.366 1191.94 650.014 1192.38 650.514 1192.83 651.014 1193.47 651.405 1194.31 651.689 1195.15 651.973 1196.2 652.189 1197.47 652.338 1198.74 652.486 1200.41 652.587 1202.49 652.641L1202.49 655.6 1172.54 655.6 1172.54 652.641C1175.54 652.506 1177.68 652.324 1178.97 652.094 1180.25 651.865 1181.23 651.52 1181.91 651.061 1182.58 650.602 1183.07 649.953 1183.39 649.116 1183.7 648.278 1183.85 646.914 1183.85 645.022L1183.85 612.155C1183.85 611.074 1183.66 610.284 1183.28 609.784 1182.91 609.284 1182.35 609.034 1181.62 609.034 1180.76 609.034 1179.53 609.48 1177.93 610.371 1176.34 611.263 1174.37 612.492 1172.02 614.059L1170.23 610.939Z" fill="#FFFFFF" fill-rule="evenodd"/><text fill="#000000" fill-opacity="0" font-family="Arial,Arial_MSFontService,sans-serif" font-size="55.9683" x="1170.23" y="648.604">1</text><path d="M1320.5 463.5 1650.5 463.5 1650.5 793.5 1320.5 793.5Z" stroke="#E2F0D9" stroke-width="4.58333" stroke-miterlimit="8" fill-rule="evenodd"/><path d="M1430.11 620.463C1428.52 620.463 1427.08 620.868 1425.8 621.679 1424.51 622.489 1423.49 623.739 1422.74 625.427 1421.98 627.116 1421.6 629.203 1421.6 631.689 1421.6 634.418 1422 636.66 1422.8 638.416 1423.59 640.173 1424.63 641.422 1425.9 642.165 1427.17 642.908 1428.57 643.28 1430.11 643.28 1432.44 643.28 1434.64 642.354 1436.74 640.504 1438.83 638.653 1440.91 635.796 1442.96 631.932 1440.58 627.798 1438.39 624.853 1436.39 623.097 1434.39 621.341 1432.3 620.463 1430.11 620.463ZM1463.38 611.668C1464.74 611.668 1465.9 611.79 1466.87 612.033L1465.57 618.315C1464.76 618.18 1464.01 618.112 1463.3 618.112 1461.47 618.112 1459.83 618.531 1458.38 619.369 1456.93 620.206 1455.46 621.584 1453.96 623.502 1452.46 625.421 1450.66 628.231 1448.55 631.932 1449.88 634.499 1451.17 636.694 1452.42 638.518 1453.68 640.341 1454.88 641.76 1456.03 642.773 1457.18 643.786 1458.33 644.529 1459.49 645.002 1460.66 645.475 1461.94 645.711 1463.34 645.711 1464.18 645.711 1464.91 645.657 1465.53 645.549L1466.91 651.466C1465.18 651.898 1463.61 652.115 1462.21 652.115 1458.75 652.115 1455.74 650.912 1453.17 648.508 1450.61 646.103 1448.13 642.28 1445.76 637.038 1443.11 641.523 1440.52 644.752 1437.99 646.724 1435.47 648.697 1432.71 649.683 1429.71 649.683 1427.14 649.683 1424.86 648.899 1422.88 647.332 1420.89 645.765 1419.37 643.638 1418.3 640.949 1417.23 638.261 1416.7 635.282 1416.7 632.013 1416.7 628.69 1417.29 625.63 1418.48 622.834 1419.67 620.037 1421.28 617.876 1423.3 616.349 1425.33 614.823 1427.6 614.059 1430.11 614.059 1432.25 614.059 1434.13 614.471 1435.77 615.296 1437.4 616.12 1438.98 617.41 1440.51 619.166 1442.03 620.922 1443.78 623.475 1445.76 626.826 1447.57 623.367 1449.33 620.51 1451.04 618.254 1452.76 615.998 1454.57 614.336 1456.47 613.269 1458.38 612.202 1460.68 611.668 1463.38 611.668Z" fill="#FFFFFF" fill-rule="evenodd"/><text fill="#000000" fill-opacity="0" font-family="Arial,Arial_MSFontService,sans-serif" font-size="40.4463" x="1416.7" y="647.059">∝</text><path d="M1519.2 599.632 1521.43 599.632C1521.27 602.225 1521.19 605.819 1521.19 610.412L1521.19 645.022C1521.19 646.589 1521.27 647.771 1521.45 648.568 1521.63 649.366 1521.94 650.014 1522.38 650.514 1522.83 651.014 1523.47 651.405 1524.31 651.689 1525.15 651.973 1526.2 652.189 1527.47 652.338 1528.74 652.486 1530.41 652.587 1532.49 652.641L1532.49 655.6 1502.54 655.6 1502.54 652.641C1505.54 652.506 1507.68 652.324 1508.97 652.094 1510.25 651.865 1511.23 651.52 1511.91 651.061 1512.58 650.602 1513.07 649.953 1513.39 649.116 1513.7 648.278 1513.85 646.914 1513.85 645.022L1513.85 612.155C1513.85 611.074 1513.66 610.284 1513.28 609.784 1512.91 609.284 1512.35 609.034 1511.62 609.034 1510.76 609.034 1509.53 609.48 1507.93 610.371 1506.34 611.263 1504.37 612.492 1502.02 614.059L1500.23 610.939Z" fill="#FFFFFF" fill-rule="evenodd"/><text fill="#000000" fill-opacity="0" font-family="Arial,Arial_MSFontService,sans-serif" font-size="55.9683" x="1500.23" y="648.604">1</text><path d="M1650.5 463.5 1980.5 463.5 1980.5 793.5 1650.5 793.5Z" stroke="#E2F0D9" stroke-width="4.58333" stroke-miterlimit="8" fill-rule="evenodd"/><path d="M1760.11 620.463C1758.52 620.463 1757.08 620.868 1755.8 621.679 1754.51 622.489 1753.49 623.739 1752.74 625.427 1751.98 627.116 1751.6 629.203 1751.6 631.689 1751.6 634.418 1752 636.66 1752.8 638.416 1753.59 640.173 1754.63 641.422 1755.9 642.165 1757.17 642.908 1758.57 643.28 1760.11 643.28 1762.44 643.28 1764.64 642.354 1766.74 640.504 1768.83 638.653 1770.91 635.796 1772.96 631.932 1770.58 627.798 1768.39 624.853 1766.39 623.097 1764.39 621.341 1762.3 620.463 1760.11 620.463ZM1793.38 611.668C1794.74 611.668 1795.9 611.79 1796.87 612.033L1795.57 618.315C1794.76 618.18 1794.01 618.112 1793.3 618.112 1791.47 618.112 1789.83 618.531 1788.38 619.369 1786.93 620.206 1785.46 621.584 1783.96 623.502 1782.46 625.421 1780.66 628.231 1778.55 631.932 1779.88 634.499 1781.17 636.694 1782.42 638.518 1783.68 640.341 1784.88 641.76 1786.03 642.773 1787.18 643.786 1788.33 644.529 1789.49 645.002 1790.66 645.475 1791.94 645.711 1793.34 645.711 1794.18 645.711 1794.91 645.657 1795.53 645.549L1796.91 651.466C1795.18 651.898 1793.61 652.115 1792.21 652.115 1788.75 652.115 1785.74 650.912 1783.17 648.508 1780.61 646.103 1778.13 642.28 1775.76 637.038 1773.11 641.523 1770.52 644.752 1767.99 646.724 1765.47 648.697 1762.71 649.683 1759.71 649.683 1757.14 649.683 1754.86 648.899 1752.88 647.332 1750.89 645.765 1749.37 643.638 1748.3 640.949 1747.23 638.261 1746.7 635.282 1746.7 632.013 1746.7 628.69 1747.29 625.63 1748.48 622.834 1749.67 620.037 1751.28 617.876 1753.3 616.349 1755.33 614.823 1757.6 614.059 1760.11 614.059 1762.25 614.059 1764.13 614.471 1765.77 615.296 1767.4 616.12 1768.98 617.41 1770.51 619.166 1772.03 620.922 1773.78 623.475 1775.76 626.826 1777.57 623.367 1779.33 620.51 1781.04 618.254 1782.76 615.998 1784.57 614.336 1786.47 613.269 1788.38 612.202 1790.68 611.668 1793.38 611.668Z" fill="#FFFFFF" fill-rule="evenodd"/><text fill="#000000" fill-opacity="0" font-family="Arial,Arial_MSFontService,sans-serif" font-size="40.4463" x="1746.7" y="647.059">∝</text><path d="M1849.2 599.632 1851.43 599.632C1851.27 602.225 1851.19 605.819 1851.19 610.412L1851.19 645.022C1851.19 646.589 1851.27 647.771 1851.45 648.568 1851.63 649.366 1851.94 650.014 1852.38 650.514 1852.83 651.014 1853.47 651.405 1854.31 651.689 1855.15 651.973 1856.2 652.189 1857.47 652.338 1858.74 652.486 1860.41 652.587 1862.49 652.641L1862.49 655.6 1832.54 655.6 1832.54 652.641C1835.54 652.506 1837.68 652.324 1838.97 652.094 1840.25 651.865 1841.23 651.52 1841.91 651.061 1842.58 650.602 1843.07 649.953 1843.39 649.116 1843.7 648.278 1843.85 646.914 1843.85 645.022L1843.85 612.155C1843.85 611.074 1843.66 610.284 1843.28 609.784 1842.91 609.284 1842.35 609.034 1841.62 609.034 1840.76 609.034 1839.53 609.48 1837.93 610.371 1836.34 611.263 1834.37 612.492 1832.02 614.059L1830.23 610.939Z" fill="#FFFFFF" fill-rule="evenodd"/><text fill="#000000" fill-opacity="0" font-family="Arial,Arial_MSFontService,sans-serif" font-size="55.9683" x="1830.23" y="648.604">1</text><rect x="1414" y="1010" width="16.0001" height="20.9999"/><g clip-path="url(#clip1)"><g clip-path="url(#clip2)"><g clip-path="url(#clip3)"><path d="M1613.49 918.056 1586.27 890.831C1583.06 887.627 1578.71 885.823 1574.17 885.813L1572.07 885.813 1570.56 880.691C1569.31 876.429 1571.75 871.958 1576.01 870.705 1576.75 870.486 1577.52 870.376 1578.29 870.378L1601.88 870.378C1604.72 870.378 1607.03 868.07 1607.03 865.222 1607.03 862.374 1604.72 860.066 1601.88 860.066L1578.29 860.066C1573 860.08 1567.98 862.402 1564.54 866.425 1564.46 865.063 1564.46 863.697 1564.54 862.334 1566.54 845.719 1579.94 832.794 1596.62 831.397L1600.67 830.813C1603.52 830.528 1605.6 827.988 1605.31 825.141 1605.03 822.293 1602.49 820.215 1599.64 820.5L1595.55 820.913C1573.93 822.83 1556.67 839.732 1554.3 861.303 1553.51 869.736 1555.08 878.221 1558.84 885.813L1540 885.813 1553.75 899.563 1529 929.813C1525.08 934.596 1519.23 937.372 1513.05 937.375L1385.31 937.375C1373.92 937.375 1364.69 946.609 1364.69 958L1364.69 992.375 1378.44 986.188 1378.44 1009.56C1378.44 1003.87 1373.83 999.248 1368.13 999.245 1368.03 999.245 1367.92 999.247 1367.82 999.25 1362.16 999.562 1357.75 1004.27 1357.81 1009.94L1357.81 1085.19C1357.81 1090.88 1362.43 1095.5 1368.12 1095.5 1373.82 1095.5 1378.44 1090.88 1378.44 1085.19L1378.44 1029.47C1383.78 1032.56 1390.52 1031.72 1394.94 1027.4L1416.59 1005.75C1426.11 1010.44 1436.57 1012.92 1447.19 1013L1491.88 1013 1491.88 1085.19C1491.75 1090.77 1496.18 1095.39 1501.76 1095.51 1502.01 1095.52 1502.25 1095.51 1502.5 1095.5 1508.18 1095.2 1512.6 1090.46 1512.5 1084.78L1512.5 1013C1517.18 1012.9 1521.81 1012.09 1526.25 1010.59L1526.25 1085.19C1526.13 1090.77 1530.55 1095.39 1536.13 1095.51 1536.38 1095.52 1536.63 1095.51 1536.87 1095.5 1542.55 1095.2 1546.98 1090.46 1546.88 1084.78L1546.88 1004.72 1558.8 995.984C1562.94 992.968 1565.81 988.52 1566.85 983.506L1577.81 930.5 1608.34 930.5C1612.36 930.503 1615.63 927.244 1615.63 923.219 1615.63 921.282 1614.86 919.425 1613.49 918.056Z" fill="#F5B68B"/><path d="M1399.78 1032.22C1397.62 1034.34 1395.03 1035.99 1392.19 1037.06L1392.19 1085.19C1392.19 1090.88 1396.8 1095.5 1402.5 1095.5 1408.2 1095.5 1412.81 1090.88 1412.81 1085.19L1412.81 1029.47C1418.15 1032.56 1424.9 1031.72 1429.31 1027.4L1437.56 1019.15C1430.81 1018.41 1424.21 1016.67 1417.97 1014Z" fill="#F5B68B"/></g></g></g><rect x="1388" y="1014" width="128" height="82.9998"/><rect x="1501" y="1005" width="35.9998" height="77" fill="#F5B68B"/><rect x="1371" y="1007" width="28.0002" height="90.0001" fill="#F5B68B"/><rect x="1505" y="1081" width="43" height="15.9998" fill="#F5B68B"/><rect x="1381" y="1081" width="22" height="15.9998" fill="#F5B68B"/><rect x="1383" y="1000" width="22" height="19.9999" fill="#F5B68B"/><rect x="1351" y="994" width="28.0002" height="15.9998"/><g clip-path="url(#clip4)"><g clip-path="url(#clip5)"><g clip-path="url(#clip6)"><path d="M1615.66 915.31 1588.75 888.401C1584.9 884.539 1579.67 882.37 1574.22 882.375L1571.92 882.375 1570.65 877.281C1569.72 873.545 1571.99 869.762 1575.73 868.832 1576.28 868.695 1576.84 868.625 1577.41 868.625L1601.9 868.625C1603.79 868.625 1605.33 867.086 1605.33 865.188 1605.33 863.289 1603.79 861.75 1601.9 861.75L1578.06 861.75C1574.74 861.68 1571.49 862.729 1568.84 864.727 1565.7 867.191 1563.8 870.909 1563.64 874.898 1563.64 875.026 1563.6 875.026 1563.57 874.898 1561.19 864.831 1563.01 854.227 1568.61 845.529 1575.75 834.827 1587.87 828.528 1600.74 828.839 1602.64 828.839 1604.17 827.3 1604.17 825.402 1604.17 823.503 1602.64 821.964 1600.74 821.964 1585.55 821.633 1571.26 829.104 1562.86 841.761 1555.05 853.855 1553.52 868.962 1558.75 882.375L1540.05 882.375C1538.15 882.375 1536.61 883.915 1536.61 885.813 1536.62 886.725 1536.98 887.598 1537.62 888.243L1549.17 899.793 1526.38 927.637C1523.13 931.631 1518.25 933.945 1513.09 933.938L1381.91 933.938C1368.62 933.938 1357.84 944.711 1357.84 958L1357.84 992.375C1357.84 994.274 1359.38 995.813 1361.28 995.812 1361.77 995.812 1362.25 995.709 1362.69 995.51L1375.04 989.969 1375.04 1006.25 1367.9 1006.39C1360.43 1006.58 1354.46 1012.67 1354.41 1020.14L1354.41 1088.62C1354.41 1089.54 1354.77 1090.41 1355.42 1091.06L1362.3 1097.93C1362.94 1098.58 1363.82 1098.94 1364.73 1098.94L1385.35 1098.94C1387.25 1098.94 1388.79 1097.41 1388.79 1095.51L1388.79 1090.87C1388.79 1086.31 1386.98 1081.94 1383.76 1078.72L1381.92 1076.88 1381.92 1037.06 1383.11 1037.06C1387.66 1037.06 1392.03 1035.25 1395.25 1032.03L1417.42 1009.91C1426.8 1014.12 1436.95 1016.35 1447.23 1016.44L1498.79 1016.44 1498.79 1088.62C1498.79 1089.53 1499.15 1090.39 1499.79 1091.03L1506.67 1097.91C1507.31 1098.55 1508.19 1098.92 1509.1 1098.92L1529.73 1098.92C1531.62 1098.92 1533.16 1097.38 1533.16 1095.48L1533.16 1090.87C1533.16 1086.31 1531.35 1081.94 1528.13 1078.72L1526.29 1076.88 1526.29 1012.94C1530.93 1012.81 1535.54 1012.2 1540.04 1011.1L1540.04 1078.31C1540.05 1079.22 1540.41 1080.1 1541.05 1080.74L1543.9 1083.6C1545.83 1085.53 1546.91 1088.15 1546.91 1090.88L1546.91 1092.06 1540.03 1092.06C1538.14 1092.06 1536.6 1093.6 1536.6 1095.5 1536.6 1097.4 1538.14 1098.94 1540.03 1098.94L1550.35 1098.94C1552.25 1098.94 1553.78 1097.4 1553.78 1095.5L1553.78 1090.87C1553.78 1086.32 1551.98 1081.96 1548.77 1078.74L1546.92 1076.88 1546.92 1008.65C1547.63 1008.32 1548.31 1007.93 1548.95 1007.5L1560.88 998.769C1565.71 995.249 1569.05 990.06 1570.27 984.211L1580.67 933.938 1608.41 933.938C1614.34 933.929 1619.15 929.109 1619.14 923.173 1619.14 922.587 1619.09 922.003 1618.99 921.425 1618.55 919.089 1617.39 916.95 1615.66 915.31ZM1502.19 1009.56 1447.25 1009.56C1437.15 1009.48 1427.21 1007.13 1418.15 1002.69 1416.81 1002.08 1415.24 1002.37 1414.2 1003.42L1390.38 1027.18C1388.45 1029.11 1385.83 1030.19 1383.1 1030.19L1378.48 1030.19C1376.58 1030.19 1375.04 1031.73 1375.04 1033.62L1375.04 1078.31C1375.04 1079.22 1375.4 1080.1 1376.04 1080.74L1378.89 1083.59C1380.82 1085.53 1381.91 1088.15 1381.91 1090.88L1381.91 1092.06 1366.15 1092.06 1361.29 1087.2 1361.29 1020.14C1361.32 1016.4 1364.3 1013.36 1368.04 1013.26L1378.55 1013.06C1380.42 1013.02 1381.92 1011.49 1381.92 1009.62L1381.92 971.479C1381.95 968.041 1383.06 958.138 1387.73 953.604 1389.14 952.334 1389.26 950.16 1387.99 948.749 1386.72 947.338 1384.54 947.223 1383.13 948.493 1383.07 948.553 1383 948.616 1382.94 948.681 1375.28 956.137 1375.05 970.808 1375.03 971.461L1375.03 982.406 1364.72 987.081 1364.72 958C1364.72 948.508 1372.42 940.813 1381.91 940.813L1513.1 940.813C1520.31 940.823 1527.15 937.583 1531.71 931.992L1556.46 901.742C1557.57 900.375 1557.47 898.384 1556.22 897.136L1548.4 889.312C1548.39 889.301 1548.38 889.28 1548.4 889.264 1548.4 889.252 1548.42 889.247 1548.43 889.25L1574.21 889.25C1577.84 889.247 1581.32 890.691 1583.89 893.262L1611.12 920.49C1612.62 921.989 1612.63 924.424 1611.13 925.93 1610.41 926.655 1609.43 927.062 1608.41 927.063L1577.87 927.063C1576.23 927.062 1574.83 928.212 1574.5 929.813L1563.53 982.819C1562.67 986.999 1560.27 990.707 1556.82 993.221L1544.98 1001.89C1544.92 1001.93 1538.45 1006.12 1522.84 1006.12 1520.94 1006.12 1519.41 1007.66 1519.41 1009.56L1519.41 1078.31C1519.41 1079.23 1519.77 1080.1 1520.41 1080.75L1523.26 1083.6C1525.19 1085.53 1526.27 1088.15 1526.27 1090.88L1526.27 1092.06 1510.52 1092.06 1505.67 1087.2 1505.67 1013.05C1505.67 1011.13 1504.11 1009.57 1502.19 1009.56Z" fill="#C55A11"/><path d="M1402.55 1076.88 1402.55 1040.49C1402.55 1038.59 1401.01 1037.05 1399.11 1037.05 1397.21 1037.05 1395.67 1038.59 1395.67 1040.49L1395.67 1078.3C1395.67 1079.21 1396.03 1080.08 1396.68 1080.73L1399.53 1083.59C1401.45 1085.52 1402.54 1088.14 1402.54 1090.87L1402.54 1092.06 1395.66 1092.06C1393.76 1092.06 1392.23 1093.6 1392.23 1095.5 1392.23 1097.4 1393.76 1098.94 1395.66 1098.94L1405.98 1098.94C1407.87 1098.94 1409.41 1097.4 1409.41 1095.5L1409.41 1090.87C1409.41 1086.32 1407.61 1081.96 1404.4 1078.74Z" fill="#C55A11"/><path d="M1584.7 904.719C1584.7 907.567 1582.39 909.875 1579.54 909.875 1576.7 909.875 1574.39 907.567 1574.39 904.719 1574.39 901.871 1576.7 899.563 1579.54 899.563 1582.39 899.563 1584.7 901.871 1584.7 904.719Z" fill="#C55A11"/></g></g></g></g></svg>