<svg width="995" height="995" xmlns="http://www.w3.org/2000/svg" xmlns:xlink="http://www.w3.org/1999/xlink" overflow="hidden"><defs><clipPath id="clip0"><rect x="2198" y="461" width="995" height="995"/></clipPath><clipPath id="clip1"><rect x="2530" y="793" width="330" height="331"/></clipPath><clipPath id="clip2"><rect x="2530" y="793" width="330" height="331"/></clipPath><clipPath id="clip3"><rect x="2530" y="793" width="330" height="331"/></clipPath><clipPath id="clip4"><rect x="2530" y="793" width="330" height="331"/></clipPath><clipPath id="clip5"><rect x="2530" y="793" width="330" height="331"/></clipPath><clipPath id="clip6"><rect x="2530" y="793" width="330" height="331"/></clipPath></defs><g clip-path="url(#clip0)" transform="translate(-2198 -461)"><path d="M2530.5 793.5 2860.5 793.5 2860.5 1123.5 2530.5 1123.5Z" stroke="#E2F0D9" stroke-width="4.58333" stroke-miterlimit="8" fill-rule="evenodd"/><path d="M2200.5 793.5 2530.5 793.5 2530.5 1123.5 2200.5 1123.5Z" stroke="#E2F0D9" stroke-width="4.58333" stroke-miterlimit="8" fill="#B4D99F" fill-rule="evenodd"/><path d="M2310.11 950.463C2308.52 950.463 2307.08 950.868 2305.8 951.679 2304.51 952.489 2303.49 953.739 2302.74 955.427 2301.98 957.116 2301.6 959.203 2301.6 961.689 2301.6 964.418 2302 966.66 2302.8 968.416 2303.59 970.173 2304.63 971.422 2305.9 972.165 2307.17 972.908 2308.57 973.28 2310.11 973.28 2312.44 973.28 2314.64 972.354 2316.74 970.504 2318.83 968.653 2320.91 965.796 2322.96 961.932 2320.58 957.798 2318.39 954.853 2316.39 953.097 2314.39 951.341 2312.3 950.463 2310.11 950.463ZM2343.38 941.668C2344.74 941.668 2345.9 941.79 2346.87 942.033L2345.57 948.315C2344.76 948.18 2344.01 948.112 2343.3 948.112 2341.47 948.112 2339.83 948.531 2338.38 949.369 2336.93 950.206 2335.46 951.584 2333.96 953.502 2332.46 955.421 2330.66 958.231 2328.55 961.932 2329.88 964.499 2331.17 966.694 2332.42 968.518 2333.68 970.341 2334.88 971.76 2336.03 972.773 2337.18 973.786 2338.33 974.529 2339.49 975.002 2340.66 975.475 2341.94 975.711 2343.34 975.711 2344.18 975.711 2344.91 975.657 2345.53 975.549L2346.91 981.466C2345.18 981.898 2343.61 982.115 2342.21 982.115 2338.75 982.115 2335.74 980.912 2333.17 978.508 2330.61 976.103 2328.13 972.28 2325.76 967.038 2323.11 971.523 2320.52 974.752 2317.99 976.724 2315.47 978.697 2312.71 979.683 2309.71 979.683 2307.14 979.683 2304.86 978.899 2302.88 977.332 2300.89 975.765 2299.37 973.638 2298.3 970.949 2297.23 968.261 2296.7 965.282 2296.7 962.013 2296.7 958.69 2297.29 955.63 2298.48 952.834 2299.67 950.037 2301.28 947.876 2303.3 946.349 2305.33 944.823 2307.6 944.059 2310.11 944.059 2312.25 944.059 2314.13 944.471 2315.77 945.296 2317.4 946.12 2318.98 947.41 2320.51 949.166 2322.03 950.922 2323.78 953.475 2325.76 956.826 2327.57 953.367 2329.33 950.51 2331.04 948.254 2332.76 945.998 2334.57 944.336 2336.47 943.269 2338.38 942.202 2340.68 941.668 2343.38 941.668Z" fill="#FFFFFF" fill-rule="evenodd"/><text fill="#000000" fill-opacity="0" font-family="Arial,Arial_MSFontService,sans-serif" font-size="40.4463" x="2296.7" y="977.059">∝</text><path d="M2395.8 933.077C2393.77 933.077 2392.05 933.428 2390.65 934.13 2389.24 934.833 2388.1 935.799 2387.23 937.028 2386.35 938.257 2385.71 939.703 2385.3 941.364 2384.9 943.026 2384.69 944.829 2384.69 946.775 2384.69 950.8 2385.52 953.921 2387.16 956.137 2388.81 958.352 2391.14 959.46 2394.14 959.46 2395.16 959.46 2396.14 959.372 2397.07 959.196 2398.01 959.021 2398.92 958.764 2399.81 958.426 2400.7 958.089 2401.57 957.656 2402.42 957.13 2403.27 956.603 2404.04 956.042 2404.71 955.448 2404.96 955.232 2405.17 954.948 2405.36 954.597 2405.55 954.245 2405.7 953.786 2405.81 953.219 2405.92 952.651 2405.97 951.76 2405.97 950.544 2405.97 946.842 2405.6 943.674 2404.85 941.04 2404.11 938.406 2402.98 936.42 2401.45 935.083 2399.92 933.745 2398.04 933.077 2395.8 933.077ZM2396.24 929.632C2401.92 929.632 2406.24 931.591 2409.21 935.508 2412.18 939.426 2413.67 945.059 2413.67 952.408 2413.67 959.136 2412.58 964.965 2410.39 969.896 2408.2 974.826 2405.13 978.663 2401.19 981.405 2397.24 984.148 2392.64 985.762 2387.37 986.248L2385.71 984.019 2385.71 982.034C2389.49 982.034 2392.76 981.196 2395.53 979.521 2398.3 977.846 2400.53 975.367 2402.22 972.084 2403.91 968.801 2405.04 964.499 2405.6 959.176L2405.2 959.014C2402.93 960.635 2400.69 961.824 2398.49 962.58 2396.29 963.337 2393.91 963.715 2391.34 963.715 2388.29 963.715 2385.69 963.047 2383.54 961.709 2381.39 960.372 2379.78 958.494 2378.69 956.076 2377.61 953.658 2377.07 950.828 2377.07 947.585 2377.07 945.154 2377.48 942.85 2378.29 940.675 2379.1 938.5 2380.3 936.596 2381.9 934.961 2383.49 933.326 2385.48 932.03 2387.87 931.07 2390.26 930.111 2393.05 929.632 2396.24 929.632Z" fill="#FFFFFF" fill-rule="evenodd"/><text fill="#000000" fill-opacity="0" font-family="Arial,Arial_MSFontService,sans-serif" font-size="56.6167" x="2377.07" y="979.171">9</text><path d="M2860.5 793.5 3190.5 793.5 3190.5 1123.5 2860.5 1123.5Z" stroke="#E2F0D9" stroke-width="4.58333" stroke-miterlimit="8" fill-rule="evenodd"/><path d="M2970.11 950.463C2968.52 950.463 2967.08 950.868 2965.8 951.679 2964.51 952.489 2963.49 953.739 2962.74 955.427 2961.98 957.116 2961.6 959.203 2961.6 961.689 2961.6 964.418 2962 966.66 2962.8 968.416 2963.59 970.173 2964.63 971.422 2965.9 972.165 2967.17 972.908 2968.57 973.28 2970.11 973.28 2972.44 973.28 2974.64 972.354 2976.74 970.504 2978.83 968.653 2980.91 965.796 2982.96 961.932 2980.58 957.798 2978.39 954.853 2976.39 953.097 2974.39 951.341 2972.3 950.463 2970.11 950.463ZM3003.38 941.668C3004.74 941.668 3005.9 941.79 3006.87 942.033L3005.57 948.315C3004.76 948.18 3004.01 948.112 3003.3 948.112 3001.47 948.112 2999.83 948.531 2998.38 949.369 2996.93 950.206 2995.46 951.584 2993.96 953.502 2992.46 955.421 2990.66 958.231 2988.55 961.932 2989.88 964.499 2991.17 966.694 2992.42 968.518 2993.68 970.341 2994.88 971.76 2996.03 972.773 2997.18 973.786 2998.33 974.529 2999.49 975.002 3000.66 975.475 3001.94 975.711 3003.34 975.711 3004.18 975.711 3004.91 975.657 3005.53 975.549L3006.91 981.466C3005.18 981.898 3003.61 982.115 3002.21 982.115 2998.75 982.115 2995.74 980.912 2993.17 978.508 2990.61 976.103 2988.13 972.28 2985.76 967.038 2983.11 971.523 2980.52 974.752 2977.99 976.724 2975.47 978.697 2972.71 979.683 2969.71 979.683 2967.14 979.683 2964.86 978.899 2962.88 977.332 2960.89 975.765 2959.37 973.638 2958.3 970.949 2957.23 968.261 2956.7 965.282 2956.7 962.013 2956.7 958.69 2957.29 955.63 2958.48 952.834 2959.67 950.037 2961.28 947.876 2963.3 946.349 2965.33 944.823 2967.6 944.059 2970.11 944.059 2972.25 944.059 2974.13 944.471 2975.77 945.296 2977.4 946.12 2978.98 947.41 2980.51 949.166 2982.03 950.922 2983.78 953.475 2985.76 956.826 2987.57 953.367 2989.33 950.51 2991.04 948.254 2992.76 945.998 2994.57 944.336 2996.47 943.269 2998.38 942.202 3000.68 941.668 3003.38 941.668Z" fill="#FFFFFF" fill-rule="evenodd"/><text fill="#000000" fill-opacity="0" font-family="Arial,Arial_MSFontService,sans-serif" font-size="40.4463" x="2956.7" y="977.059">∝</text><path d="M3056 933.077C3054.14 933.077 3052.57 933.63 3051.32 934.738 3050.06 935.846 3049.05 937.44 3048.28 939.52 3047.51 941.601 3046.96 944.134 3046.64 947.119 3046.31 950.105 3046.15 953.475 3046.15 957.231 3046.15 966.039 3046.97 972.503 3048.6 976.623 3050.24 980.743 3052.77 982.804 3056.2 982.804 3059.47 982.804 3061.9 980.865 3063.48 976.988 3065.06 973.111 3065.85 967.106 3065.85 958.974 3065.85 952.759 3065.44 947.727 3064.63 943.877 3063.82 940.027 3062.69 937.264 3061.25 935.589 3059.8 933.914 3058.05 933.077 3056 933.077ZM3056.2 929.632C3062.12 929.632 3066.52 931.915 3069.41 936.481 3072.3 941.047 3073.75 947.95 3073.75 957.19 3073.75 966.755 3072.2 973.989 3069.11 978.893 3066.02 983.797 3061.5 986.248 3055.55 986.248 3049.72 986.248 3045.37 983.952 3042.52 979.359 3039.67 974.766 3038.25 967.795 3038.25 958.447 3038.25 953.475 3038.69 949.179 3039.57 945.559 3040.44 941.939 3041.67 938.946 3043.25 936.582 3044.83 934.218 3046.73 932.469 3048.95 931.334 3051.16 930.199 3053.58 929.632 3056.2 929.632Z" fill="#FFFFFF" fill-rule="evenodd"/><text fill="#000000" fill-opacity="0" font-family="Arial,Arial_MSFontService,sans-serif" font-size="56.6167" x="3038.25" y="979.171">0</text><path d="M2200.5 1123.5 2530.5 1123.5 2530.5 1453.5 2200.5 1453.5Z" stroke="#E2F0D9" stroke-width="4.58333" stroke-miterlimit="8" fill-rule="evenodd"/><path d="M2310.11 1280.46C2308.52 1280.46 2307.08 1280.87 2305.8 1281.68 2304.51 1282.49 2303.49 1283.74 2302.74 1285.43 2301.98 1287.12 2301.6 1289.2 2301.6 1291.69 2301.6 1294.42 2302 1296.66 2302.8 1298.42 2303.59 1300.17 2304.63 1301.42 2305.9 1302.17 2307.17 1302.91 2308.57 1303.28 2310.11 1303.28 2312.44 1303.28 2314.64 1302.35 2316.74 1300.5 2318.83 1298.65 2320.91 1295.8 2322.96 1291.93 2320.58 1287.8 2318.39 1284.85 2316.39 1283.1 2314.39 1281.34 2312.3 1280.46 2310.11 1280.46ZM2343.38 1271.67C2344.74 1271.67 2345.9 1271.79 2346.87 1272.03L2345.57 1278.31C2344.76 1278.18 2344.01 1278.11 2343.3 1278.11 2341.47 1278.11 2339.83 1278.53 2338.38 1279.37 2336.93 1280.21 2335.46 1281.58 2333.96 1283.5 2332.46 1285.42 2330.66 1288.23 2328.55 1291.93 2329.88 1294.5 2331.17 1296.69 2332.42 1298.52 2333.68 1300.34 2334.88 1301.76 2336.03 1302.77 2337.18 1303.79 2338.33 1304.53 2339.49 1305 2340.66 1305.47 2341.94 1305.71 2343.34 1305.71 2344.18 1305.71 2344.91 1305.66 2345.53 1305.55L2346.91 1311.47C2345.18 1311.9 2343.61 1312.11 2342.21 1312.11 2338.75 1312.11 2335.74 1310.91 2333.17 1308.51 2330.61 1306.1 2328.13 1302.28 2325.76 1297.04 2323.11 1301.52 2320.52 1304.75 2317.99 1306.72 2315.47 1308.7 2312.71 1309.68 2309.71 1309.68 2307.14 1309.68 2304.86 1308.9 2302.88 1307.33 2300.89 1305.77 2299.37 1303.64 2298.3 1300.95 2297.23 1298.26 2296.7 1295.28 2296.7 1292.01 2296.7 1288.69 2297.29 1285.63 2298.48 1282.83 2299.67 1280.04 2301.28 1277.88 2303.3 1276.35 2305.33 1274.82 2307.6 1274.06 2310.11 1274.06 2312.25 1274.06 2314.13 1274.47 2315.77 1275.3 2317.4 1276.12 2318.98 1277.41 2320.51 1279.17 2322.03 1280.92 2323.78 1283.48 2325.76 1286.83 2327.57 1283.37 2329.33 1280.51 2331.04 1278.25 2332.76 1276 2334.57 1274.34 2336.47 1273.27 2338.38 1272.2 2340.68 1271.67 2343.38 1271.67Z" fill="#FFFFFF" fill-rule="evenodd"/><text fill="#000000" fill-opacity="0" font-family="Arial,Arial_MSFontService,sans-serif" font-size="40.4463" x="2296.7" y="1307.06">∝</text><path d="M2396 1263.08C2394.14 1263.08 2392.57 1263.63 2391.32 1264.74 2390.06 1265.85 2389.05 1267.44 2388.28 1269.52 2387.51 1271.6 2386.96 1274.13 2386.64 1277.12 2386.31 1280.1 2386.15 1283.48 2386.15 1287.23 2386.15 1296.04 2386.97 1302.5 2388.6 1306.62 2390.24 1310.74 2392.77 1312.8 2396.2 1312.8 2399.47 1312.8 2401.9 1310.86 2403.48 1306.99 2405.06 1303.11 2405.85 1297.11 2405.85 1288.97 2405.85 1282.76 2405.44 1277.73 2404.63 1273.88 2403.82 1270.03 2402.69 1267.26 2401.25 1265.59 2399.8 1263.91 2398.05 1263.08 2396 1263.08ZM2396.2 1259.63C2402.12 1259.63 2406.52 1261.91 2409.41 1266.48 2412.3 1271.05 2413.75 1277.95 2413.75 1287.19 2413.75 1296.75 2412.2 1303.99 2409.11 1308.89 2406.02 1313.8 2401.5 1316.25 2395.55 1316.25 2389.72 1316.25 2385.37 1313.95 2382.52 1309.36 2379.67 1304.77 2378.25 1297.79 2378.25 1288.45 2378.25 1283.48 2378.69 1279.18 2379.57 1275.56 2380.44 1271.94 2381.67 1268.95 2383.25 1266.58 2384.83 1264.22 2386.73 1262.47 2388.95 1261.33 2391.16 1260.2 2393.58 1259.63 2396.2 1259.63Z" fill="#FFFFFF" fill-rule="evenodd"/><text fill="#000000" fill-opacity="0" font-family="Arial,Arial_MSFontService,sans-serif" font-size="56.6167" x="2378.25" y="1309.17">0</text><path d="M2530.5 1123.5 2860.5 1123.5 2860.5 1453.5 2530.5 1453.5Z" stroke="#E2F0D9" stroke-width="4.58333" stroke-miterlimit="8" fill-rule="evenodd"/><path d="M2640.11 1280.46C2638.52 1280.46 2637.08 1280.87 2635.8 1281.68 2634.51 1282.49 2633.49 1283.74 2632.74 1285.43 2631.98 1287.12 2631.6 1289.2 2631.6 1291.69 2631.6 1294.42 2632 1296.66 2632.8 1298.42 2633.59 1300.17 2634.63 1301.42 2635.9 1302.17 2637.17 1302.91 2638.57 1303.28 2640.11 1303.28 2642.44 1303.28 2644.64 1302.35 2646.74 1300.5 2648.83 1298.65 2650.91 1295.8 2652.96 1291.93 2650.58 1287.8 2648.39 1284.85 2646.39 1283.1 2644.39 1281.34 2642.3 1280.46 2640.11 1280.46ZM2673.38 1271.67C2674.74 1271.67 2675.9 1271.79 2676.87 1272.03L2675.57 1278.31C2674.76 1278.18 2674.01 1278.11 2673.3 1278.11 2671.47 1278.11 2669.83 1278.53 2668.38 1279.37 2666.93 1280.21 2665.46 1281.58 2663.96 1283.5 2662.46 1285.42 2660.66 1288.23 2658.55 1291.93 2659.88 1294.5 2661.17 1296.69 2662.42 1298.52 2663.68 1300.34 2664.88 1301.76 2666.03 1302.77 2667.18 1303.79 2668.33 1304.53 2669.49 1305 2670.66 1305.47 2671.94 1305.71 2673.34 1305.71 2674.18 1305.71 2674.91 1305.66 2675.53 1305.55L2676.91 1311.47C2675.18 1311.9 2673.61 1312.11 2672.21 1312.11 2668.75 1312.11 2665.74 1310.91 2663.17 1308.51 2660.61 1306.1 2658.13 1302.28 2655.76 1297.04 2653.11 1301.52 2650.52 1304.75 2647.99 1306.72 2645.47 1308.7 2642.71 1309.68 2639.71 1309.68 2637.14 1309.68 2634.86 1308.9 2632.88 1307.33 2630.89 1305.77 2629.37 1303.64 2628.3 1300.95 2627.23 1298.26 2626.7 1295.28 2626.7 1292.01 2626.7 1288.69 2627.29 1285.63 2628.48 1282.83 2629.67 1280.04 2631.28 1277.88 2633.3 1276.35 2635.33 1274.82 2637.6 1274.06 2640.11 1274.06 2642.25 1274.06 2644.13 1274.47 2645.77 1275.3 2647.4 1276.12 2648.98 1277.41 2650.51 1279.17 2652.03 1280.92 2653.78 1283.48 2655.76 1286.83 2657.57 1283.37 2659.33 1280.51 2661.04 1278.25 2662.76 1276 2664.57 1274.34 2666.47 1273.27 2668.38 1272.2 2670.68 1271.67 2673.38 1271.67Z" fill="#FFFFFF" fill-rule="evenodd"/><text fill="#000000" fill-opacity="0" font-family="Arial,Arial_MSFontService,sans-serif" font-size="40.4463" x="2626.7" y="1307.06">∝</text><path d="M2726 1263.08C2724.14 1263.08 2722.57 1263.63 2721.32 1264.74 2720.06 1265.85 2719.05 1267.44 2718.28 1269.52 2717.51 1271.6 2716.96 1274.13 2716.64 1277.12 2716.31 1280.1 2716.15 1283.48 2716.15 1287.23 2716.15 1296.04 2716.97 1302.5 2718.6 1306.62 2720.24 1310.74 2722.77 1312.8 2726.2 1312.8 2729.47 1312.8 2731.9 1310.86 2733.48 1306.99 2735.06 1303.11 2735.85 1297.11 2735.85 1288.97 2735.85 1282.76 2735.44 1277.73 2734.63 1273.88 2733.82 1270.03 2732.69 1267.26 2731.25 1265.59 2729.8 1263.91 2728.05 1263.08 2726 1263.08ZM2726.2 1259.63C2732.12 1259.63 2736.52 1261.91 2739.41 1266.48 2742.3 1271.05 2743.75 1277.95 2743.75 1287.19 2743.75 1296.75 2742.2 1303.99 2739.11 1308.89 2736.02 1313.8 2731.5 1316.25 2725.55 1316.25 2719.72 1316.25 2715.37 1313.95 2712.52 1309.36 2709.67 1304.77 2708.25 1297.79 2708.25 1288.45 2708.25 1283.48 2708.69 1279.18 2709.57 1275.56 2710.44 1271.94 2711.67 1268.95 2713.25 1266.58 2714.83 1264.22 2716.73 1262.47 2718.95 1261.33 2721.16 1260.2 2723.58 1259.63 2726.2 1259.63Z" fill="#FFFFFF" fill-rule="evenodd"/><text fill="#000000" fill-opacity="0" font-family="Arial,Arial_MSFontService,sans-serif" font-size="56.6167" x="2708.25" y="1309.17">0</text><path d="M2860.5 1123.5 3190.5 1123.5 3190.5 1453.5 2860.5 1453.5Z" stroke="#E2F0D9" stroke-width="4.58333" stroke-miterlimit="8" fill="#8EC26A" fill-rule="evenodd"/><path d="M2970.11 1280.46C2968.52 1280.46 2967.08 1280.87 2965.8 1281.68 2964.51 1282.49 2963.49 1283.74 2962.74 1285.43 2961.98 1287.12 2961.6 1289.2 2961.6 1291.69 2961.6 1294.42 2962 1296.66 2962.8 1298.42 2963.59 1300.17 2964.63 1301.42 2965.9 1302.17 2967.17 1302.91 2968.57 1303.28 2970.11 1303.28 2972.44 1303.28 2974.64 1302.35 2976.74 1300.5 2978.83 1298.65 2980.91 1295.8 2982.96 1291.93 2980.58 1287.8 2978.39 1284.85 2976.39 1283.1 2974.39 1281.34 2972.3 1280.46 2970.11 1280.46ZM3003.38 1271.67C3004.74 1271.67 3005.9 1271.79 3006.87 1272.03L3005.57 1278.31C3004.76 1278.18 3004.01 1278.11 3003.3 1278.11 3001.47 1278.11 2999.83 1278.53 2998.38 1279.37 2996.93 1280.21 2995.46 1281.58 2993.96 1283.5 2992.46 1285.42 2990.66 1288.23 2988.55 1291.93 2989.88 1294.5 2991.17 1296.69 2992.42 1298.52 2993.68 1300.34 2994.88 1301.76 2996.03 1302.77 2997.18 1303.79 2998.33 1304.53 2999.49 1305 3000.66 1305.47 3001.94 1305.71 3003.34 1305.71 3004.18 1305.71 3004.91 1305.66 3005.53 1305.55L3006.91 1311.47C3005.18 1311.9 3003.61 1312.11 3002.21 1312.11 2998.75 1312.11 2995.74 1310.91 2993.17 1308.51 2990.61 1306.1 2988.13 1302.28 2985.76 1297.04 2983.11 1301.52 2980.52 1304.75 2977.99 1306.72 2975.47 1308.7 2972.71 1309.68 2969.71 1309.68 2967.14 1309.68 2964.86 1308.9 2962.88 1307.33 2960.89 1305.77 2959.37 1303.64 2958.3 1300.95 2957.23 1298.26 2956.7 1295.28 2956.7 1292.01 2956.7 1288.69 2957.29 1285.63 2958.48 1282.83 2959.67 1280.04 2961.28 1277.88 2963.3 1276.35 2965.33 1274.82 2967.6 1274.06 2970.11 1274.06 2972.25 1274.06 2974.13 1274.47 2975.77 1275.3 2977.4 1276.12 2978.98 1277.41 2980.51 1279.17 2982.03 1280.92 2983.78 1283.48 2985.76 1286.83 2987.57 1283.37 2989.33 1280.51 2991.04 1278.25 2992.76 1276 2994.57 1274.34 2996.47 1273.27 2998.38 1272.2 3000.68 1271.67 3003.38 1271.67Z" fill="#FFFFFF" fill-rule="evenodd"/><text fill="#000000" fill-opacity="0" font-family="Arial,Arial_MSFontService,sans-serif" font-size="40.4463" x="2956.7" y="1307.06">∝</text><path d="M3058.67 1269.16 3042.83 1294.32 3042.83 1294.89 3058.67 1294.89 3058.67 1284.8C3058.67 1282.26 3058.71 1279.42 3058.8 1276.27 3058.88 1273.12 3058.97 1270.75 3059.08 1269.16ZM3059.85 1260 3065.65 1260 3065.65 1294.89 3066.5 1294.89C3068.06 1294.89 3069.18 1294.78 3069.86 1294.55 3070.54 1294.32 3071.1 1293.91 3071.54 1293.33 3071.99 1292.75 3072.4 1291.8 3072.78 1290.47L3075.86 1290.47 3075.37 1298.82 3065.65 1298.82 3065.65 1305.47C3065.65 1307.28 3065.71 1308.6 3065.83 1309.44 3065.95 1310.28 3066.15 1310.94 3066.44 1311.43 3066.72 1311.91 3067.14 1312.32 3067.69 1312.64 3068.25 1312.97 3069.14 1313.29 3070.39 1313.61L3070.39 1315.6 3053.93 1315.6 3053.93 1313.61C3055.61 1313.18 3056.73 1312.7 3057.3 1312.18 3057.86 1311.65 3058.24 1310.9 3058.41 1309.93 3058.59 1308.95 3058.67 1307.47 3058.67 1305.47L3058.67 1298.82 3036.14 1298.82 3036.14 1295.78Z" fill="#FFFFFF" fill-rule="evenodd"/><text fill="#000000" fill-opacity="0" font-family="Arial,Arial_MSFontService,sans-serif" font-size="55.6035" x="3036.14" y="1308.65">4</text><path d="M2200.5 463.5 2530.5 463.5 2530.5 793.5 2200.5 793.5Z" stroke="#E2F0D9" stroke-width="4.58333" stroke-miterlimit="8" fill-rule="evenodd"/><path d="M2310.11 620.463C2308.52 620.463 2307.08 620.868 2305.8 621.679 2304.51 622.489 2303.49 623.739 2302.74 625.427 2301.98 627.116 2301.6 629.203 2301.6 631.689 2301.6 634.418 2302 636.66 2302.8 638.416 2303.59 640.173 2304.63 641.422 2305.9 642.165 2307.17 642.908 2308.57 643.28 2310.11 643.28 2312.44 643.28 2314.64 642.354 2316.74 640.504 2318.83 638.653 2320.91 635.796 2322.96 631.932 2320.58 627.798 2318.39 624.853 2316.39 623.097 2314.39 621.341 2312.3 620.463 2310.11 620.463ZM2343.38 611.668C2344.74 611.668 2345.9 611.79 2346.87 612.033L2345.57 618.315C2344.76 618.18 2344.01 618.112 2343.3 618.112 2341.47 618.112 2339.83 618.531 2338.38 619.369 2336.93 620.206 2335.46 621.584 2333.96 623.502 2332.46 625.421 2330.66 628.231 2328.55 631.932 2329.88 634.499 2331.17 636.694 2332.42 638.518 2333.68 640.341 2334.88 641.76 2336.03 642.773 2337.18 643.786 2338.33 644.529 2339.49 645.002 2340.66 645.475 2341.94 645.711 2343.34 645.711 2344.18 645.711 2344.91 645.657 2345.53 645.549L2346.91 651.466C2345.18 651.898 2343.61 652.115 2342.21 652.115 2338.75 652.115 2335.74 650.912 2333.17 648.508 2330.61 646.103 2328.13 642.28 2325.76 637.038 2323.11 641.523 2320.52 644.752 2317.99 646.724 2315.47 648.697 2312.71 649.683 2309.71 649.683 2307.14 649.683 2304.86 648.899 2302.88 647.332 2300.89 645.765 2299.37 643.638 2298.3 640.949 2297.23 638.261 2296.7 635.282 2296.7 632.013 2296.7 628.69 2297.29 625.63 2298.48 622.834 2299.67 620.037 2301.28 617.876 2303.3 616.349 2305.33 614.823 2307.6 614.059 2310.11 614.059 2312.25 614.059 2314.13 614.471 2315.77 615.296 2317.4 616.12 2318.98 617.41 2320.51 619.166 2322.03 620.922 2323.78 623.475 2325.76 626.826 2327.57 623.367 2329.33 620.51 2331.04 618.254 2332.76 615.998 2334.57 614.336 2336.47 613.269 2338.38 612.202 2340.68 611.668 2343.38 611.668Z" fill="#FFFFFF" fill-rule="evenodd"/><text fill="#000000" fill-opacity="0" font-family="Arial,Arial_MSFontService,sans-serif" font-size="40.4463" x="2296.7" y="647.059">∝</text><path d="M2396 603.077C2394.14 603.077 2392.57 603.63 2391.32 604.738 2390.06 605.846 2389.05 607.44 2388.28 609.52 2387.51 611.601 2386.96 614.134 2386.64 617.119 2386.31 620.105 2386.15 623.475 2386.15 627.231 2386.15 636.039 2386.97 642.503 2388.6 646.623 2390.24 650.743 2392.77 652.804 2396.2 652.804 2399.47 652.804 2401.9 650.865 2403.48 646.988 2405.06 643.111 2405.85 637.106 2405.85 628.974 2405.85 622.759 2405.44 617.727 2404.63 613.877 2403.82 610.027 2402.69 607.264 2401.25 605.589 2399.8 603.914 2398.05 603.077 2396 603.077ZM2396.2 599.632C2402.12 599.632 2406.52 601.915 2409.41 606.481 2412.3 611.047 2413.75 617.95 2413.75 627.19 2413.75 636.755 2412.2 643.989 2409.11 648.893 2406.02 653.797 2401.5 656.248 2395.55 656.248 2389.72 656.248 2385.37 653.952 2382.52 649.359 2379.67 644.766 2378.25 637.795 2378.25 628.447 2378.25 623.475 2378.69 619.179 2379.57 615.559 2380.44 611.939 2381.67 608.946 2383.25 606.582 2384.83 604.218 2386.73 602.469 2388.95 601.334 2391.16 600.199 2393.58 599.632 2396.2 599.632Z" fill="#FFFFFF" fill-rule="evenodd"/><text fill="#000000" fill-opacity="0" font-family="Arial,Arial_MSFontService,sans-serif" font-size="56.6167" x="2378.25" y="649.171">0</text><path d="M2530.5 463.5 2860.5 463.5 2860.5 793.5 2530.5 793.5Z" stroke="#E2F0D9" stroke-width="4.58333" stroke-miterlimit="8" fill="#385723" fill-rule="evenodd"/><path d="M2640.11 620.463C2638.52 620.463 2637.08 620.868 2635.8 621.679 2634.51 622.489 2633.49 623.739 2632.74 625.427 2631.98 627.116 2631.6 629.203 2631.6 631.689 2631.6 634.418 2632 636.66 2632.8 638.416 2633.59 640.173 2634.63 641.422 2635.9 642.165 2637.17 642.908 2638.57 643.28 2640.11 643.28 2642.44 643.28 2644.64 642.354 2646.74 640.504 2648.83 638.653 2650.91 635.796 2652.96 631.932 2650.58 627.798 2648.39 624.853 2646.39 623.097 2644.39 621.341 2642.3 620.463 2640.11 620.463ZM2673.38 611.668C2674.74 611.668 2675.9 611.79 2676.87 612.033L2675.57 618.315C2674.76 618.18 2674.01 618.112 2673.3 618.112 2671.47 618.112 2669.83 618.531 2668.38 619.369 2666.93 620.206 2665.46 621.584 2663.96 623.502 2662.46 625.421 2660.66 628.231 2658.55 631.932 2659.88 634.499 2661.17 636.694 2662.42 638.518 2663.68 640.341 2664.88 641.76 2666.03 642.773 2667.18 643.786 2668.33 644.529 2669.49 645.002 2670.66 645.475 2671.94 645.711 2673.34 645.711 2674.18 645.711 2674.91 645.657 2675.53 645.549L2676.91 651.466C2675.18 651.898 2673.61 652.115 2672.21 652.115 2668.75 652.115 2665.74 650.912 2663.17 648.508 2660.61 646.103 2658.13 642.28 2655.76 637.038 2653.11 641.523 2650.52 644.752 2647.99 646.724 2645.47 648.697 2642.71 649.683 2639.71 649.683 2637.14 649.683 2634.86 648.899 2632.88 647.332 2630.89 645.765 2629.37 643.638 2628.3 640.949 2627.23 638.261 2626.7 635.282 2626.7 632.013 2626.7 628.69 2627.29 625.63 2628.48 622.834 2629.67 620.037 2631.28 617.876 2633.3 616.349 2635.33 614.823 2637.6 614.059 2640.11 614.059 2642.25 614.059 2644.13 614.471 2645.77 615.296 2647.4 616.12 2648.98 617.41 2650.51 619.166 2652.03 620.922 2653.78 623.475 2655.76 626.826 2657.57 623.367 2659.33 620.51 2661.04 618.254 2662.76 615.998 2664.57 614.336 2666.47 613.269 2668.38 612.202 2670.68 611.668 2673.38 611.668Z" fill="#FFFFFF" fill-rule="evenodd"/><text fill="#000000" fill-opacity="0" font-family="Arial,Arial_MSFontService,sans-serif" font-size="40.4463" x="2626.7" y="647.059">∝</text><path d="M2729.2 599.632 2731.43 599.632C2731.27 602.225 2731.19 605.819 2731.19 610.412L2731.19 645.022C2731.19 646.589 2731.27 647.771 2731.45 648.568 2731.63 649.366 2731.94 650.014 2732.38 650.514 2732.83 651.014 2733.47 651.405 2734.31 651.689 2735.15 651.973 2736.2 652.189 2737.47 652.338 2738.74 652.486 2740.41 652.587 2742.49 652.641L2742.49 655.6 2712.54 655.6 2712.54 652.641C2715.54 652.506 2717.68 652.324 2718.97 652.094 2720.25 651.865 2721.23 651.52 2721.91 651.061 2722.58 650.602 2723.07 649.953 2723.39 649.116 2723.7 648.278 2723.85 646.914 2723.85 645.022L2723.85 612.155C2723.85 611.074 2723.66 610.284 2723.28 609.784 2722.91 609.284 2722.35 609.034 2721.62 609.034 2720.76 609.034 2719.53 609.48 2717.93 610.371 2716.34 611.263 2714.37 612.492 2712.02 614.059L2710.23 610.939Z" fill="#FFFFFF" fill-rule="evenodd"/><text fill="#000000" fill-opacity="0" font-family="Arial,Arial_MSFontService,sans-serif" font-size="55.9683" x="2710.23" y="648.604">1</text><path d="M2860.5 463.5 3190.5 463.5 3190.5 793.5 2860.5 793.5Z" stroke="#E2F0D9" stroke-width="4.58333" stroke-miterlimit="8" fill-rule="evenodd"/><path d="M2970.11 620.463C2968.52 620.463 2967.08 620.868 2965.8 621.679 2964.51 622.489 2963.49 623.739 2962.74 625.427 2961.98 627.116 2961.6 629.203 2961.6 631.689 2961.6 634.418 2962 636.66 2962.8 638.416 2963.59 640.173 2964.63 641.422 2965.9 642.165 2967.17 642.908 2968.57 643.28 2970.11 643.28 2972.44 643.28 2974.64 642.354 2976.74 640.504 2978.83 638.653 2980.91 635.796 2982.96 631.932 2980.58 627.798 2978.39 624.853 2976.39 623.097 2974.39 621.341 2972.3 620.463 2970.11 620.463ZM3003.38 611.668C3004.74 611.668 3005.9 611.79 3006.87 612.033L3005.57 618.315C3004.76 618.18 3004.01 618.112 3003.3 618.112 3001.47 618.112 2999.83 618.531 2998.38 619.369 2996.93 620.206 2995.46 621.584 2993.96 623.502 2992.46 625.421 2990.66 628.231 2988.55 631.932 2989.88 634.499 2991.17 636.694 2992.42 638.518 2993.68 640.341 2994.88 641.76 2996.03 642.773 2997.18 643.786 2998.33 644.529 2999.49 645.002 3000.66 645.475 3001.94 645.711 3003.34 645.711 3004.18 645.711 3004.91 645.657 3005.53 645.549L3006.91 651.466C3005.18 651.898 3003.61 652.115 3002.21 652.115 2998.75 652.115 2995.74 650.912 2993.17 648.508 2990.61 646.103 2988.13 642.28 2985.76 637.038 2983.11 641.523 2980.52 644.752 2977.99 646.724 2975.47 648.697 2972.71 649.683 2969.71 649.683 2967.14 649.683 2964.86 648.899 2962.88 647.332 2960.89 645.765 2959.37 643.638 2958.3 640.949 2957.23 638.261 2956.7 635.282 2956.7 632.013 2956.7 628.69 2957.29 625.63 2958.48 622.834 2959.67 620.037 2961.28 617.876 2963.3 616.349 2965.33 614.823 2967.6 614.059 2970.11 614.059 2972.25 614.059 2974.13 614.471 2975.77 615.296 2977.4 616.12 2978.98 617.41 2980.51 619.166 2982.03 620.922 2983.78 623.475 2985.76 626.826 2987.57 623.367 2989.33 620.51 2991.04 618.254 2992.76 615.998 2994.57 614.336 2996.47 613.269 2998.38 612.202 3000.68 611.668 3003.38 611.668Z" fill="#FFFFFF" fill-rule="evenodd"/><text fill="#000000" fill-opacity="0" font-family="Arial,Arial_MSFontService,sans-serif" font-size="40.4463" x="2956.7" y="647.059">∝</text><path d="M3056 603.077C3054.14 603.077 3052.57 603.63 3051.32 604.738 3050.06 605.846 3049.05 607.44 3048.28 609.52 3047.51 611.601 3046.96 614.134 3046.64 617.119 3046.31 620.105 3046.15 623.475 3046.15 627.231 3046.15 636.039 3046.97 642.503 3048.6 646.623 3050.24 650.743 3052.77 652.804 3056.2 652.804 3059.47 652.804 3061.9 650.865 3063.48 646.988 3065.06 643.111 3065.85 637.106 3065.85 628.974 3065.85 622.759 3065.44 617.727 3064.63 613.877 3063.82 610.027 3062.69 607.264 3061.25 605.589 3059.8 603.914 3058.05 603.077 3056 603.077ZM3056.2 599.632C3062.12 599.632 3066.52 601.915 3069.41 606.481 3072.3 611.047 3073.75 617.95 3073.75 627.19 3073.75 636.755 3072.2 643.989 3069.11 648.893 3066.02 653.797 3061.5 656.248 3055.55 656.248 3049.72 656.248 3045.37 653.952 3042.52 649.359 3039.67 644.766 3038.25 637.795 3038.25 628.447 3038.25 623.475 3038.69 619.179 3039.57 615.559 3040.44 611.939 3041.67 608.946 3043.25 606.582 3044.83 604.218 3046.73 602.469 3048.95 601.334 3051.16 600.199 3053.58 599.632 3056.2 599.632Z" fill="#FFFFFF" fill-rule="evenodd"/><text fill="#000000" fill-opacity="0" font-family="Arial,Arial_MSFontService,sans-serif" font-size="56.6167" x="3038.25" y="649.171">0</text><rect x="2624" y="1010" width="16.0002" height="20.9999"/><g clip-path="url(#clip1)"><g clip-path="url(#clip2)"><g clip-path="url(#clip3)"><path d="M2823.49 918.056 2796.27 890.831C2793.06 887.627 2788.71 885.823 2784.17 885.813L2782.07 885.813 2780.56 880.691C2779.31 876.429 2781.75 871.958 2786.01 870.705 2786.75 870.486 2787.52 870.376 2788.29 870.378L2811.88 870.378C2814.72 870.378 2817.03 868.07 2817.03 865.222 2817.03 862.374 2814.72 860.066 2811.88 860.066L2788.29 860.066C2783 860.08 2777.98 862.402 2774.54 866.425 2774.46 865.063 2774.46 863.697 2774.54 862.334 2776.54 845.719 2789.94 832.794 2806.62 831.397L2810.67 830.813C2813.52 830.528 2815.6 827.988 2815.31 825.141 2815.03 822.293 2812.49 820.215 2809.64 820.5L2805.55 820.913C2783.93 822.83 2766.67 839.732 2764.3 861.303 2763.51 869.736 2765.08 878.221 2768.84 885.813L2750 885.813 2763.75 899.563 2739 929.813C2735.08 934.596 2729.23 937.372 2723.05 937.375L2595.31 937.375C2583.92 937.375 2574.69 946.609 2574.69 958L2574.69 992.375 2588.44 986.188 2588.44 1009.56C2588.44 1003.87 2583.82 999.248 2578.13 999.245 2578.02 999.245 2577.92 999.247 2577.82 999.25 2572.16 999.562 2567.75 1004.27 2567.81 1009.94L2567.81 1085.19C2567.81 1090.88 2572.43 1095.5 2578.12 1095.5 2583.82 1095.5 2588.44 1090.88 2588.44 1085.19L2588.44 1029.47C2593.78 1032.56 2600.52 1031.72 2604.94 1027.4L2626.59 1005.75C2636.11 1010.44 2646.57 1012.92 2657.19 1013L2701.88 1013 2701.88 1085.19C2701.75 1090.77 2706.18 1095.39 2711.76 1095.51 2712.01 1095.52 2712.25 1095.51 2712.5 1095.5 2718.18 1095.2 2722.6 1090.46 2722.5 1084.78L2722.5 1013C2727.18 1012.9 2731.81 1012.09 2736.25 1010.59L2736.25 1085.19C2736.13 1090.77 2740.55 1095.39 2746.13 1095.51 2746.38 1095.52 2746.63 1095.51 2746.87 1095.5 2752.55 1095.2 2756.98 1090.46 2756.88 1084.78L2756.88 1004.72 2768.8 995.984C2772.94 992.968 2775.81 988.52 2776.85 983.506L2787.81 930.5 2818.34 930.5C2822.36 930.503 2825.63 927.244 2825.63 923.219 2825.63 921.282 2824.86 919.425 2823.49 918.056Z" fill="#F5B68B"/><path d="M2609.78 1032.22C2607.62 1034.34 2605.03 1035.99 2602.19 1037.06L2602.19 1085.19C2602.19 1090.88 2606.8 1095.5 2612.5 1095.5 2618.2 1095.5 2622.81 1090.88 2622.81 1085.19L2622.81 1029.47C2628.15 1032.56 2634.9 1031.72 2639.31 1027.4L2647.56 1019.15C2640.81 1018.41 2634.21 1016.67 2627.97 1014Z" fill="#F5B68B"/></g></g></g><rect x="2598" y="1014" width="128" height="82.9998"/><rect x="2711" y="1005" width="35.9998" height="77" fill="#F5B68B"/><rect x="2581" y="1007" width="28.0002" height="90.0001" fill="#F5B68B"/><rect x="2715" y="1081" width="43" height="15.9998" fill="#F5B68B"/><rect x="2591" y="1081" width="22" height="15.9998" fill="#F5B68B"/><rect x="2593" y="1000" width="22" height="19.9999" fill="#F5B68B"/><rect x="2561" y="994" width="28.0002" height="15.9998"/><g clip-path="url(#clip4)"><g clip-path="url(#clip5)"><g clip-path="url(#clip6)"><path d="M2825.66 915.31 2798.75 888.401C2794.9 884.539 2789.68 882.37 2784.22 882.375L2781.92 882.375 2780.65 877.281C2779.72 873.545 2781.99 869.762 2785.73 868.832 2786.28 868.695 2786.84 868.625 2787.41 868.625L2811.9 868.625C2813.79 868.625 2815.33 867.086 2815.33 865.188 2815.33 863.289 2813.79 861.75 2811.9 861.75L2788.06 861.75C2784.74 861.68 2781.49 862.729 2778.84 864.727 2775.7 867.191 2773.8 870.909 2773.64 874.898 2773.64 875.026 2773.6 875.026 2773.57 874.898 2771.19 864.831 2773.01 854.227 2778.61 845.529 2785.75 834.827 2797.87 828.528 2810.74 828.839 2812.64 828.839 2814.17 827.3 2814.17 825.402 2814.17 823.503 2812.64 821.964 2810.74 821.964 2795.55 821.633 2781.26 829.104 2772.86 841.761 2765.05 853.855 2763.52 868.962 2768.75 882.375L2750.05 882.375C2748.15 882.375 2746.61 883.915 2746.61 885.813 2746.61 886.725 2746.98 887.598 2747.62 888.243L2759.17 899.793 2736.38 927.637C2733.13 931.631 2728.25 933.945 2723.09 933.938L2591.91 933.938C2578.62 933.938 2567.84 944.711 2567.84 958L2567.84 992.375C2567.84 994.274 2569.38 995.813 2571.28 995.812 2571.77 995.812 2572.25 995.709 2572.69 995.51L2585.04 989.969 2585.04 1006.25 2577.9 1006.39C2570.43 1006.58 2564.46 1012.67 2564.41 1020.14L2564.41 1088.62C2564.41 1089.54 2564.77 1090.41 2565.42 1091.06L2572.29 1097.93C2572.94 1098.58 2573.82 1098.94 2574.73 1098.94L2595.35 1098.94C2597.25 1098.94 2598.79 1097.41 2598.79 1095.51L2598.79 1090.87C2598.79 1086.31 2596.98 1081.94 2593.76 1078.72L2591.92 1076.88 2591.92 1037.06 2593.11 1037.06C2597.66 1037.06 2602.03 1035.25 2605.25 1032.03L2627.42 1009.91C2636.8 1014.12 2646.95 1016.35 2657.23 1016.44L2708.79 1016.44 2708.79 1088.62C2708.79 1089.53 2709.15 1090.39 2709.79 1091.03L2716.67 1097.91C2717.31 1098.55 2718.19 1098.92 2719.1 1098.92L2739.73 1098.92C2741.62 1098.92 2743.16 1097.38 2743.16 1095.48L2743.16 1090.87C2743.16 1086.31 2741.35 1081.94 2738.13 1078.72L2736.29 1076.88 2736.29 1012.94C2740.93 1012.81 2745.54 1012.2 2750.04 1011.1L2750.04 1078.31C2750.04 1079.22 2750.41 1080.1 2751.05 1080.74L2753.9 1083.6C2755.83 1085.53 2756.91 1088.15 2756.91 1090.88L2756.91 1092.06 2750.03 1092.06C2748.14 1092.06 2746.6 1093.6 2746.6 1095.5 2746.6 1097.4 2748.14 1098.94 2750.03 1098.94L2760.35 1098.94C2762.25 1098.94 2763.78 1097.4 2763.78 1095.5L2763.78 1090.87C2763.78 1086.32 2761.98 1081.96 2758.77 1078.74L2756.92 1076.88 2756.92 1008.65C2757.63 1008.32 2758.31 1007.93 2758.95 1007.5L2770.88 998.769C2775.71 995.249 2779.05 990.06 2780.27 984.211L2790.67 933.938 2818.41 933.938C2824.34 933.929 2829.15 929.109 2829.14 923.173 2829.14 922.587 2829.09 922.003 2828.99 921.425 2828.55 919.089 2827.39 916.95 2825.66 915.31ZM2712.19 1009.56 2657.25 1009.56C2647.15 1009.48 2637.21 1007.13 2628.15 1002.69 2626.81 1002.08 2625.24 1002.37 2624.2 1003.42L2600.38 1027.18C2598.45 1029.11 2595.83 1030.19 2593.1 1030.19L2588.48 1030.19C2586.58 1030.19 2585.04 1031.73 2585.04 1033.62L2585.04 1078.31C2585.04 1079.22 2585.4 1080.1 2586.04 1080.74L2588.89 1083.59C2590.82 1085.53 2591.91 1088.15 2591.91 1090.88L2591.91 1092.06 2576.15 1092.06 2571.29 1087.2 2571.29 1020.14C2571.32 1016.4 2574.3 1013.36 2578.04 1013.26L2588.55 1013.06C2590.42 1013.02 2591.92 1011.49 2591.92 1009.62L2591.92 971.479C2591.95 968.041 2593.06 958.138 2597.73 953.604 2599.14 952.334 2599.26 950.16 2597.99 948.749 2596.72 947.338 2594.54 947.223 2593.13 948.493 2593.07 948.553 2593 948.616 2592.94 948.681 2585.28 956.137 2585.05 970.808 2585.03 971.461L2585.03 982.406 2574.72 987.081 2574.72 958C2574.72 948.508 2582.42 940.813 2591.91 940.813L2723.1 940.813C2730.31 940.823 2737.15 937.583 2741.71 931.992L2766.46 901.742C2767.57 900.375 2767.47 898.384 2766.23 897.136L2758.4 889.312C2758.39 889.301 2758.38 889.28 2758.4 889.264 2758.4 889.252 2758.42 889.247 2758.43 889.25L2784.21 889.25C2787.84 889.247 2791.32 890.691 2793.89 893.262L2821.12 920.49C2822.62 921.989 2822.63 924.424 2821.13 925.93 2820.41 926.655 2819.43 927.062 2818.41 927.063L2787.87 927.063C2786.23 927.062 2784.83 928.212 2784.5 929.813L2773.53 982.819C2772.67 986.999 2770.27 990.707 2766.82 993.221L2754.98 1001.89C2754.92 1001.93 2748.45 1006.12 2732.84 1006.12 2730.94 1006.12 2729.41 1007.66 2729.41 1009.56L2729.41 1078.31C2729.41 1079.23 2729.77 1080.1 2730.41 1080.75L2733.26 1083.6C2735.19 1085.53 2736.27 1088.15 2736.27 1090.88L2736.27 1092.06 2720.52 1092.06 2715.67 1087.2 2715.67 1013.05C2715.67 1011.13 2714.11 1009.57 2712.19 1009.56Z" fill="#C55A11"/><path d="M2612.55 1076.88 2612.55 1040.49C2612.55 1038.59 2611.01 1037.05 2609.11 1037.05 2607.21 1037.05 2605.67 1038.59 2605.67 1040.49L2605.67 1078.3C2605.67 1079.21 2606.03 1080.08 2606.68 1080.73L2609.53 1083.59C2611.45 1085.52 2612.54 1088.14 2612.54 1090.87L2612.54 1092.06 2605.66 1092.06C2603.76 1092.06 2602.23 1093.6 2602.23 1095.5 2602.23 1097.4 2603.76 1098.94 2605.66 1098.94L2615.98 1098.94C2617.87 1098.94 2619.41 1097.4 2619.41 1095.5L2619.41 1090.87C2619.41 1086.32 2617.61 1081.96 2614.4 1078.74Z" fill="#C55A11"/><path d="M2794.7 904.719C2794.7 907.567 2792.39 909.875 2789.54 909.875 2786.7 909.875 2784.39 907.567 2784.39 904.719 2784.39 901.871 2786.7 899.563 2789.54 899.563 2792.39 899.563 2794.7 901.871 2794.7 904.719Z" fill="#C55A11"/></g></g></g></g></svg>