<svg width="1655" height="1655" xmlns="http://www.w3.org/2000/svg" xmlns:xlink="http://www.w3.org/1999/xlink" overflow="hidden"><defs><clipPath id="clip0"><rect x="273" y="273" width="1655" height="1655"/></clipPath><clipPath id="clip1"><rect x="935" y="935" width="330" height="330"/></clipPath><clipPath id="clip2"><rect x="935" y="935" width="330" height="330"/></clipPath><clipPath id="clip3"><rect x="935" y="935" width="330" height="330"/></clipPath><clipPath id="clip4"><rect x="935" y="935" width="330" height="330"/></clipPath><clipPath id="clip5"><rect x="935" y="935" width="330" height="330"/></clipPath><clipPath id="clip6"><rect x="935" y="935" width="330" height="330"/></clipPath></defs><g clip-path="url(#clip0)" transform="translate(-273 -273)"><path d="M935.5 935.5 1265.5 935.5 1265.5 1265.5 935.5 1265.5Z" stroke="#E2F0D9" stroke-width="4.58333" stroke-miterlimit="8" fill-rule="evenodd"/><path d="M605.5 935.5 935.5 935.5 935.5 1265.5 605.5 1265.5Z" stroke="#E2F0D9" stroke-width="4.58333" stroke-miterlimit="8" fill-rule="evenodd"/><path d="M715.006 1091.89C713.412 1091.89 711.973 1092.3 710.69 1093.11 709.407 1093.92 708.387 1095.17 707.63 1096.86 706.874 1098.54 706.495 1100.63 706.495 1103.12 706.495 1105.85 706.894 1108.09 707.691 1109.84 708.488 1111.6 709.521 1112.85 710.791 1113.59 712.061 1114.34 713.466 1114.71 715.006 1114.71 717.33 1114.71 719.538 1113.78 721.632 1111.93 723.726 1110.08 725.8 1107.22 727.853 1103.36 725.476 1099.23 723.287 1096.28 721.288 1094.53 719.289 1092.77 717.195 1091.89 715.006 1091.89ZM748.279 1083.1C749.63 1083.1 750.792 1083.22 751.764 1083.46L750.468 1089.74C749.657 1089.61 748.901 1089.54 748.198 1089.54 746.361 1089.54 744.719 1089.96 743.274 1090.8 741.828 1091.63 740.356 1093.01 738.857 1094.93 737.357 1096.85 735.554 1099.66 733.446 1103.36 734.77 1105.93 736.06 1108.12 737.316 1109.95 738.573 1111.77 739.775 1113.19 740.923 1114.2 742.072 1115.21 743.227 1115.96 744.388 1116.43 745.55 1116.9 746.834 1117.14 748.239 1117.14 749.076 1117.14 749.806 1117.09 750.427 1116.98L751.805 1122.89C750.076 1123.33 748.509 1123.54 747.104 1123.54 743.646 1123.54 740.633 1122.34 738.066 1119.94 735.5 1117.53 733.027 1113.71 730.65 1108.47 728.002 1112.95 725.415 1116.18 722.889 1118.15 720.363 1120.13 717.6 1121.11 714.601 1121.11 712.034 1121.11 709.758 1120.33 707.772 1118.76 705.786 1117.19 704.26 1115.07 703.192 1112.38 702.125 1109.69 701.592 1106.71 701.592 1103.44 701.592 1100.12 702.186 1097.06 703.375 1094.26 704.564 1091.47 706.171 1089.3 708.198 1087.78 710.224 1086.25 712.493 1085.49 715.006 1085.49 717.141 1085.49 719.025 1085.9 720.66 1086.72 722.294 1087.55 723.875 1088.84 725.401 1090.59 726.928 1092.35 728.677 1094.9 730.65 1098.25 732.46 1094.8 734.223 1091.94 735.939 1089.68 737.654 1087.43 739.464 1085.77 741.369 1084.7 743.274 1083.63 745.577 1083.1 748.279 1083.1Z" fill="#FFFFFF" fill-rule="evenodd"/><text fill="#000000" fill-opacity="0" font-family="Arial,Arial_MSFontService,sans-serif" font-size="40.4463" x="701.592" y="1118.49">∝</text><path d="M804.096 1071.06 806.325 1071.06C806.162 1073.65 806.081 1077.25 806.081 1081.84L806.081 1116.45C806.081 1118.02 806.169 1119.2 806.345 1120 806.52 1120.79 806.831 1121.44 807.277 1121.94 807.723 1122.44 808.364 1122.83 809.202 1123.12 810.04 1123.4 811.093 1123.62 812.363 1123.77 813.633 1123.91 815.308 1124.02 817.388 1124.07L817.388 1127.03 787.439 1127.03 787.439 1124.07C790.438 1123.93 792.579 1123.75 793.862 1123.52 795.146 1123.29 796.125 1122.95 796.801 1122.49 797.476 1122.03 797.969 1121.38 798.28 1120.54 798.591 1119.71 798.746 1118.34 798.746 1116.45L798.746 1083.58C798.746 1082.5 798.557 1081.71 798.179 1081.21 797.8 1080.71 797.246 1080.46 796.517 1080.46 795.652 1080.46 794.423 1080.91 792.829 1081.8 791.235 1082.69 789.263 1083.92 786.912 1085.49L785.129 1082.37Z" fill="#FFFFFF" fill-rule="evenodd"/><text fill="#000000" fill-opacity="0" font-family="Arial,Arial_MSFontService,sans-serif" font-size="55.9683" x="785.129" y="1120.03">1</text><path d="M1265 935 1595 935 1595 1265 1265 1265Z" fill="#AFABAB" fill-rule="evenodd"/><path d="M1375.01 1091.89C1373.41 1091.89 1371.97 1092.3 1370.69 1093.11 1369.41 1093.92 1368.39 1095.17 1367.63 1096.86 1366.87 1098.54 1366.5 1100.63 1366.5 1103.12 1366.5 1105.85 1366.89 1108.09 1367.69 1109.84 1368.49 1111.6 1369.52 1112.85 1370.79 1113.59 1372.06 1114.34 1373.47 1114.71 1375.01 1114.71 1377.33 1114.71 1379.54 1113.78 1381.63 1111.93 1383.73 1110.08 1385.8 1107.22 1387.85 1103.36 1385.48 1099.23 1383.29 1096.28 1381.29 1094.53 1379.29 1092.77 1377.19 1091.89 1375.01 1091.89ZM1408.28 1083.1C1409.63 1083.1 1410.79 1083.22 1411.76 1083.46L1410.47 1089.74C1409.66 1089.61 1408.9 1089.54 1408.2 1089.54 1406.36 1089.54 1404.72 1089.96 1403.27 1090.8 1401.83 1091.63 1400.36 1093.01 1398.86 1094.93 1397.36 1096.85 1395.55 1099.66 1393.45 1103.36 1394.77 1105.93 1396.06 1108.12 1397.32 1109.95 1398.57 1111.77 1399.78 1113.19 1400.92 1114.2 1402.07 1115.21 1403.23 1115.96 1404.39 1116.43 1405.55 1116.9 1406.83 1117.14 1408.24 1117.14 1409.08 1117.14 1409.81 1117.09 1410.43 1116.98L1411.8 1122.89C1410.08 1123.33 1408.51 1123.54 1407.1 1123.54 1403.65 1123.54 1400.63 1122.34 1398.07 1119.94 1395.5 1117.53 1393.03 1113.71 1390.65 1108.47 1388 1112.95 1385.41 1116.18 1382.89 1118.15 1380.36 1120.13 1377.6 1121.11 1374.6 1121.11 1372.03 1121.11 1369.76 1120.33 1367.77 1118.76 1365.79 1117.19 1364.26 1115.07 1363.19 1112.38 1362.13 1109.69 1361.59 1106.71 1361.59 1103.44 1361.59 1100.12 1362.19 1097.06 1363.37 1094.26 1364.56 1091.47 1366.17 1089.3 1368.2 1087.78 1370.22 1086.25 1372.49 1085.49 1375.01 1085.49 1377.14 1085.49 1379.03 1085.9 1380.66 1086.72 1382.29 1087.55 1383.87 1088.84 1385.4 1090.59 1386.93 1092.35 1388.68 1094.9 1390.65 1098.25 1392.46 1094.8 1394.22 1091.94 1395.94 1089.68 1397.65 1087.43 1399.46 1085.77 1401.37 1084.7 1403.27 1083.63 1405.58 1083.1 1408.28 1083.1Z" fill="#FFFFFF" fill-rule="evenodd"/><text fill="#000000" fill-opacity="0" font-family="Arial,Arial_MSFontService,sans-serif" font-size="40.4463" x="1361.59" y="1118.49">∝</text><path d="M1460.89 1074.51C1459.03 1074.51 1457.47 1075.06 1456.21 1076.17 1454.96 1077.27 1453.94 1078.87 1453.17 1080.95 1452.4 1083.03 1451.86 1085.56 1451.53 1088.55 1451.21 1091.53 1451.05 1094.9 1451.05 1098.66 1451.05 1107.47 1451.86 1113.93 1453.5 1118.05 1455.13 1122.17 1457.67 1124.23 1461.1 1124.23 1464.37 1124.23 1466.79 1122.29 1468.37 1118.42 1469.95 1114.54 1470.74 1108.53 1470.74 1100.4 1470.74 1094.19 1470.34 1089.16 1469.53 1085.31 1468.72 1081.46 1467.59 1078.69 1466.14 1077.02 1464.7 1075.34 1462.95 1074.51 1460.89 1074.51ZM1461.1 1071.06C1467.01 1071.06 1471.42 1073.34 1474.31 1077.91 1477.2 1082.48 1478.64 1089.38 1478.64 1098.62 1478.64 1108.18 1477.1 1115.42 1474 1120.32 1470.91 1125.23 1466.39 1127.68 1460.45 1127.68 1454.61 1127.68 1450.27 1125.38 1447.42 1120.79 1444.57 1116.19 1443.14 1109.22 1443.14 1099.88 1443.14 1094.9 1443.58 1090.61 1444.46 1086.99 1445.34 1083.37 1446.57 1080.37 1448.15 1078.01 1449.73 1075.65 1451.63 1073.9 1453.84 1072.76 1456.06 1071.63 1458.48 1071.06 1461.1 1071.06Z" fill="#FFFFFF" fill-rule="evenodd"/><text fill="#000000" fill-opacity="0" font-family="Arial,Arial_MSFontService,sans-serif" font-size="56.6167" x="1443.14" y="1120.6">0</text><path d="M605.5 1265.5 935.5 1265.5 935.5 1595.5 605.5 1595.5Z" stroke="#E2F0D9" stroke-width="4.58333" stroke-miterlimit="8" fill-rule="evenodd"/><path d="M715.006 1421.89C713.412 1421.89 711.973 1422.3 710.69 1423.11 709.407 1423.92 708.387 1425.17 707.63 1426.86 706.874 1428.54 706.495 1430.63 706.495 1433.12 706.495 1435.85 706.894 1438.09 707.691 1439.84 708.488 1441.6 709.521 1442.85 710.791 1443.59 712.061 1444.34 713.466 1444.71 715.006 1444.71 717.33 1444.71 719.538 1443.78 721.632 1441.93 723.726 1440.08 725.8 1437.22 727.853 1433.36 725.476 1429.23 723.287 1426.28 721.288 1424.53 719.289 1422.77 717.195 1421.89 715.006 1421.89ZM748.279 1413.1C749.63 1413.1 750.792 1413.22 751.764 1413.46L750.468 1419.74C749.657 1419.61 748.901 1419.54 748.198 1419.54 746.361 1419.54 744.719 1419.96 743.274 1420.8 741.828 1421.63 740.356 1423.01 738.857 1424.93 737.357 1426.85 735.554 1429.66 733.446 1433.36 734.77 1435.93 736.06 1438.12 737.316 1439.95 738.573 1441.77 739.775 1443.19 740.923 1444.2 742.072 1445.21 743.227 1445.96 744.388 1446.43 745.55 1446.9 746.834 1447.14 748.239 1447.14 749.076 1447.14 749.806 1447.09 750.427 1446.98L751.805 1452.89C750.076 1453.33 748.509 1453.54 747.104 1453.54 743.646 1453.54 740.633 1452.34 738.066 1449.94 735.5 1447.53 733.027 1443.71 730.65 1438.47 728.002 1442.95 725.415 1446.18 722.889 1448.15 720.363 1450.13 717.6 1451.11 714.601 1451.11 712.034 1451.11 709.758 1450.33 707.772 1448.76 705.786 1447.19 704.26 1445.07 703.192 1442.38 702.125 1439.69 701.592 1436.71 701.592 1433.44 701.592 1430.12 702.186 1427.06 703.375 1424.26 704.564 1421.47 706.171 1419.3 708.198 1417.78 710.224 1416.25 712.493 1415.49 715.006 1415.49 717.141 1415.49 719.025 1415.9 720.66 1416.72 722.294 1417.55 723.875 1418.84 725.401 1420.59 726.928 1422.35 728.677 1424.9 730.65 1428.25 732.46 1424.8 734.223 1421.94 735.939 1419.68 737.654 1417.43 739.464 1415.77 741.369 1414.7 743.274 1413.63 745.577 1413.1 748.279 1413.1Z" fill="#FFFFFF" fill-rule="evenodd"/><text fill="#000000" fill-opacity="0" font-family="Arial,Arial_MSFontService,sans-serif" font-size="40.4463" x="701.592" y="1448.49">∝</text><path d="M804.096 1401.06 806.325 1401.06C806.162 1403.65 806.081 1407.25 806.081 1411.84L806.081 1446.45C806.081 1448.02 806.169 1449.2 806.345 1450 806.52 1450.79 806.831 1451.44 807.277 1451.94 807.723 1452.44 808.364 1452.83 809.202 1453.12 810.04 1453.4 811.093 1453.62 812.363 1453.77 813.633 1453.91 815.308 1454.02 817.388 1454.07L817.388 1457.03 787.439 1457.03 787.439 1454.07C790.438 1453.93 792.579 1453.75 793.862 1453.52 795.146 1453.29 796.125 1452.95 796.801 1452.49 797.476 1452.03 797.969 1451.38 798.28 1450.54 798.591 1449.71 798.746 1448.34 798.746 1446.45L798.746 1413.58C798.746 1412.5 798.557 1411.71 798.179 1411.21 797.8 1410.71 797.246 1410.46 796.517 1410.46 795.652 1410.46 794.423 1410.91 792.829 1411.8 791.235 1412.69 789.263 1413.92 786.912 1415.49L785.129 1412.37Z" fill="#FFFFFF" fill-rule="evenodd"/><text fill="#000000" fill-opacity="0" font-family="Arial,Arial_MSFontService,sans-serif" font-size="55.9683" x="785.129" y="1450.03">1</text><path d="M935.5 1265.5 1265.5 1265.5 1265.5 1595.5 935.5 1595.5Z" stroke="#E2F0D9" stroke-width="4.58333" stroke-miterlimit="8" fill-rule="evenodd"/><path d="M1045.01 1421.89C1043.41 1421.89 1041.97 1422.3 1040.69 1423.11 1039.41 1423.92 1038.39 1425.17 1037.63 1426.86 1036.87 1428.54 1036.5 1430.63 1036.5 1433.12 1036.5 1435.85 1036.89 1438.09 1037.69 1439.84 1038.49 1441.6 1039.52 1442.85 1040.79 1443.59 1042.06 1444.34 1043.47 1444.71 1045.01 1444.71 1047.33 1444.71 1049.54 1443.78 1051.63 1441.93 1053.73 1440.08 1055.8 1437.22 1057.85 1433.36 1055.48 1429.23 1053.29 1426.28 1051.29 1424.53 1049.29 1422.77 1047.19 1421.89 1045.01 1421.89ZM1078.28 1413.1C1079.63 1413.1 1080.79 1413.22 1081.76 1413.46L1080.47 1419.74C1079.66 1419.61 1078.9 1419.54 1078.2 1419.54 1076.36 1419.54 1074.72 1419.96 1073.27 1420.8 1071.83 1421.63 1070.36 1423.01 1068.86 1424.93 1067.36 1426.85 1065.55 1429.66 1063.45 1433.36 1064.77 1435.93 1066.06 1438.12 1067.32 1439.95 1068.57 1441.77 1069.78 1443.19 1070.92 1444.2 1072.07 1445.21 1073.23 1445.96 1074.39 1446.43 1075.55 1446.9 1076.83 1447.14 1078.24 1447.14 1079.08 1447.14 1079.81 1447.09 1080.43 1446.98L1081.8 1452.89C1080.08 1453.33 1078.51 1453.54 1077.1 1453.54 1073.65 1453.54 1070.63 1452.34 1068.07 1449.94 1065.5 1447.53 1063.03 1443.71 1060.65 1438.47 1058 1442.95 1055.41 1446.18 1052.89 1448.15 1050.36 1450.13 1047.6 1451.11 1044.6 1451.11 1042.03 1451.11 1039.76 1450.33 1037.77 1448.76 1035.79 1447.19 1034.26 1445.07 1033.19 1442.38 1032.13 1439.69 1031.59 1436.71 1031.59 1433.44 1031.59 1430.12 1032.19 1427.06 1033.37 1424.26 1034.56 1421.47 1036.17 1419.3 1038.2 1417.78 1040.22 1416.25 1042.49 1415.49 1045.01 1415.49 1047.14 1415.49 1049.03 1415.9 1050.66 1416.72 1052.29 1417.55 1053.87 1418.84 1055.4 1420.59 1056.93 1422.35 1058.68 1424.9 1060.65 1428.25 1062.46 1424.8 1064.22 1421.94 1065.94 1419.68 1067.65 1417.43 1069.46 1415.77 1071.37 1414.7 1073.27 1413.63 1075.58 1413.1 1078.28 1413.1Z" fill="#FFFFFF" fill-rule="evenodd"/><text fill="#000000" fill-opacity="0" font-family="Arial,Arial_MSFontService,sans-serif" font-size="40.4463" x="1031.59" y="1448.49">∝</text><path d="M1134.1 1401.06 1136.32 1401.06C1136.16 1403.65 1136.08 1407.25 1136.08 1411.84L1136.08 1446.45C1136.08 1448.02 1136.17 1449.2 1136.34 1450 1136.52 1450.79 1136.83 1451.44 1137.28 1451.94 1137.72 1452.44 1138.36 1452.83 1139.2 1453.12 1140.04 1453.4 1141.09 1453.62 1142.36 1453.77 1143.63 1453.91 1145.31 1454.02 1147.39 1454.07L1147.39 1457.03 1117.44 1457.03 1117.44 1454.07C1120.44 1453.93 1122.58 1453.75 1123.86 1453.52 1125.15 1453.29 1126.13 1452.95 1126.8 1452.49 1127.48 1452.03 1127.97 1451.38 1128.28 1450.54 1128.59 1449.71 1128.75 1448.34 1128.75 1446.45L1128.75 1413.58C1128.75 1412.5 1128.56 1411.71 1128.18 1411.21 1127.8 1410.71 1127.25 1410.46 1126.52 1410.46 1125.65 1410.46 1124.42 1410.91 1122.83 1411.8 1121.23 1412.69 1119.26 1413.92 1116.91 1415.49L1115.13 1412.37Z" fill="#FFFFFF" fill-rule="evenodd"/><text fill="#000000" fill-opacity="0" font-family="Arial,Arial_MSFontService,sans-serif" font-size="55.9683" x="1115.13" y="1450.03">1</text><path d="M1265 1265 1595 1265 1595 1595 1265 1595Z" fill="#AFABAB" fill-rule="evenodd"/><path d="M1375.01 1421.89C1373.41 1421.89 1371.97 1422.3 1370.69 1423.11 1369.41 1423.92 1368.39 1425.17 1367.63 1426.86 1366.87 1428.54 1366.5 1430.63 1366.5 1433.12 1366.5 1435.85 1366.89 1438.09 1367.69 1439.84 1368.49 1441.6 1369.52 1442.85 1370.79 1443.59 1372.06 1444.34 1373.47 1444.71 1375.01 1444.71 1377.33 1444.71 1379.54 1443.78 1381.63 1441.93 1383.73 1440.08 1385.8 1437.22 1387.85 1433.36 1385.48 1429.23 1383.29 1426.28 1381.29 1424.53 1379.29 1422.77 1377.19 1421.89 1375.01 1421.89ZM1408.28 1413.1C1409.63 1413.1 1410.79 1413.22 1411.76 1413.46L1410.47 1419.74C1409.66 1419.61 1408.9 1419.54 1408.2 1419.54 1406.36 1419.54 1404.72 1419.96 1403.27 1420.8 1401.83 1421.63 1400.36 1423.01 1398.86 1424.93 1397.36 1426.85 1395.55 1429.66 1393.45 1433.36 1394.77 1435.93 1396.06 1438.12 1397.32 1439.95 1398.57 1441.77 1399.78 1443.19 1400.92 1444.2 1402.07 1445.21 1403.23 1445.96 1404.39 1446.43 1405.55 1446.9 1406.83 1447.14 1408.24 1447.14 1409.08 1447.14 1409.81 1447.09 1410.43 1446.98L1411.8 1452.89C1410.08 1453.33 1408.51 1453.54 1407.1 1453.54 1403.65 1453.54 1400.63 1452.34 1398.07 1449.94 1395.5 1447.53 1393.03 1443.71 1390.65 1438.47 1388 1442.95 1385.41 1446.18 1382.89 1448.15 1380.36 1450.13 1377.6 1451.11 1374.6 1451.11 1372.03 1451.11 1369.76 1450.33 1367.77 1448.76 1365.79 1447.19 1364.26 1445.07 1363.19 1442.38 1362.13 1439.69 1361.59 1436.71 1361.59 1433.44 1361.59 1430.12 1362.19 1427.06 1363.37 1424.26 1364.56 1421.47 1366.17 1419.3 1368.2 1417.78 1370.22 1416.25 1372.49 1415.49 1375.01 1415.49 1377.14 1415.49 1379.03 1415.9 1380.66 1416.72 1382.29 1417.55 1383.87 1418.84 1385.4 1420.59 1386.93 1422.35 1388.68 1424.9 1390.65 1428.25 1392.46 1424.8 1394.22 1421.94 1395.94 1419.68 1397.65 1417.43 1399.46 1415.77 1401.37 1414.7 1403.27 1413.63 1405.58 1413.1 1408.28 1413.1Z" fill="#FFFFFF" fill-rule="evenodd"/><text fill="#000000" fill-opacity="0" font-family="Arial,Arial_MSFontService,sans-serif" font-size="40.4463" x="1361.59" y="1448.49">∝</text><path d="M1460.89 1404.51C1459.03 1404.51 1457.47 1405.06 1456.21 1406.17 1454.96 1407.27 1453.94 1408.87 1453.17 1410.95 1452.4 1413.03 1451.86 1415.56 1451.53 1418.55 1451.21 1421.53 1451.05 1424.9 1451.05 1428.66 1451.05 1437.47 1451.86 1443.93 1453.5 1448.05 1455.13 1452.17 1457.67 1454.23 1461.1 1454.23 1464.37 1454.23 1466.79 1452.29 1468.37 1448.42 1469.95 1444.54 1470.74 1438.53 1470.74 1430.4 1470.74 1424.19 1470.34 1419.16 1469.53 1415.31 1468.72 1411.46 1467.59 1408.69 1466.14 1407.02 1464.7 1405.34 1462.95 1404.51 1460.89 1404.51ZM1461.1 1401.06C1467.01 1401.06 1471.42 1403.34 1474.31 1407.91 1477.2 1412.48 1478.64 1419.38 1478.64 1428.62 1478.64 1438.18 1477.1 1445.42 1474 1450.32 1470.91 1455.23 1466.39 1457.68 1460.45 1457.68 1454.61 1457.68 1450.27 1455.38 1447.42 1450.79 1444.57 1446.19 1443.14 1439.22 1443.14 1429.88 1443.14 1424.9 1443.58 1420.61 1444.46 1416.99 1445.34 1413.37 1446.57 1410.37 1448.15 1408.01 1449.73 1405.65 1451.63 1403.9 1453.84 1402.76 1456.06 1401.63 1458.48 1401.06 1461.1 1401.06Z" fill="#FFFFFF" fill-rule="evenodd"/><text fill="#000000" fill-opacity="0" font-family="Arial,Arial_MSFontService,sans-serif" font-size="56.6167" x="1443.14" y="1450.6">0</text><path d="M605.5 605.5 935.5 605.5 935.5 935.5 605.5 935.5Z" stroke="#E2F0D9" stroke-width="4.58333" stroke-miterlimit="8" fill-rule="evenodd"/><path d="M715.006 761.891C713.412 761.891 711.973 762.297 710.69 763.107 709.407 763.918 708.387 765.167 707.63 766.856 706.874 768.545 706.495 770.632 706.495 773.117 706.495 775.846 706.894 778.089 707.691 779.845 708.488 781.601 709.521 782.851 710.791 783.594 712.061 784.337 713.466 784.708 715.006 784.708 717.33 784.708 719.538 783.783 721.632 781.932 723.726 780.081 725.8 777.224 727.853 773.361 725.476 769.227 723.287 766.282 721.288 764.526 719.289 762.77 717.195 761.891 715.006 761.891ZM748.279 753.097C749.63 753.097 750.792 753.219 751.764 753.462L750.468 759.743C749.657 759.608 748.901 759.541 748.198 759.541 746.361 759.541 744.719 759.96 743.274 760.797 741.828 761.635 740.356 763.013 738.857 764.931 737.357 766.849 735.554 769.659 733.446 773.361 734.77 775.927 736.06 778.123 737.316 779.946 738.573 781.77 739.775 783.189 740.923 784.202 742.072 785.215 743.227 785.958 744.388 786.431 745.55 786.904 746.834 787.14 748.239 787.14 749.076 787.14 749.806 787.086 750.427 786.978L751.805 792.895C750.076 793.327 748.509 793.543 747.104 793.543 743.646 793.543 740.633 792.341 738.066 789.936 735.5 787.532 733.027 783.709 730.65 778.467 728.002 782.952 725.415 786.181 722.889 788.153 720.363 790.125 717.6 791.112 714.601 791.112 712.034 791.112 709.758 790.328 707.772 788.761 705.786 787.194 704.26 785.066 703.192 782.378 702.125 779.69 701.592 776.711 701.592 773.442 701.592 770.118 702.186 767.059 703.375 764.262 704.564 761.466 706.171 759.304 708.198 757.778 710.224 756.251 712.493 755.488 715.006 755.488 717.141 755.488 719.025 755.9 720.66 756.724 722.294 757.548 723.875 758.838 725.401 760.595 726.928 762.351 728.677 764.904 730.65 768.254 732.46 764.796 734.223 761.939 735.939 759.683 737.654 757.427 739.464 755.765 741.369 754.698 743.274 753.631 745.577 753.097 748.279 753.097Z" fill="#FFFFFF" fill-rule="evenodd"/><text fill="#000000" fill-opacity="0" font-family="Arial,Arial_MSFontService,sans-serif" font-size="40.4463" x="701.592" y="788.487">∝</text><path d="M804.096 741.06 806.325 741.06C806.162 743.654 806.081 747.248 806.081 751.841L806.081 786.451C806.081 788.018 806.169 789.2 806.345 789.997 806.52 790.794 806.831 791.443 807.277 791.942 807.723 792.442 808.364 792.834 809.202 793.118 810.04 793.401 811.093 793.618 812.363 793.766 813.633 793.915 815.308 794.016 817.388 794.07L817.388 797.029 787.439 797.029 787.439 794.07C790.438 793.935 792.579 793.753 793.862 793.523 795.146 793.293 796.125 792.949 796.801 792.49 797.476 792.03 797.969 791.382 798.28 790.544 798.591 789.707 798.746 788.342 798.746 786.451L798.746 753.583C798.746 752.503 798.557 751.712 798.179 751.212 797.8 750.713 797.246 750.463 796.517 750.463 795.652 750.463 794.423 750.909 792.829 751.8 791.235 752.692 789.263 753.921 786.912 755.488L785.129 752.367Z" fill="#FFFFFF" fill-rule="evenodd"/><text fill="#000000" fill-opacity="0" font-family="Arial,Arial_MSFontService,sans-serif" font-size="55.9683" x="785.129" y="790.033">1</text><path d="M935.5 605.5 1265.5 605.5 1265.5 935.5 935.5 935.5Z" stroke="#E2F0D9" stroke-width="4.58333" stroke-miterlimit="8" fill-rule="evenodd"/><path d="M1045.01 761.891C1043.41 761.891 1041.97 762.297 1040.69 763.107 1039.41 763.918 1038.39 765.167 1037.63 766.856 1036.87 768.545 1036.5 770.632 1036.5 773.117 1036.5 775.846 1036.89 778.089 1037.69 779.845 1038.49 781.601 1039.52 782.851 1040.79 783.594 1042.06 784.337 1043.47 784.708 1045.01 784.708 1047.33 784.708 1049.54 783.783 1051.63 781.932 1053.73 780.081 1055.8 777.224 1057.85 773.361 1055.48 769.227 1053.29 766.282 1051.29 764.526 1049.29 762.77 1047.19 761.891 1045.01 761.891ZM1078.28 753.097C1079.63 753.097 1080.79 753.219 1081.76 753.462L1080.47 759.743C1079.66 759.608 1078.9 759.541 1078.2 759.541 1076.36 759.541 1074.72 759.96 1073.27 760.797 1071.83 761.635 1070.36 763.013 1068.86 764.931 1067.36 766.849 1065.55 769.659 1063.45 773.361 1064.77 775.927 1066.06 778.123 1067.32 779.946 1068.57 781.77 1069.78 783.189 1070.92 784.202 1072.07 785.215 1073.23 785.958 1074.39 786.431 1075.55 786.904 1076.83 787.14 1078.24 787.14 1079.08 787.14 1079.81 787.086 1080.43 786.978L1081.8 792.895C1080.08 793.327 1078.51 793.543 1077.1 793.543 1073.65 793.543 1070.63 792.341 1068.07 789.936 1065.5 787.532 1063.03 783.709 1060.65 778.467 1058 782.952 1055.41 786.181 1052.89 788.153 1050.36 790.125 1047.6 791.112 1044.6 791.112 1042.03 791.112 1039.76 790.328 1037.77 788.761 1035.79 787.194 1034.26 785.066 1033.19 782.378 1032.13 779.69 1031.59 776.711 1031.59 773.442 1031.59 770.118 1032.19 767.059 1033.37 764.262 1034.56 761.466 1036.17 759.304 1038.2 757.778 1040.22 756.251 1042.49 755.488 1045.01 755.488 1047.14 755.488 1049.03 755.9 1050.66 756.724 1052.29 757.548 1053.87 758.838 1055.4 760.595 1056.93 762.351 1058.68 764.904 1060.65 768.254 1062.46 764.796 1064.22 761.939 1065.94 759.683 1067.65 757.427 1069.46 755.765 1071.37 754.698 1073.27 753.631 1075.58 753.097 1078.28 753.097Z" fill="#FFFFFF" fill-rule="evenodd"/><text fill="#000000" fill-opacity="0" font-family="Arial,Arial_MSFontService,sans-serif" font-size="40.4463" x="1031.59" y="788.487">∝</text><path d="M1134.1 741.06 1136.32 741.06C1136.16 743.654 1136.08 747.248 1136.08 751.841L1136.08 786.451C1136.08 788.018 1136.17 789.2 1136.34 789.997 1136.52 790.794 1136.83 791.443 1137.28 791.942 1137.72 792.442 1138.36 792.834 1139.2 793.118 1140.04 793.401 1141.09 793.618 1142.36 793.766 1143.63 793.915 1145.31 794.016 1147.39 794.07L1147.39 797.029 1117.44 797.029 1117.44 794.07C1120.44 793.935 1122.58 793.753 1123.86 793.523 1125.15 793.293 1126.13 792.949 1126.8 792.49 1127.48 792.03 1127.97 791.382 1128.28 790.544 1128.59 789.707 1128.75 788.342 1128.75 786.451L1128.75 753.583C1128.75 752.503 1128.56 751.712 1128.18 751.212 1127.8 750.713 1127.25 750.463 1126.52 750.463 1125.65 750.463 1124.42 750.909 1122.83 751.8 1121.23 752.692 1119.26 753.921 1116.91 755.488L1115.13 752.367Z" fill="#FFFFFF" fill-rule="evenodd"/><text fill="#000000" fill-opacity="0" font-family="Arial,Arial_MSFontService,sans-serif" font-size="55.9683" x="1115.13" y="790.033">1</text><path d="M1265 605 1595 605 1595 935 1265 935Z" fill="#AFABAB" fill-rule="evenodd"/><path d="M1375.01 761.891C1373.41 761.891 1371.97 762.297 1370.69 763.107 1369.41 763.918 1368.39 765.167 1367.63 766.856 1366.87 768.545 1366.5 770.632 1366.5 773.117 1366.5 775.846 1366.89 778.089 1367.69 779.845 1368.49 781.601 1369.52 782.851 1370.79 783.594 1372.06 784.337 1373.47 784.708 1375.01 784.708 1377.33 784.708 1379.54 783.783 1381.63 781.932 1383.73 780.081 1385.8 777.224 1387.85 773.361 1385.48 769.227 1383.29 766.282 1381.29 764.526 1379.29 762.77 1377.19 761.891 1375.01 761.891ZM1408.28 753.097C1409.63 753.097 1410.79 753.219 1411.76 753.462L1410.47 759.743C1409.66 759.608 1408.9 759.541 1408.2 759.541 1406.36 759.541 1404.72 759.96 1403.27 760.797 1401.83 761.635 1400.36 763.013 1398.86 764.931 1397.36 766.849 1395.55 769.659 1393.45 773.361 1394.77 775.927 1396.06 778.123 1397.32 779.946 1398.57 781.77 1399.78 783.189 1400.92 784.202 1402.07 785.215 1403.23 785.958 1404.39 786.431 1405.55 786.904 1406.83 787.14 1408.24 787.14 1409.08 787.14 1409.81 787.086 1410.43 786.978L1411.8 792.895C1410.08 793.327 1408.51 793.543 1407.1 793.543 1403.65 793.543 1400.63 792.341 1398.07 789.936 1395.5 787.532 1393.03 783.709 1390.65 778.467 1388 782.952 1385.41 786.181 1382.89 788.153 1380.36 790.125 1377.6 791.112 1374.6 791.112 1372.03 791.112 1369.76 790.328 1367.77 788.761 1365.79 787.194 1364.26 785.066 1363.19 782.378 1362.13 779.69 1361.59 776.711 1361.59 773.442 1361.59 770.118 1362.19 767.059 1363.37 764.262 1364.56 761.466 1366.17 759.304 1368.2 757.778 1370.22 756.251 1372.49 755.488 1375.01 755.488 1377.14 755.488 1379.03 755.9 1380.66 756.724 1382.29 757.548 1383.87 758.838 1385.4 760.595 1386.93 762.351 1388.68 764.904 1390.65 768.254 1392.46 764.796 1394.22 761.939 1395.94 759.683 1397.65 757.427 1399.46 755.765 1401.37 754.698 1403.27 753.631 1405.58 753.097 1408.28 753.097Z" fill="#FFFFFF" fill-rule="evenodd"/><text fill="#000000" fill-opacity="0" font-family="Arial,Arial_MSFontService,sans-serif" font-size="40.4463" x="1361.59" y="788.487">∝</text><path d="M1460.89 744.505C1459.03 744.505 1457.47 745.059 1456.21 746.167 1454.96 747.275 1453.94 748.869 1453.17 750.949 1452.4 753.029 1451.86 755.562 1451.53 758.548 1451.21 761.533 1451.05 764.904 1451.05 768.659 1451.05 777.467 1451.86 783.932 1453.5 788.052 1455.13 792.172 1457.67 794.232 1461.1 794.232 1464.37 794.232 1466.79 792.294 1468.37 788.417 1469.95 784.539 1470.74 778.535 1470.74 770.402 1470.74 764.188 1470.34 759.156 1469.53 755.306 1468.72 751.456 1467.59 748.693 1466.14 747.018 1464.7 745.343 1462.95 744.505 1460.89 744.505ZM1461.1 741.06C1467.01 741.06 1471.42 743.343 1474.31 747.909 1477.2 752.476 1478.64 759.379 1478.64 768.619 1478.64 778.183 1477.1 785.418 1474 790.321 1470.91 795.225 1466.39 797.677 1460.45 797.677 1454.61 797.677 1450.27 795.38 1447.42 790.787 1444.57 786.194 1443.14 779.224 1443.14 769.875 1443.14 764.904 1443.58 760.608 1444.46 756.988 1445.34 753.367 1446.57 750.375 1448.15 748.011 1449.73 745.647 1451.63 743.897 1453.84 742.763 1456.06 741.628 1458.48 741.06 1461.1 741.06Z" fill="#FFFFFF" fill-rule="evenodd"/><text fill="#000000" fill-opacity="0" font-family="Arial,Arial_MSFontService,sans-serif" font-size="56.6167" x="1443.14" y="790.6">0</text><rect x="1028" y="1152" width="16.9999" height="19.9999"/><g clip-path="url(#clip1)"><g clip-path="url(#clip2)"><g clip-path="url(#clip3)"><path d="M1228.49 1060.06 1201.27 1032.83C1198.06 1029.63 1193.71 1027.82 1189.17 1027.81L1187.07 1027.81 1185.56 1022.69C1184.31 1018.43 1186.75 1013.96 1191.01 1012.7 1191.75 1012.49 1192.52 1012.38 1193.29 1012.38L1216.88 1012.38C1219.72 1012.38 1222.03 1010.07 1222.03 1007.22 1222.03 1004.37 1219.72 1002.07 1216.88 1002.07L1193.29 1002.07C1188 1002.08 1182.98 1004.4 1179.54 1008.42 1179.46 1007.06 1179.46 1005.7 1179.54 1004.33 1181.54 987.719 1194.94 974.794 1211.62 973.397L1215.67 972.812C1218.52 972.528 1220.6 969.988 1220.31 967.141 1220.03 964.293 1217.49 962.215 1214.64 962.5L1210.55 962.912C1188.93 964.83 1171.67 981.732 1169.3 1003.3 1168.51 1011.74 1170.08 1020.22 1173.84 1027.81L1155 1027.81 1168.75 1041.56 1144 1071.81C1140.08 1076.6 1134.23 1079.37 1128.05 1079.38L1000.31 1079.38C988.922 1079.38 979.688 1088.61 979.688 1100L979.688 1134.38 993.438 1128.19 993.438 1151.56C993.44 1145.87 988.825 1141.25 983.13 1141.25 983.025 1141.25 982.92 1141.25 982.816 1141.25 977.157 1141.56 972.749 1146.27 972.812 1151.94L972.812 1227.19C972.812 1232.88 977.429 1237.5 983.125 1237.5 988.821 1237.5 993.438 1232.88 993.438 1227.19L993.438 1171.47C998.777 1174.56 1005.52 1173.72 1009.94 1169.4L1031.59 1147.75C1041.11 1152.44 1051.57 1154.92 1062.19 1155L1106.88 1155 1106.88 1227.19C1106.75 1232.77 1111.18 1237.39 1116.76 1237.51 1117.01 1237.52 1117.25 1237.51 1117.5 1237.5 1123.18 1237.2 1127.6 1232.46 1127.5 1226.78L1127.5 1155C1132.18 1154.9 1136.81 1154.09 1141.25 1152.59L1141.25 1227.19C1141.13 1232.77 1145.55 1237.39 1151.13 1237.51 1151.38 1237.52 1151.63 1237.51 1151.87 1237.5 1157.55 1237.2 1161.98 1232.46 1161.88 1226.78L1161.88 1146.72 1173.8 1137.98C1177.94 1134.97 1180.81 1130.52 1181.85 1125.51L1192.81 1072.5 1223.34 1072.5C1227.36 1072.5 1230.63 1069.24 1230.63 1065.22 1230.63 1063.28 1229.86 1061.42 1228.49 1060.06Z" fill="#F5B68B"/><path d="M1014.78 1174.22C1012.62 1176.34 1010.03 1177.99 1007.19 1179.06L1007.19 1227.19C1007.19 1232.88 1011.8 1237.5 1017.5 1237.5 1023.2 1237.5 1027.81 1232.88 1027.81 1227.19L1027.81 1171.47C1033.15 1174.56 1039.9 1173.72 1044.31 1169.4L1052.56 1161.15C1045.81 1160.41 1039.21 1158.67 1032.97 1156Z" fill="#F5B68B"/></g></g></g><rect x="1003" y="1156" width="128" height="82.9999"/><rect x="1116" y="1147" width="35.9998" height="76" fill="#F5B68B"/><rect x="986" y="1148" width="28.0002" height="90.9998" fill="#F5B68B"/><rect x="1120" y="1222" width="43" height="16.9999" fill="#F5B68B"/><rect x="996" y="1222" width="22" height="16.9999" fill="#F5B68B"/><rect x="998" y="1141" width="22" height="21" fill="#F5B68B"/><rect x="966" y="1135" width="28.0002" height="15.9998"/><g clip-path="url(#clip4)"><g clip-path="url(#clip5)"><g clip-path="url(#clip6)"><path d="M1230.66 1057.31 1203.75 1030.4C1199.9 1026.54 1194.67 1024.37 1189.22 1024.38L1186.92 1024.38 1185.65 1019.28C1184.72 1015.54 1186.99 1011.76 1190.73 1010.83 1191.28 1010.69 1191.84 1010.63 1192.41 1010.62L1216.9 1010.62C1218.79 1010.62 1220.33 1009.09 1220.33 1007.19 1220.33 1005.29 1218.79 1003.75 1216.9 1003.75L1193.06 1003.75C1189.74 1003.68 1186.49 1004.73 1183.84 1006.73 1180.7 1009.19 1178.8 1012.91 1178.64 1016.9 1178.64 1017.03 1178.6 1017.03 1178.57 1016.9 1176.19 1006.83 1178.01 996.227 1183.61 987.528 1190.75 976.826 1202.87 970.528 1215.74 970.839 1217.64 970.839 1219.17 969.3 1219.17 967.402 1219.17 965.503 1217.64 963.964 1215.74 963.964 1200.55 963.633 1186.26 971.104 1177.86 983.761 1170.05 995.855 1168.52 1010.96 1173.75 1024.38L1155.05 1024.38C1153.15 1024.38 1151.61 1025.91 1151.61 1027.81 1151.62 1028.72 1151.98 1029.6 1152.62 1030.24L1164.17 1041.79 1141.38 1069.64C1138.13 1073.63 1133.25 1075.95 1128.09 1075.94L996.906 1075.94C983.617 1075.94 972.843 1086.71 972.843 1100L972.843 1134.38C972.843 1136.27 974.383 1137.81 976.281 1137.81 976.767 1137.81 977.247 1137.71 977.69 1137.51L990.038 1131.97 990.038 1148.25 982.898 1148.39C975.428 1148.58 969.459 1154.67 969.413 1162.14L969.413 1230.62C969.412 1231.54 969.774 1232.41 970.42 1233.06L977.295 1239.93C977.94 1240.58 978.815 1240.94 979.729 1240.94L1000.35 1240.94C1002.25 1240.94 1003.79 1239.41 1003.79 1237.51L1003.79 1232.87C1003.79 1228.31 1001.98 1223.94 998.762 1220.72L996.923 1218.88 996.923 1179.06 998.109 1179.06C1002.66 1179.06 1007.03 1177.25 1010.25 1174.03L1032.42 1151.91C1041.8 1156.12 1051.95 1158.35 1062.23 1158.44L1113.79 1158.44 1113.79 1230.62C1113.79 1231.53 1114.15 1232.39 1114.79 1233.03L1121.67 1239.91C1122.31 1240.55 1123.19 1240.92 1124.1 1240.92L1144.73 1240.92C1146.62 1240.92 1148.16 1239.38 1148.16 1237.48L1148.16 1232.87C1148.16 1228.31 1146.35 1223.94 1143.13 1220.72L1141.29 1218.88 1141.29 1154.94C1145.93 1154.81 1150.54 1154.2 1155.04 1153.1L1155.04 1220.31C1155.05 1221.22 1155.41 1222.1 1156.05 1222.74L1158.9 1225.6C1160.83 1227.53 1161.91 1230.15 1161.91 1232.88L1161.91 1234.06 1155.03 1234.06C1153.14 1234.06 1151.6 1235.6 1151.6 1237.5 1151.6 1239.4 1153.14 1240.94 1155.03 1240.94L1165.35 1240.94C1167.25 1240.94 1168.78 1239.4 1168.78 1237.5L1168.78 1232.87C1168.78 1228.32 1166.98 1223.96 1163.77 1220.74L1161.92 1218.88 1161.92 1150.65C1162.63 1150.32 1163.31 1149.93 1163.95 1149.5L1175.88 1140.77C1180.71 1137.25 1184.05 1132.06 1185.27 1126.21L1195.67 1075.94 1223.41 1075.94C1229.34 1075.93 1234.15 1071.11 1234.14 1065.17 1234.14 1064.59 1234.09 1064 1233.99 1063.43 1233.55 1061.09 1232.39 1058.95 1230.66 1057.31ZM1117.19 1151.56 1062.25 1151.56C1052.15 1151.48 1042.21 1149.13 1033.15 1144.69 1031.81 1144.08 1030.24 1144.37 1029.2 1145.42L1005.38 1169.18C1003.45 1171.11 1000.83 1172.19 998.099 1172.19L993.475 1172.19C991.577 1172.19 990.038 1173.73 990.038 1175.62L990.038 1220.31C990.038 1221.22 990.399 1222.1 991.042 1222.74L993.891 1225.59C995.821 1227.53 996.905 1230.15 996.906 1232.88L996.906 1234.06 981.148 1234.06 976.295 1229.2 976.295 1162.14C976.319 1158.4 979.304 1155.36 983.039 1155.26L993.547 1155.06C995.421 1155.02 996.92 1153.49 996.92 1151.62L996.92 1113.48C996.951 1110.04 998.064 1100.14 1002.73 1095.6 1004.14 1094.33 1004.26 1092.16 1002.99 1090.75 1001.72 1089.34 999.545 1089.22 998.133 1090.49 998.067 1090.55 998.003 1090.62 997.941 1090.68 990.278 1098.14 990.052 1112.81 990.034 1113.46L990.034 1124.41 979.722 1129.08 979.722 1100C979.722 1090.51 987.417 1082.81 996.909 1082.81L1128.1 1082.81C1135.31 1082.82 1142.15 1079.58 1146.71 1073.99L1171.46 1043.74C1172.57 1042.38 1172.47 1040.38 1171.22 1039.14L1163.4 1031.31C1163.39 1031.3 1163.38 1031.28 1163.4 1031.26 1163.4 1031.25 1163.42 1031.25 1163.43 1031.25L1189.21 1031.25C1192.84 1031.25 1196.32 1032.69 1198.89 1035.26L1226.12 1062.49C1227.62 1063.99 1227.63 1066.42 1226.13 1067.93 1225.41 1068.65 1224.43 1069.06 1223.41 1069.06L1192.87 1069.06C1191.23 1069.06 1189.83 1070.21 1189.5 1071.81L1178.53 1124.82C1177.67 1129 1175.27 1132.71 1171.82 1135.22L1159.98 1143.89C1159.92 1143.93 1153.45 1148.12 1137.84 1148.12 1135.94 1148.12 1134.41 1149.66 1134.41 1151.56L1134.41 1220.31C1134.41 1221.23 1134.77 1222.1 1135.41 1222.75L1138.26 1225.6C1140.19 1227.53 1141.27 1230.15 1141.27 1232.88L1141.27 1234.06 1125.52 1234.06 1120.67 1229.2 1120.67 1155.05C1120.67 1153.13 1119.11 1151.57 1117.19 1151.56Z" fill="#C55A11"/><path d="M1017.55 1218.88 1017.55 1182.49C1017.55 1180.59 1016.01 1179.05 1014.11 1179.05 1012.21 1179.05 1010.67 1180.59 1010.67 1182.49L1010.67 1220.3C1010.67 1221.21 1011.03 1222.08 1011.68 1222.73L1014.53 1225.59C1016.45 1227.52 1017.54 1230.14 1017.54 1232.87L1017.54 1234.06 1010.66 1234.06C1008.76 1234.06 1007.23 1235.6 1007.23 1237.5 1007.23 1239.4 1008.76 1240.94 1010.66 1240.94L1020.98 1240.94C1022.87 1240.94 1024.41 1239.4 1024.41 1237.5L1024.41 1232.87C1024.41 1228.32 1022.61 1223.96 1019.4 1220.74Z" fill="#C55A11"/><path d="M1199.7 1046.72C1199.7 1049.57 1197.39 1051.88 1194.54 1051.88 1191.7 1051.88 1189.39 1049.57 1189.39 1046.72 1189.39 1043.87 1191.7 1041.56 1194.54 1041.56 1197.39 1041.56 1199.7 1043.87 1199.7 1046.72Z" fill="#C55A11"/></g></g></g><path d="M605.5 275.5 935.5 275.5 935.5 605.5 605.5 605.5Z" stroke="#E2F0D9" stroke-width="4.58333" stroke-miterlimit="8" fill-rule="evenodd"/><path d="M715.006 431.891C713.412 431.891 711.973 432.297 710.69 433.107 709.407 433.918 708.387 435.167 707.63 436.856 706.874 438.545 706.495 440.632 706.495 443.118 706.495 445.846 706.894 448.089 707.691 449.845 708.488 451.601 709.521 452.851 710.791 453.594 712.061 454.337 713.466 454.708 715.006 454.708 717.33 454.708 719.538 453.783 721.632 451.932 723.726 450.081 725.8 447.224 727.853 443.361 725.476 439.227 723.287 436.282 721.288 434.526 719.289 432.77 717.195 431.891 715.006 431.891ZM748.279 423.097C749.63 423.097 750.792 423.219 751.764 423.462L750.468 429.743C749.657 429.608 748.901 429.541 748.198 429.541 746.361 429.541 744.719 429.96 743.274 430.797 741.828 431.635 740.356 433.013 738.857 434.931 737.357 436.849 735.554 439.659 733.446 443.361 734.77 445.927 736.06 448.123 737.316 449.946 738.573 451.77 739.775 453.189 740.923 454.202 742.072 455.215 743.227 455.958 744.388 456.431 745.55 456.904 746.834 457.14 748.239 457.14 749.076 457.14 749.806 457.086 750.427 456.978L751.805 462.895C750.076 463.327 748.509 463.543 747.104 463.543 743.646 463.543 740.633 462.341 738.066 459.936 735.5 457.532 733.027 453.709 730.65 448.467 728.002 452.952 725.415 456.181 722.889 458.153 720.363 460.125 717.6 461.112 714.601 461.112 712.034 461.112 709.758 460.328 707.772 458.761 705.786 457.194 704.26 455.066 703.192 452.378 702.125 449.69 701.592 446.711 701.592 443.442 701.592 440.118 702.186 437.059 703.375 434.262 704.564 431.466 706.171 429.304 708.198 427.778 710.224 426.251 712.493 425.488 715.006 425.488 717.141 425.488 719.025 425.9 720.66 426.724 722.294 427.548 723.875 428.838 725.401 430.595 726.928 432.351 728.677 434.904 730.65 438.254 732.46 434.796 734.223 431.939 735.939 429.683 737.654 427.427 739.464 425.765 741.369 424.698 743.274 423.631 745.577 423.097 748.279 423.097Z" fill="#FFFFFF" fill-rule="evenodd"/><text fill="#000000" fill-opacity="0" font-family="Arial,Arial_MSFontService,sans-serif" font-size="40.4463" x="701.592" y="458.488">∝</text><path d="M804.096 411.06 806.325 411.06C806.162 413.654 806.081 417.248 806.081 421.841L806.081 456.451C806.081 458.018 806.169 459.2 806.345 459.997 806.52 460.794 806.831 461.443 807.277 461.942 807.723 462.442 808.364 462.834 809.202 463.118 810.04 463.401 811.093 463.618 812.363 463.766 813.633 463.915 815.308 464.016 817.388 464.07L817.388 467.029 787.439 467.029 787.439 464.07C790.438 463.935 792.579 463.753 793.862 463.523 795.146 463.293 796.125 462.949 796.801 462.49 797.476 462.03 797.969 461.382 798.28 460.544 798.591 459.707 798.746 458.342 798.746 456.451L798.746 423.583C798.746 422.503 798.557 421.712 798.179 421.212 797.8 420.713 797.246 420.463 796.517 420.463 795.652 420.463 794.423 420.909 792.829 421.8 791.235 422.692 789.263 423.921 786.912 425.488L785.129 422.368Z" fill="#FFFFFF" fill-rule="evenodd"/><text fill="#000000" fill-opacity="0" font-family="Arial,Arial_MSFontService,sans-serif" font-size="55.9683" x="785.129" y="460.033">1</text><path d="M935.5 275.5 1265.5 275.5 1265.5 605.5 935.5 605.5Z" stroke="#E2F0D9" stroke-width="4.58333" stroke-miterlimit="8" fill-rule="evenodd"/><path d="M1045.01 431.891C1043.41 431.891 1041.97 432.297 1040.69 433.107 1039.41 433.918 1038.39 435.167 1037.63 436.856 1036.87 438.545 1036.5 440.632 1036.5 443.118 1036.5 445.846 1036.89 448.089 1037.69 449.845 1038.49 451.601 1039.52 452.851 1040.79 453.594 1042.06 454.337 1043.47 454.708 1045.01 454.708 1047.33 454.708 1049.54 453.783 1051.63 451.932 1053.73 450.081 1055.8 447.224 1057.85 443.361 1055.48 439.227 1053.29 436.282 1051.29 434.526 1049.29 432.77 1047.19 431.891 1045.01 431.891ZM1078.28 423.097C1079.63 423.097 1080.79 423.219 1081.76 423.462L1080.47 429.743C1079.66 429.608 1078.9 429.541 1078.2 429.541 1076.36 429.541 1074.72 429.96 1073.27 430.797 1071.83 431.635 1070.36 433.013 1068.86 434.931 1067.36 436.849 1065.55 439.659 1063.45 443.361 1064.77 445.927 1066.06 448.123 1067.32 449.946 1068.57 451.77 1069.78 453.189 1070.92 454.202 1072.07 455.215 1073.23 455.958 1074.39 456.431 1075.55 456.904 1076.83 457.14 1078.24 457.14 1079.08 457.14 1079.81 457.086 1080.43 456.978L1081.8 462.895C1080.08 463.327 1078.51 463.543 1077.1 463.543 1073.65 463.543 1070.63 462.341 1068.07 459.936 1065.5 457.532 1063.03 453.709 1060.65 448.467 1058 452.952 1055.41 456.181 1052.89 458.153 1050.36 460.125 1047.6 461.112 1044.6 461.112 1042.03 461.112 1039.76 460.328 1037.77 458.761 1035.79 457.194 1034.26 455.066 1033.19 452.378 1032.13 449.69 1031.59 446.711 1031.59 443.442 1031.59 440.118 1032.19 437.059 1033.37 434.262 1034.56 431.466 1036.17 429.304 1038.2 427.778 1040.22 426.251 1042.49 425.488 1045.01 425.488 1047.14 425.488 1049.03 425.9 1050.66 426.724 1052.29 427.548 1053.87 428.838 1055.4 430.595 1056.93 432.351 1058.68 434.904 1060.65 438.254 1062.46 434.796 1064.22 431.939 1065.94 429.683 1067.65 427.427 1069.46 425.765 1071.37 424.698 1073.27 423.631 1075.58 423.097 1078.28 423.097Z" fill="#FFFFFF" fill-rule="evenodd"/><text fill="#000000" fill-opacity="0" font-family="Arial,Arial_MSFontService,sans-serif" font-size="40.4463" x="1031.59" y="458.488">∝</text><path d="M1134.1 411.06 1136.32 411.06C1136.16 413.654 1136.08 417.248 1136.08 421.841L1136.08 456.451C1136.08 458.018 1136.17 459.2 1136.34 459.997 1136.52 460.794 1136.83 461.443 1137.28 461.942 1137.72 462.442 1138.36 462.834 1139.2 463.118 1140.04 463.401 1141.09 463.618 1142.36 463.766 1143.63 463.915 1145.31 464.016 1147.39 464.07L1147.39 467.029 1117.44 467.029 1117.44 464.07C1120.44 463.935 1122.58 463.753 1123.86 463.523 1125.15 463.293 1126.13 462.949 1126.8 462.49 1127.48 462.03 1127.97 461.382 1128.28 460.544 1128.59 459.707 1128.75 458.342 1128.75 456.451L1128.75 423.583C1128.75 422.503 1128.56 421.712 1128.18 421.212 1127.8 420.713 1127.25 420.463 1126.52 420.463 1125.65 420.463 1124.42 420.909 1122.83 421.8 1121.23 422.692 1119.26 423.921 1116.91 425.488L1115.13 422.368Z" fill="#FFFFFF" fill-rule="evenodd"/><text fill="#000000" fill-opacity="0" font-family="Arial,Arial_MSFontService,sans-serif" font-size="55.9683" x="1115.13" y="460.033">1</text><path d="M1265 275 1595 275 1595 605 1265 605Z" fill="#AFABAB" fill-rule="evenodd"/><path d="M1375.01 431.891C1373.41 431.891 1371.97 432.297 1370.69 433.107 1369.41 433.918 1368.39 435.167 1367.63 436.856 1366.87 438.545 1366.5 440.632 1366.5 443.118 1366.5 445.846 1366.89 448.089 1367.69 449.845 1368.49 451.601 1369.52 452.851 1370.79 453.594 1372.06 454.337 1373.47 454.708 1375.01 454.708 1377.33 454.708 1379.54 453.783 1381.63 451.932 1383.73 450.081 1385.8 447.224 1387.85 443.361 1385.48 439.227 1383.29 436.282 1381.29 434.526 1379.29 432.77 1377.19 431.891 1375.01 431.891ZM1408.28 423.097C1409.63 423.097 1410.79 423.219 1411.76 423.462L1410.47 429.743C1409.66 429.608 1408.9 429.541 1408.2 429.541 1406.36 429.541 1404.72 429.96 1403.27 430.797 1401.83 431.635 1400.36 433.013 1398.86 434.931 1397.36 436.849 1395.55 439.659 1393.45 443.361 1394.77 445.927 1396.06 448.123 1397.32 449.946 1398.57 451.77 1399.78 453.189 1400.92 454.202 1402.07 455.215 1403.23 455.958 1404.39 456.431 1405.55 456.904 1406.83 457.14 1408.24 457.14 1409.08 457.14 1409.81 457.086 1410.43 456.978L1411.8 462.895C1410.08 463.327 1408.51 463.543 1407.1 463.543 1403.65 463.543 1400.63 462.341 1398.07 459.936 1395.5 457.532 1393.03 453.709 1390.65 448.467 1388 452.952 1385.41 456.181 1382.89 458.153 1380.36 460.125 1377.6 461.112 1374.6 461.112 1372.03 461.112 1369.76 460.328 1367.77 458.761 1365.79 457.194 1364.26 455.066 1363.19 452.378 1362.13 449.69 1361.59 446.711 1361.59 443.442 1361.59 440.118 1362.19 437.059 1363.37 434.262 1364.56 431.466 1366.17 429.304 1368.2 427.778 1370.22 426.251 1372.49 425.488 1375.01 425.488 1377.14 425.488 1379.03 425.9 1380.66 426.724 1382.29 427.548 1383.87 428.838 1385.4 430.595 1386.93 432.351 1388.68 434.904 1390.65 438.254 1392.46 434.796 1394.22 431.939 1395.94 429.683 1397.65 427.427 1399.46 425.765 1401.37 424.698 1403.27 423.631 1405.58 423.097 1408.28 423.097Z" fill="#FFFFFF" fill-rule="evenodd"/><text fill="#000000" fill-opacity="0" font-family="Arial,Arial_MSFontService,sans-serif" font-size="40.4463" x="1361.59" y="458.488">∝</text><path d="M1460.89 414.505C1459.03 414.505 1457.47 415.059 1456.21 416.167 1454.96 417.275 1453.94 418.869 1453.17 420.949 1452.4 423.029 1451.86 425.562 1451.53 428.548 1451.21 431.533 1451.05 434.904 1451.05 438.66 1451.05 447.467 1451.86 453.932 1453.5 458.052 1455.13 462.172 1457.67 464.232 1461.1 464.232 1464.37 464.232 1466.79 462.294 1468.37 458.417 1469.95 454.539 1470.74 448.535 1470.74 440.402 1470.74 434.188 1470.34 429.156 1469.53 425.306 1468.72 421.456 1467.59 418.693 1466.14 417.018 1464.7 415.343 1462.95 414.505 1460.89 414.505ZM1461.1 411.06C1467.01 411.06 1471.42 413.343 1474.31 417.91 1477.2 422.476 1478.64 429.379 1478.64 438.619 1478.64 448.183 1477.1 455.418 1474 460.321 1470.91 465.225 1466.39 467.677 1460.45 467.677 1454.61 467.677 1450.27 465.381 1447.42 460.787 1444.57 456.194 1443.14 449.224 1443.14 439.875 1443.14 434.904 1443.58 430.608 1444.46 426.988 1445.34 423.367 1446.57 420.375 1448.15 418.011 1449.73 415.647 1451.63 413.897 1453.84 412.763 1456.06 411.628 1458.48 411.06 1461.1 411.06Z" fill="#FFFFFF" fill-rule="evenodd"/><text fill="#000000" fill-opacity="0" font-family="Arial,Arial_MSFontService,sans-serif" font-size="56.6167" x="1443.14" y="460.6">0</text><path d="M605.5 1595.5 935.5 1595.5 935.5 1925.5 605.5 1925.5Z" stroke="#E2F0D9" stroke-width="4.58333" stroke-miterlimit="8" fill-rule="evenodd"/><path d="M715.006 1751.89C713.412 1751.89 711.973 1752.3 710.69 1753.11 709.407 1753.92 708.387 1755.17 707.63 1756.86 706.874 1758.54 706.495 1760.63 706.495 1763.12 706.495 1765.85 706.894 1768.09 707.691 1769.84 708.488 1771.6 709.521 1772.85 710.791 1773.59 712.061 1774.34 713.466 1774.71 715.006 1774.71 717.33 1774.71 719.538 1773.78 721.632 1771.93 723.726 1770.08 725.8 1767.22 727.853 1763.36 725.476 1759.23 723.287 1756.28 721.288 1754.53 719.289 1752.77 717.195 1751.89 715.006 1751.89ZM748.279 1743.1C749.63 1743.1 750.792 1743.22 751.764 1743.46L750.468 1749.74C749.657 1749.61 748.901 1749.54 748.198 1749.54 746.361 1749.54 744.719 1749.96 743.274 1750.8 741.828 1751.63 740.356 1753.01 738.857 1754.93 737.357 1756.85 735.554 1759.66 733.446 1763.36 734.77 1765.93 736.06 1768.12 737.316 1769.95 738.573 1771.77 739.775 1773.19 740.923 1774.2 742.072 1775.21 743.227 1775.96 744.388 1776.43 745.55 1776.9 746.834 1777.14 748.239 1777.14 749.076 1777.14 749.806 1777.09 750.427 1776.98L751.805 1782.89C750.076 1783.33 748.509 1783.54 747.104 1783.54 743.646 1783.54 740.633 1782.34 738.066 1779.94 735.5 1777.53 733.027 1773.71 730.65 1768.47 728.002 1772.95 725.415 1776.18 722.889 1778.15 720.363 1780.13 717.6 1781.11 714.601 1781.11 712.034 1781.11 709.758 1780.33 707.772 1778.76 705.786 1777.19 704.26 1775.07 703.192 1772.38 702.125 1769.69 701.592 1766.71 701.592 1763.44 701.592 1760.12 702.186 1757.06 703.375 1754.26 704.564 1751.47 706.171 1749.3 708.198 1747.78 710.224 1746.25 712.493 1745.49 715.006 1745.49 717.141 1745.49 719.025 1745.9 720.66 1746.72 722.294 1747.55 723.875 1748.84 725.401 1750.59 726.928 1752.35 728.677 1754.9 730.65 1758.25 732.46 1754.8 734.223 1751.94 735.939 1749.68 737.654 1747.43 739.464 1745.77 741.369 1744.7 743.274 1743.63 745.577 1743.1 748.279 1743.1Z" fill="#FFFFFF" fill-rule="evenodd"/><text fill="#000000" fill-opacity="0" font-family="Arial,Arial_MSFontService,sans-serif" font-size="40.4463" x="701.592" y="1778.49">∝</text><path d="M804.096 1731.06 806.325 1731.06C806.162 1733.65 806.081 1737.25 806.081 1741.84L806.081 1776.45C806.081 1778.02 806.169 1779.2 806.345 1780 806.52 1780.79 806.831 1781.44 807.277 1781.94 807.723 1782.44 808.364 1782.83 809.202 1783.12 810.04 1783.4 811.093 1783.62 812.363 1783.77 813.633 1783.91 815.308 1784.02 817.388 1784.07L817.388 1787.03 787.439 1787.03 787.439 1784.07C790.438 1783.93 792.579 1783.75 793.862 1783.52 795.146 1783.29 796.125 1782.95 796.801 1782.49 797.476 1782.03 797.969 1781.38 798.28 1780.54 798.591 1779.71 798.746 1778.34 798.746 1776.45L798.746 1743.58C798.746 1742.5 798.557 1741.71 798.179 1741.21 797.8 1740.71 797.246 1740.46 796.517 1740.46 795.652 1740.46 794.423 1740.91 792.829 1741.8 791.235 1742.69 789.263 1743.92 786.912 1745.49L785.129 1742.37Z" fill="#FFFFFF" fill-rule="evenodd"/><text fill="#000000" fill-opacity="0" font-family="Arial,Arial_MSFontService,sans-serif" font-size="55.9683" x="785.129" y="1780.03">1</text><path d="M935.5 1595.5 1265.5 1595.5 1265.5 1925.5 935.5 1925.5Z" stroke="#E2F0D9" stroke-width="4.58333" stroke-miterlimit="8" fill-rule="evenodd"/><path d="M1045.01 1751.89C1043.41 1751.89 1041.97 1752.3 1040.69 1753.11 1039.41 1753.92 1038.39 1755.17 1037.63 1756.86 1036.87 1758.54 1036.5 1760.63 1036.5 1763.12 1036.5 1765.85 1036.89 1768.09 1037.69 1769.84 1038.49 1771.6 1039.52 1772.85 1040.79 1773.59 1042.06 1774.34 1043.47 1774.71 1045.01 1774.71 1047.33 1774.71 1049.54 1773.78 1051.63 1771.93 1053.73 1770.08 1055.8 1767.22 1057.85 1763.36 1055.48 1759.23 1053.29 1756.28 1051.29 1754.53 1049.29 1752.77 1047.19 1751.89 1045.01 1751.89ZM1078.28 1743.1C1079.63 1743.1 1080.79 1743.22 1081.76 1743.46L1080.47 1749.74C1079.66 1749.61 1078.9 1749.54 1078.2 1749.54 1076.36 1749.54 1074.72 1749.96 1073.27 1750.8 1071.83 1751.63 1070.36 1753.01 1068.86 1754.93 1067.36 1756.85 1065.55 1759.66 1063.45 1763.36 1064.77 1765.93 1066.06 1768.12 1067.32 1769.95 1068.57 1771.77 1069.78 1773.19 1070.92 1774.2 1072.07 1775.21 1073.23 1775.96 1074.39 1776.43 1075.55 1776.9 1076.83 1777.14 1078.24 1777.14 1079.08 1777.14 1079.81 1777.09 1080.43 1776.98L1081.8 1782.89C1080.08 1783.33 1078.51 1783.54 1077.1 1783.54 1073.65 1783.54 1070.63 1782.34 1068.07 1779.94 1065.5 1777.53 1063.03 1773.71 1060.65 1768.47 1058 1772.95 1055.41 1776.18 1052.89 1778.15 1050.36 1780.13 1047.6 1781.11 1044.6 1781.11 1042.03 1781.11 1039.76 1780.33 1037.77 1778.76 1035.79 1777.19 1034.26 1775.07 1033.19 1772.38 1032.13 1769.69 1031.59 1766.71 1031.59 1763.44 1031.59 1760.12 1032.19 1757.06 1033.37 1754.26 1034.56 1751.47 1036.17 1749.3 1038.2 1747.78 1040.22 1746.25 1042.49 1745.49 1045.01 1745.49 1047.14 1745.49 1049.03 1745.9 1050.66 1746.72 1052.29 1747.55 1053.87 1748.84 1055.4 1750.59 1056.93 1752.35 1058.68 1754.9 1060.65 1758.25 1062.46 1754.8 1064.22 1751.94 1065.94 1749.68 1067.65 1747.43 1069.46 1745.77 1071.37 1744.7 1073.27 1743.63 1075.58 1743.1 1078.28 1743.1Z" fill="#FFFFFF" fill-rule="evenodd"/><text fill="#000000" fill-opacity="0" font-family="Arial,Arial_MSFontService,sans-serif" font-size="40.4463" x="1031.59" y="1778.49">∝</text><path d="M1134.1 1731.06 1136.32 1731.06C1136.16 1733.65 1136.08 1737.25 1136.08 1741.84L1136.08 1776.45C1136.08 1778.02 1136.17 1779.2 1136.34 1780 1136.52 1780.79 1136.83 1781.44 1137.28 1781.94 1137.72 1782.44 1138.36 1782.83 1139.2 1783.12 1140.04 1783.4 1141.09 1783.62 1142.36 1783.77 1143.63 1783.91 1145.31 1784.02 1147.39 1784.07L1147.39 1787.03 1117.44 1787.03 1117.44 1784.07C1120.44 1783.93 1122.58 1783.75 1123.86 1783.52 1125.15 1783.29 1126.13 1782.95 1126.8 1782.49 1127.48 1782.03 1127.97 1781.38 1128.28 1780.54 1128.59 1779.71 1128.75 1778.34 1128.75 1776.45L1128.75 1743.58C1128.75 1742.5 1128.56 1741.71 1128.18 1741.21 1127.8 1740.71 1127.25 1740.46 1126.52 1740.46 1125.65 1740.46 1124.42 1740.91 1122.83 1741.8 1121.23 1742.69 1119.26 1743.92 1116.91 1745.49L1115.13 1742.37Z" fill="#FFFFFF" fill-rule="evenodd"/><text fill="#000000" fill-opacity="0" font-family="Arial,Arial_MSFontService,sans-serif" font-size="55.9683" x="1115.13" y="1780.03">1</text><path d="M1265 1595 1595 1595 1595 1925 1265 1925Z" fill="#AFABAB" fill-rule="evenodd"/><path d="M1375.01 1751.89C1373.41 1751.89 1371.97 1752.3 1370.69 1753.11 1369.41 1753.92 1368.39 1755.17 1367.63 1756.86 1366.87 1758.54 1366.5 1760.63 1366.5 1763.12 1366.5 1765.85 1366.89 1768.09 1367.69 1769.84 1368.49 1771.6 1369.52 1772.85 1370.79 1773.59 1372.06 1774.34 1373.47 1774.71 1375.01 1774.71 1377.33 1774.71 1379.54 1773.78 1381.63 1771.93 1383.73 1770.08 1385.8 1767.22 1387.85 1763.36 1385.48 1759.23 1383.29 1756.28 1381.29 1754.53 1379.29 1752.77 1377.19 1751.89 1375.01 1751.89ZM1408.28 1743.1C1409.63 1743.1 1410.79 1743.22 1411.76 1743.46L1410.47 1749.74C1409.66 1749.61 1408.9 1749.54 1408.2 1749.54 1406.36 1749.54 1404.72 1749.96 1403.27 1750.8 1401.83 1751.63 1400.36 1753.01 1398.86 1754.93 1397.36 1756.85 1395.55 1759.66 1393.45 1763.36 1394.77 1765.93 1396.06 1768.12 1397.32 1769.95 1398.57 1771.77 1399.78 1773.19 1400.92 1774.2 1402.07 1775.21 1403.23 1775.96 1404.39 1776.43 1405.55 1776.9 1406.83 1777.14 1408.24 1777.14 1409.08 1777.14 1409.81 1777.09 1410.43 1776.98L1411.8 1782.89C1410.08 1783.33 1408.51 1783.54 1407.1 1783.54 1403.65 1783.54 1400.63 1782.34 1398.07 1779.94 1395.5 1777.53 1393.03 1773.71 1390.65 1768.47 1388 1772.95 1385.41 1776.18 1382.89 1778.15 1380.36 1780.13 1377.6 1781.11 1374.6 1781.11 1372.03 1781.11 1369.76 1780.33 1367.77 1778.76 1365.79 1777.19 1364.26 1775.07 1363.19 1772.38 1362.13 1769.69 1361.59 1766.71 1361.59 1763.44 1361.59 1760.12 1362.19 1757.06 1363.37 1754.26 1364.56 1751.47 1366.17 1749.3 1368.2 1747.78 1370.22 1746.25 1372.49 1745.49 1375.01 1745.49 1377.14 1745.49 1379.03 1745.9 1380.66 1746.72 1382.29 1747.55 1383.87 1748.84 1385.4 1750.59 1386.93 1752.35 1388.68 1754.9 1390.65 1758.25 1392.46 1754.8 1394.22 1751.94 1395.94 1749.68 1397.65 1747.43 1399.46 1745.77 1401.37 1744.7 1403.27 1743.63 1405.58 1743.1 1408.28 1743.1Z" fill="#FFFFFF" fill-rule="evenodd"/><text fill="#000000" fill-opacity="0" font-family="Arial,Arial_MSFontService,sans-serif" font-size="40.4463" x="1361.59" y="1778.49">∝</text><path d="M1460.89 1734.51C1459.03 1734.51 1457.47 1735.06 1456.21 1736.17 1454.96 1737.27 1453.94 1738.87 1453.17 1740.95 1452.4 1743.03 1451.86 1745.56 1451.53 1748.55 1451.21 1751.53 1451.05 1754.9 1451.05 1758.66 1451.05 1767.47 1451.86 1773.93 1453.5 1778.05 1455.13 1782.17 1457.67 1784.23 1461.1 1784.23 1464.37 1784.23 1466.79 1782.29 1468.37 1778.42 1469.95 1774.54 1470.74 1768.53 1470.74 1760.4 1470.74 1754.19 1470.34 1749.16 1469.53 1745.31 1468.72 1741.46 1467.59 1738.69 1466.14 1737.02 1464.7 1735.34 1462.95 1734.51 1460.89 1734.51ZM1461.1 1731.06C1467.01 1731.06 1471.42 1733.34 1474.31 1737.91 1477.2 1742.48 1478.64 1749.38 1478.64 1758.62 1478.64 1768.18 1477.1 1775.42 1474 1780.32 1470.91 1785.23 1466.39 1787.68 1460.45 1787.68 1454.61 1787.68 1450.27 1785.38 1447.42 1780.79 1444.57 1776.19 1443.14 1769.22 1443.14 1759.88 1443.14 1754.9 1443.58 1750.61 1444.46 1746.99 1445.34 1743.37 1446.57 1740.37 1448.15 1738.01 1449.73 1735.65 1451.63 1733.9 1453.84 1732.76 1456.06 1731.63 1458.48 1731.06 1461.1 1731.06Z" fill="#FFFFFF" fill-rule="evenodd"/><text fill="#000000" fill-opacity="0" font-family="Arial,Arial_MSFontService,sans-serif" font-size="56.6167" x="1443.14" y="1780.6">0</text><path d="M1595.5 935.5 1925.5 935.5 1925.5 1265.5 1595.5 1265.5Z" stroke="#E2F0D9" stroke-width="4.58333" stroke-miterlimit="8" fill-rule="evenodd"/><path d="M1705.01 1091.89C1703.41 1091.89 1701.97 1092.3 1700.69 1093.11 1699.41 1093.92 1698.39 1095.17 1697.63 1096.86 1696.87 1098.54 1696.5 1100.63 1696.5 1103.12 1696.5 1105.85 1696.89 1108.09 1697.69 1109.84 1698.49 1111.6 1699.52 1112.85 1700.79 1113.59 1702.06 1114.34 1703.47 1114.71 1705.01 1114.71 1707.33 1114.71 1709.54 1113.78 1711.63 1111.93 1713.73 1110.08 1715.8 1107.22 1717.85 1103.36 1715.48 1099.23 1713.29 1096.28 1711.29 1094.53 1709.29 1092.77 1707.19 1091.89 1705.01 1091.89ZM1738.28 1083.1C1739.63 1083.1 1740.79 1083.22 1741.76 1083.46L1740.47 1089.74C1739.66 1089.61 1738.9 1089.54 1738.2 1089.54 1736.36 1089.54 1734.72 1089.96 1733.27 1090.8 1731.83 1091.63 1730.36 1093.01 1728.86 1094.93 1727.36 1096.85 1725.55 1099.66 1723.45 1103.36 1724.77 1105.93 1726.06 1108.12 1727.32 1109.95 1728.57 1111.77 1729.78 1113.19 1730.92 1114.2 1732.07 1115.21 1733.23 1115.96 1734.39 1116.43 1735.55 1116.9 1736.83 1117.14 1738.24 1117.14 1739.08 1117.14 1739.81 1117.09 1740.43 1116.98L1741.8 1122.89C1740.08 1123.33 1738.51 1123.54 1737.1 1123.54 1733.65 1123.54 1730.63 1122.34 1728.07 1119.94 1725.5 1117.53 1723.03 1113.71 1720.65 1108.47 1718 1112.95 1715.41 1116.18 1712.89 1118.15 1710.36 1120.13 1707.6 1121.11 1704.6 1121.11 1702.03 1121.11 1699.76 1120.33 1697.77 1118.76 1695.79 1117.19 1694.26 1115.07 1693.19 1112.38 1692.13 1109.69 1691.59 1106.71 1691.59 1103.44 1691.59 1100.12 1692.19 1097.06 1693.37 1094.26 1694.56 1091.47 1696.17 1089.3 1698.2 1087.78 1700.22 1086.25 1702.49 1085.49 1705.01 1085.49 1707.14 1085.49 1709.03 1085.9 1710.66 1086.72 1712.29 1087.55 1713.87 1088.84 1715.4 1090.59 1716.93 1092.35 1718.68 1094.9 1720.65 1098.25 1722.46 1094.8 1724.22 1091.94 1725.94 1089.68 1727.65 1087.43 1729.46 1085.77 1731.37 1084.7 1733.27 1083.63 1735.58 1083.1 1738.28 1083.1Z" fill="#FFFFFF" fill-rule="evenodd"/><text fill="#000000" fill-opacity="0" font-family="Arial,Arial_MSFontService,sans-serif" font-size="40.4463" x="1691.59" y="1118.49">∝</text><path d="M1790.89 1074.51C1789.03 1074.51 1787.47 1075.06 1786.21 1076.17 1784.96 1077.27 1783.94 1078.87 1783.17 1080.95 1782.4 1083.03 1781.86 1085.56 1781.53 1088.55 1781.21 1091.53 1781.05 1094.9 1781.05 1098.66 1781.05 1107.47 1781.86 1113.93 1783.5 1118.05 1785.13 1122.17 1787.67 1124.23 1791.1 1124.23 1794.37 1124.23 1796.79 1122.29 1798.37 1118.42 1799.95 1114.54 1800.74 1108.53 1800.74 1100.4 1800.74 1094.19 1800.34 1089.16 1799.53 1085.31 1798.72 1081.46 1797.59 1078.69 1796.14 1077.02 1794.7 1075.34 1792.95 1074.51 1790.89 1074.51ZM1791.1 1071.06C1797.01 1071.06 1801.42 1073.34 1804.31 1077.91 1807.2 1082.48 1808.64 1089.38 1808.64 1098.62 1808.64 1108.18 1807.1 1115.42 1804 1120.32 1800.91 1125.23 1796.39 1127.68 1790.45 1127.68 1784.61 1127.68 1780.27 1125.38 1777.42 1120.79 1774.57 1116.19 1773.14 1109.22 1773.14 1099.88 1773.14 1094.9 1773.58 1090.61 1774.46 1086.99 1775.34 1083.37 1776.57 1080.37 1778.15 1078.01 1779.73 1075.65 1781.63 1073.9 1783.84 1072.76 1786.06 1071.63 1788.48 1071.06 1791.1 1071.06Z" fill="#FFFFFF" fill-rule="evenodd"/><text fill="#000000" fill-opacity="0" font-family="Arial,Arial_MSFontService,sans-serif" font-size="56.6167" x="1773.14" y="1120.6">0</text><path d="M1595.5 1265.5 1925.5 1265.5 1925.5 1595.5 1595.5 1595.5Z" stroke="#E2F0D9" stroke-width="4.58333" stroke-miterlimit="8" fill-rule="evenodd"/><path d="M1705.01 1421.89C1703.41 1421.89 1701.97 1422.3 1700.69 1423.11 1699.41 1423.92 1698.39 1425.17 1697.63 1426.86 1696.87 1428.54 1696.5 1430.63 1696.5 1433.12 1696.5 1435.85 1696.89 1438.09 1697.69 1439.84 1698.49 1441.6 1699.52 1442.85 1700.79 1443.59 1702.06 1444.34 1703.47 1444.71 1705.01 1444.71 1707.33 1444.71 1709.54 1443.78 1711.63 1441.93 1713.73 1440.08 1715.8 1437.22 1717.85 1433.36 1715.48 1429.23 1713.29 1426.28 1711.29 1424.53 1709.29 1422.77 1707.19 1421.89 1705.01 1421.89ZM1738.28 1413.1C1739.63 1413.1 1740.79 1413.22 1741.76 1413.46L1740.47 1419.74C1739.66 1419.61 1738.9 1419.54 1738.2 1419.54 1736.36 1419.54 1734.72 1419.96 1733.27 1420.8 1731.83 1421.63 1730.36 1423.01 1728.86 1424.93 1727.36 1426.85 1725.55 1429.66 1723.45 1433.36 1724.77 1435.93 1726.06 1438.12 1727.32 1439.95 1728.57 1441.77 1729.78 1443.19 1730.92 1444.2 1732.07 1445.21 1733.23 1445.96 1734.39 1446.43 1735.55 1446.9 1736.83 1447.14 1738.24 1447.14 1739.08 1447.14 1739.81 1447.09 1740.43 1446.98L1741.8 1452.89C1740.08 1453.33 1738.51 1453.54 1737.1 1453.54 1733.65 1453.54 1730.63 1452.34 1728.07 1449.94 1725.5 1447.53 1723.03 1443.71 1720.65 1438.47 1718 1442.95 1715.41 1446.18 1712.89 1448.15 1710.36 1450.13 1707.6 1451.11 1704.6 1451.11 1702.03 1451.11 1699.76 1450.33 1697.77 1448.76 1695.79 1447.19 1694.26 1445.07 1693.19 1442.38 1692.13 1439.69 1691.59 1436.71 1691.59 1433.44 1691.59 1430.12 1692.19 1427.06 1693.37 1424.26 1694.56 1421.47 1696.17 1419.3 1698.2 1417.78 1700.22 1416.25 1702.49 1415.49 1705.01 1415.49 1707.14 1415.49 1709.03 1415.9 1710.66 1416.72 1712.29 1417.55 1713.87 1418.84 1715.4 1420.59 1716.93 1422.35 1718.68 1424.9 1720.65 1428.25 1722.46 1424.8 1724.22 1421.94 1725.94 1419.68 1727.65 1417.43 1729.46 1415.77 1731.37 1414.7 1733.27 1413.63 1735.58 1413.1 1738.28 1413.1Z" fill="#FFFFFF" fill-rule="evenodd"/><text fill="#000000" fill-opacity="0" font-family="Arial,Arial_MSFontService,sans-serif" font-size="40.4463" x="1691.59" y="1448.49">∝</text><path d="M1790.89 1404.51C1789.03 1404.51 1787.47 1405.06 1786.21 1406.17 1784.96 1407.27 1783.94 1408.87 1783.17 1410.95 1782.4 1413.03 1781.86 1415.56 1781.53 1418.55 1781.21 1421.53 1781.05 1424.9 1781.05 1428.66 1781.05 1437.47 1781.86 1443.93 1783.5 1448.05 1785.13 1452.17 1787.67 1454.23 1791.1 1454.23 1794.37 1454.23 1796.79 1452.29 1798.37 1448.42 1799.95 1444.54 1800.74 1438.53 1800.74 1430.4 1800.74 1424.19 1800.34 1419.16 1799.53 1415.31 1798.72 1411.46 1797.59 1408.69 1796.14 1407.02 1794.7 1405.34 1792.95 1404.51 1790.89 1404.51ZM1791.1 1401.06C1797.01 1401.06 1801.42 1403.34 1804.31 1407.91 1807.2 1412.48 1808.64 1419.38 1808.64 1428.62 1808.64 1438.18 1807.1 1445.42 1804 1450.32 1800.91 1455.23 1796.39 1457.68 1790.45 1457.68 1784.61 1457.68 1780.27 1455.38 1777.42 1450.79 1774.57 1446.19 1773.14 1439.22 1773.14 1429.88 1773.14 1424.9 1773.58 1420.61 1774.46 1416.99 1775.34 1413.37 1776.57 1410.37 1778.15 1408.01 1779.73 1405.65 1781.63 1403.9 1783.84 1402.76 1786.06 1401.63 1788.48 1401.06 1791.1 1401.06Z" fill="#FFFFFF" fill-rule="evenodd"/><text fill="#000000" fill-opacity="0" font-family="Arial,Arial_MSFontService,sans-serif" font-size="56.6167" x="1773.14" y="1450.6">0</text><path d="M1595.5 605.5 1925.5 605.5 1925.5 935.5 1595.5 935.5Z" stroke="#E2F0D9" stroke-width="4.58333" stroke-miterlimit="8" fill-rule="evenodd"/><path d="M1705.01 761.891C1703.41 761.891 1701.97 762.297 1700.69 763.107 1699.41 763.918 1698.39 765.167 1697.63 766.856 1696.87 768.545 1696.5 770.632 1696.5 773.117 1696.5 775.846 1696.89 778.089 1697.69 779.845 1698.49 781.601 1699.52 782.851 1700.79 783.594 1702.06 784.337 1703.47 784.708 1705.01 784.708 1707.33 784.708 1709.54 783.783 1711.63 781.932 1713.73 780.081 1715.8 777.224 1717.85 773.361 1715.48 769.227 1713.29 766.282 1711.29 764.526 1709.29 762.77 1707.19 761.891 1705.01 761.891ZM1738.28 753.097C1739.63 753.097 1740.79 753.219 1741.76 753.462L1740.47 759.743C1739.66 759.608 1738.9 759.541 1738.2 759.541 1736.36 759.541 1734.72 759.96 1733.27 760.797 1731.83 761.635 1730.36 763.013 1728.86 764.931 1727.36 766.849 1725.55 769.659 1723.45 773.361 1724.77 775.927 1726.06 778.123 1727.32 779.946 1728.57 781.77 1729.78 783.189 1730.92 784.202 1732.07 785.215 1733.23 785.958 1734.39 786.431 1735.55 786.904 1736.83 787.14 1738.24 787.14 1739.08 787.14 1739.81 787.086 1740.43 786.978L1741.8 792.895C1740.08 793.327 1738.51 793.543 1737.1 793.543 1733.65 793.543 1730.63 792.341 1728.07 789.936 1725.5 787.532 1723.03 783.709 1720.65 778.467 1718 782.952 1715.41 786.181 1712.89 788.153 1710.36 790.125 1707.6 791.112 1704.6 791.112 1702.03 791.112 1699.76 790.328 1697.77 788.761 1695.79 787.194 1694.26 785.066 1693.19 782.378 1692.13 779.69 1691.59 776.711 1691.59 773.442 1691.59 770.118 1692.19 767.059 1693.37 764.262 1694.56 761.466 1696.17 759.304 1698.2 757.778 1700.22 756.251 1702.49 755.488 1705.01 755.488 1707.14 755.488 1709.03 755.9 1710.66 756.724 1712.29 757.548 1713.87 758.838 1715.4 760.595 1716.93 762.351 1718.68 764.904 1720.65 768.254 1722.46 764.796 1724.22 761.939 1725.94 759.683 1727.65 757.427 1729.46 755.765 1731.37 754.698 1733.27 753.631 1735.58 753.097 1738.28 753.097Z" fill="#FFFFFF" fill-rule="evenodd"/><text fill="#000000" fill-opacity="0" font-family="Arial,Arial_MSFontService,sans-serif" font-size="40.4463" x="1691.59" y="788.487">∝</text><path d="M1790.89 744.505C1789.03 744.505 1787.47 745.059 1786.21 746.167 1784.96 747.275 1783.94 748.869 1783.17 750.949 1782.4 753.029 1781.86 755.562 1781.53 758.548 1781.21 761.533 1781.05 764.904 1781.05 768.659 1781.05 777.467 1781.86 783.932 1783.5 788.052 1785.13 792.172 1787.67 794.232 1791.1 794.232 1794.37 794.232 1796.79 792.294 1798.37 788.417 1799.95 784.539 1800.74 778.535 1800.74 770.402 1800.74 764.188 1800.34 759.156 1799.53 755.306 1798.72 751.456 1797.59 748.693 1796.14 747.018 1794.7 745.343 1792.95 744.505 1790.89 744.505ZM1791.1 741.06C1797.01 741.06 1801.42 743.343 1804.31 747.909 1807.2 752.476 1808.64 759.379 1808.64 768.619 1808.64 778.183 1807.1 785.418 1804 790.321 1800.91 795.225 1796.39 797.677 1790.45 797.677 1784.61 797.677 1780.27 795.38 1777.42 790.787 1774.57 786.194 1773.14 779.224 1773.14 769.875 1773.14 764.904 1773.58 760.608 1774.46 756.988 1775.34 753.367 1776.57 750.375 1778.15 748.011 1779.73 745.647 1781.63 743.897 1783.84 742.763 1786.06 741.628 1788.48 741.06 1791.1 741.06Z" fill="#FFFFFF" fill-rule="evenodd"/><text fill="#000000" fill-opacity="0" font-family="Arial,Arial_MSFontService,sans-serif" font-size="56.6167" x="1773.14" y="790.6">0</text><path d="M1595.5 275.5 1925.5 275.5 1925.5 605.5 1595.5 605.5Z" stroke="#E2F0D9" stroke-width="4.58333" stroke-miterlimit="8" fill-rule="evenodd"/><path d="M1705.01 431.891C1703.41 431.891 1701.97 432.297 1700.69 433.107 1699.41 433.918 1698.39 435.167 1697.63 436.856 1696.87 438.545 1696.5 440.632 1696.5 443.118 1696.5 445.846 1696.89 448.089 1697.69 449.845 1698.49 451.601 1699.52 452.851 1700.79 453.594 1702.06 454.337 1703.47 454.708 1705.01 454.708 1707.33 454.708 1709.54 453.783 1711.63 451.932 1713.73 450.081 1715.8 447.224 1717.85 443.361 1715.48 439.227 1713.29 436.282 1711.29 434.526 1709.29 432.77 1707.19 431.891 1705.01 431.891ZM1738.28 423.097C1739.63 423.097 1740.79 423.219 1741.76 423.462L1740.47 429.743C1739.66 429.608 1738.9 429.541 1738.2 429.541 1736.36 429.541 1734.72 429.96 1733.27 430.797 1731.83 431.635 1730.36 433.013 1728.86 434.931 1727.36 436.849 1725.55 439.659 1723.45 443.361 1724.77 445.927 1726.06 448.123 1727.32 449.946 1728.57 451.77 1729.78 453.189 1730.92 454.202 1732.07 455.215 1733.23 455.958 1734.39 456.431 1735.55 456.904 1736.83 457.14 1738.24 457.14 1739.08 457.14 1739.81 457.086 1740.43 456.978L1741.8 462.895C1740.08 463.327 1738.51 463.543 1737.1 463.543 1733.65 463.543 1730.63 462.341 1728.07 459.936 1725.5 457.532 1723.03 453.709 1720.65 448.467 1718 452.952 1715.41 456.181 1712.89 458.153 1710.36 460.125 1707.6 461.112 1704.6 461.112 1702.03 461.112 1699.76 460.328 1697.77 458.761 1695.79 457.194 1694.26 455.066 1693.19 452.378 1692.13 449.69 1691.59 446.711 1691.59 443.442 1691.59 440.118 1692.19 437.059 1693.37 434.262 1694.56 431.466 1696.17 429.304 1698.2 427.778 1700.22 426.251 1702.49 425.488 1705.01 425.488 1707.14 425.488 1709.03 425.9 1710.66 426.724 1712.29 427.548 1713.87 428.838 1715.4 430.595 1716.93 432.351 1718.68 434.904 1720.65 438.254 1722.46 434.796 1724.22 431.939 1725.94 429.683 1727.65 427.427 1729.46 425.765 1731.37 424.698 1733.27 423.631 1735.58 423.097 1738.28 423.097Z" fill="#FFFFFF" fill-rule="evenodd"/><text fill="#000000" fill-opacity="0" font-family="Arial,Arial_MSFontService,sans-serif" font-size="40.4463" x="1691.59" y="458.488">∝</text><path d="M1790.89 414.505C1789.03 414.505 1787.47 415.059 1786.21 416.167 1784.96 417.275 1783.94 418.869 1783.17 420.949 1782.4 423.029 1781.86 425.562 1781.53 428.548 1781.21 431.533 1781.05 434.904 1781.05 438.66 1781.05 447.467 1781.86 453.932 1783.5 458.052 1785.13 462.172 1787.67 464.232 1791.1 464.232 1794.37 464.232 1796.79 462.294 1798.37 458.417 1799.95 454.539 1800.74 448.535 1800.74 440.402 1800.74 434.188 1800.34 429.156 1799.53 425.306 1798.72 421.456 1797.59 418.693 1796.14 417.018 1794.7 415.343 1792.95 414.505 1790.89 414.505ZM1791.1 411.06C1797.01 411.06 1801.42 413.343 1804.31 417.91 1807.2 422.476 1808.64 429.379 1808.64 438.619 1808.64 448.183 1807.1 455.418 1804 460.321 1800.91 465.225 1796.39 467.677 1790.45 467.677 1784.61 467.677 1780.27 465.381 1777.42 460.787 1774.57 456.194 1773.14 449.224 1773.14 439.875 1773.14 434.904 1773.58 430.608 1774.46 426.988 1775.34 423.367 1776.57 420.375 1778.15 418.011 1779.73 415.647 1781.63 413.897 1783.84 412.763 1786.06 411.628 1788.48 411.06 1791.1 411.06Z" fill="#FFFFFF" fill-rule="evenodd"/><text fill="#000000" fill-opacity="0" font-family="Arial,Arial_MSFontService,sans-serif" font-size="56.6167" x="1773.14" y="460.6">0</text><path d="M1595.5 1595.5 1925.5 1595.5 1925.5 1925.5 1595.5 1925.5Z" stroke="#E2F0D9" stroke-width="4.58333" stroke-miterlimit="8" fill-rule="evenodd"/><path d="M1705.01 1751.89C1703.41 1751.89 1701.97 1752.3 1700.69 1753.11 1699.41 1753.92 1698.39 1755.17 1697.63 1756.86 1696.87 1758.54 1696.5 1760.63 1696.5 1763.12 1696.5 1765.85 1696.89 1768.09 1697.69 1769.84 1698.49 1771.6 1699.52 1772.85 1700.79 1773.59 1702.06 1774.34 1703.47 1774.71 1705.01 1774.71 1707.33 1774.71 1709.54 1773.78 1711.63 1771.93 1713.73 1770.08 1715.8 1767.22 1717.85 1763.36 1715.48 1759.23 1713.29 1756.28 1711.29 1754.53 1709.29 1752.77 1707.19 1751.89 1705.01 1751.89ZM1738.28 1743.1C1739.63 1743.1 1740.79 1743.22 1741.76 1743.46L1740.47 1749.74C1739.66 1749.61 1738.9 1749.54 1738.2 1749.54 1736.36 1749.54 1734.72 1749.96 1733.27 1750.8 1731.83 1751.63 1730.36 1753.01 1728.86 1754.93 1727.36 1756.85 1725.55 1759.66 1723.45 1763.36 1724.77 1765.93 1726.06 1768.12 1727.32 1769.95 1728.57 1771.77 1729.78 1773.19 1730.92 1774.2 1732.07 1775.21 1733.23 1775.96 1734.39 1776.43 1735.55 1776.9 1736.83 1777.14 1738.24 1777.14 1739.08 1777.14 1739.81 1777.09 1740.43 1776.98L1741.8 1782.89C1740.08 1783.33 1738.51 1783.54 1737.1 1783.54 1733.65 1783.54 1730.63 1782.34 1728.07 1779.94 1725.5 1777.53 1723.03 1773.71 1720.65 1768.47 1718 1772.95 1715.41 1776.18 1712.89 1778.15 1710.36 1780.13 1707.6 1781.11 1704.6 1781.11 1702.03 1781.11 1699.76 1780.33 1697.77 1778.76 1695.79 1777.19 1694.26 1775.07 1693.19 1772.38 1692.13 1769.69 1691.59 1766.71 1691.59 1763.44 1691.59 1760.12 1692.19 1757.06 1693.37 1754.26 1694.56 1751.47 1696.17 1749.3 1698.2 1747.78 1700.22 1746.25 1702.49 1745.49 1705.01 1745.49 1707.14 1745.49 1709.03 1745.9 1710.66 1746.72 1712.29 1747.55 1713.87 1748.84 1715.4 1750.59 1716.93 1752.35 1718.68 1754.9 1720.65 1758.25 1722.46 1754.8 1724.22 1751.94 1725.94 1749.68 1727.65 1747.43 1729.46 1745.77 1731.37 1744.7 1733.27 1743.63 1735.58 1743.1 1738.28 1743.1Z" fill="#FFFFFF" fill-rule="evenodd"/><text fill="#000000" fill-opacity="0" font-family="Arial,Arial_MSFontService,sans-serif" font-size="40.4463" x="1691.59" y="1778.49">∝</text><path d="M1790.89 1734.51C1789.03 1734.51 1787.47 1735.06 1786.21 1736.17 1784.96 1737.27 1783.94 1738.87 1783.17 1740.95 1782.4 1743.03 1781.86 1745.56 1781.53 1748.55 1781.21 1751.53 1781.05 1754.9 1781.05 1758.66 1781.05 1767.47 1781.86 1773.93 1783.5 1778.05 1785.13 1782.17 1787.67 1784.23 1791.1 1784.23 1794.37 1784.23 1796.79 1782.29 1798.37 1778.42 1799.95 1774.54 1800.74 1768.53 1800.74 1760.4 1800.74 1754.19 1800.34 1749.16 1799.53 1745.31 1798.72 1741.46 1797.59 1738.69 1796.14 1737.02 1794.7 1735.34 1792.95 1734.51 1790.89 1734.51ZM1791.1 1731.06C1797.01 1731.06 1801.42 1733.34 1804.31 1737.91 1807.2 1742.48 1808.64 1749.38 1808.64 1758.62 1808.64 1768.18 1807.1 1775.42 1804 1780.32 1800.91 1785.23 1796.39 1787.68 1790.45 1787.68 1784.61 1787.68 1780.27 1785.38 1777.42 1780.79 1774.57 1776.19 1773.14 1769.22 1773.14 1759.88 1773.14 1754.9 1773.58 1750.61 1774.46 1746.99 1775.34 1743.37 1776.57 1740.37 1778.15 1738.01 1779.73 1735.65 1781.63 1733.9 1783.84 1732.76 1786.06 1731.63 1788.48 1731.06 1791.1 1731.06Z" fill="#FFFFFF" fill-rule="evenodd"/><text fill="#000000" fill-opacity="0" font-family="Arial,Arial_MSFontService,sans-serif" font-size="56.6167" x="1773.14" y="1780.6">0</text><path d="M275.5 935.5 605.5 935.5 605.5 1265.5 275.5 1265.5Z" stroke="#E2F0D9" stroke-width="4.58333" stroke-miterlimit="8" fill-rule="evenodd"/><path d="M385.006 1091.89C383.412 1091.89 381.973 1092.3 380.69 1093.11 379.407 1093.92 378.387 1095.17 377.63 1096.86 376.874 1098.54 376.495 1100.63 376.495 1103.12 376.495 1105.85 376.894 1108.09 377.691 1109.84 378.488 1111.6 379.521 1112.85 380.791 1113.59 382.061 1114.34 383.466 1114.71 385.006 1114.71 387.33 1114.71 389.539 1113.78 391.632 1111.93 393.726 1110.08 395.8 1107.22 397.853 1103.36 395.476 1099.23 393.287 1096.28 391.288 1094.53 389.289 1092.77 387.195 1091.89 385.006 1091.89ZM418.279 1083.1C419.63 1083.1 420.792 1083.22 421.764 1083.46L420.468 1089.74C419.657 1089.61 418.901 1089.54 418.198 1089.54 416.361 1089.54 414.719 1089.96 413.274 1090.8 411.829 1091.63 410.356 1093.01 408.857 1094.93 407.357 1096.85 405.554 1099.66 403.446 1103.36 404.77 1105.93 406.06 1108.12 407.316 1109.95 408.573 1111.77 409.775 1113.19 410.923 1114.2 412.072 1115.21 413.227 1115.96 414.389 1116.43 415.55 1116.9 416.834 1117.14 418.239 1117.14 419.076 1117.14 419.806 1117.09 420.427 1116.98L421.805 1122.89C420.076 1123.33 418.509 1123.54 417.104 1123.54 413.646 1123.54 410.633 1122.34 408.066 1119.94 405.5 1117.53 403.027 1113.71 400.65 1108.47 398.002 1112.95 395.415 1116.18 392.889 1118.15 390.363 1120.13 387.6 1121.11 384.601 1121.11 382.034 1121.11 379.758 1120.33 377.772 1118.76 375.786 1117.19 374.26 1115.07 373.192 1112.38 372.125 1109.69 371.592 1106.71 371.592 1103.44 371.592 1100.12 372.186 1097.06 373.375 1094.26 374.564 1091.47 376.171 1089.3 378.198 1087.78 380.224 1086.25 382.493 1085.49 385.006 1085.49 387.141 1085.49 389.025 1085.9 390.66 1086.72 392.294 1087.55 393.875 1088.84 395.401 1090.59 396.928 1092.35 398.677 1094.9 400.65 1098.25 402.46 1094.8 404.223 1091.94 405.939 1089.68 407.654 1087.43 409.464 1085.77 411.369 1084.7 413.274 1083.63 415.577 1083.1 418.279 1083.1Z" fill="#FFFFFF" fill-rule="evenodd"/><text fill="#000000" fill-opacity="0" font-family="Arial,Arial_MSFontService,sans-serif" font-size="40.4463" x="371.592" y="1118.49">∝</text><path d="M474.096 1071.06 476.325 1071.06C476.162 1073.65 476.081 1077.25 476.081 1081.84L476.081 1116.45C476.081 1118.02 476.169 1119.2 476.345 1120 476.52 1120.79 476.831 1121.44 477.277 1121.94 477.723 1122.44 478.364 1122.83 479.202 1123.12 480.04 1123.4 481.093 1123.62 482.363 1123.77 483.633 1123.91 485.308 1124.02 487.389 1124.07L487.389 1127.03 457.439 1127.03 457.439 1124.07C460.438 1123.93 462.579 1123.75 463.862 1123.52 465.146 1123.29 466.125 1122.95 466.801 1122.49 467.476 1122.03 467.969 1121.38 468.28 1120.54 468.591 1119.71 468.746 1118.34 468.746 1116.45L468.746 1083.58C468.746 1082.5 468.557 1081.71 468.179 1081.21 467.8 1080.71 467.246 1080.46 466.517 1080.46 465.652 1080.46 464.423 1080.91 462.829 1081.8 461.235 1082.69 459.263 1083.92 456.912 1085.49L455.129 1082.37Z" fill="#FFFFFF" fill-rule="evenodd"/><text fill="#000000" fill-opacity="0" font-family="Arial,Arial_MSFontService,sans-serif" font-size="55.9683" x="455.129" y="1120.03">1</text><path d="M275.5 1265.5 605.5 1265.5 605.5 1595.5 275.5 1595.5Z" stroke="#E2F0D9" stroke-width="4.58333" stroke-miterlimit="8" fill-rule="evenodd"/><path d="M385.006 1421.89C383.412 1421.89 381.973 1422.3 380.69 1423.11 379.407 1423.92 378.387 1425.17 377.63 1426.86 376.874 1428.54 376.495 1430.63 376.495 1433.12 376.495 1435.85 376.894 1438.09 377.691 1439.84 378.488 1441.6 379.521 1442.85 380.791 1443.59 382.061 1444.34 383.466 1444.71 385.006 1444.71 387.33 1444.71 389.539 1443.78 391.632 1441.93 393.726 1440.08 395.8 1437.22 397.853 1433.36 395.476 1429.23 393.287 1426.28 391.288 1424.53 389.289 1422.77 387.195 1421.89 385.006 1421.89ZM418.279 1413.1C419.63 1413.1 420.792 1413.22 421.764 1413.46L420.468 1419.74C419.657 1419.61 418.901 1419.54 418.198 1419.54 416.361 1419.54 414.719 1419.96 413.274 1420.8 411.829 1421.63 410.356 1423.01 408.857 1424.93 407.357 1426.85 405.554 1429.66 403.446 1433.36 404.77 1435.93 406.06 1438.12 407.316 1439.95 408.573 1441.77 409.775 1443.19 410.923 1444.2 412.072 1445.21 413.227 1445.96 414.389 1446.43 415.55 1446.9 416.834 1447.14 418.239 1447.14 419.076 1447.14 419.806 1447.09 420.427 1446.98L421.805 1452.89C420.076 1453.33 418.509 1453.54 417.104 1453.54 413.646 1453.54 410.633 1452.34 408.066 1449.94 405.5 1447.53 403.027 1443.71 400.65 1438.47 398.002 1442.95 395.415 1446.18 392.889 1448.15 390.363 1450.13 387.6 1451.11 384.601 1451.11 382.034 1451.11 379.758 1450.33 377.772 1448.76 375.786 1447.19 374.26 1445.07 373.192 1442.38 372.125 1439.69 371.592 1436.71 371.592 1433.44 371.592 1430.12 372.186 1427.06 373.375 1424.26 374.564 1421.47 376.171 1419.3 378.198 1417.78 380.224 1416.25 382.493 1415.49 385.006 1415.49 387.141 1415.49 389.025 1415.9 390.66 1416.72 392.294 1417.55 393.875 1418.84 395.401 1420.59 396.928 1422.35 398.677 1424.9 400.65 1428.25 402.46 1424.8 404.223 1421.94 405.939 1419.68 407.654 1417.43 409.464 1415.77 411.369 1414.7 413.274 1413.63 415.577 1413.1 418.279 1413.1Z" fill="#FFFFFF" fill-rule="evenodd"/><text fill="#000000" fill-opacity="0" font-family="Arial,Arial_MSFontService,sans-serif" font-size="40.4463" x="371.592" y="1448.49">∝</text><path d="M474.096 1401.06 476.325 1401.06C476.162 1403.65 476.081 1407.25 476.081 1411.84L476.081 1446.45C476.081 1448.02 476.169 1449.2 476.345 1450 476.52 1450.79 476.831 1451.44 477.277 1451.94 477.723 1452.44 478.364 1452.83 479.202 1453.12 480.04 1453.4 481.093 1453.62 482.363 1453.77 483.633 1453.91 485.308 1454.02 487.389 1454.07L487.389 1457.03 457.439 1457.03 457.439 1454.07C460.438 1453.93 462.579 1453.75 463.862 1453.52 465.146 1453.29 466.125 1452.95 466.801 1452.49 467.476 1452.03 467.969 1451.38 468.28 1450.54 468.591 1449.71 468.746 1448.34 468.746 1446.45L468.746 1413.58C468.746 1412.5 468.557 1411.71 468.179 1411.21 467.8 1410.71 467.246 1410.46 466.517 1410.46 465.652 1410.46 464.423 1410.91 462.829 1411.8 461.235 1412.69 459.263 1413.92 456.912 1415.49L455.129 1412.37Z" fill="#FFFFFF" fill-rule="evenodd"/><text fill="#000000" fill-opacity="0" font-family="Arial,Arial_MSFontService,sans-serif" font-size="55.9683" x="455.129" y="1450.03">1</text><path d="M275.5 605.5 605.5 605.5 605.5 935.5 275.5 935.5Z" stroke="#E2F0D9" stroke-width="4.58333" stroke-miterlimit="8" fill-rule="evenodd"/><path d="M385.006 761.891C383.412 761.891 381.973 762.297 380.69 763.107 379.407 763.918 378.387 765.167 377.63 766.856 376.874 768.545 376.495 770.632 376.495 773.117 376.495 775.846 376.894 778.089 377.691 779.845 378.488 781.601 379.521 782.851 380.791 783.594 382.061 784.337 383.466 784.708 385.006 784.708 387.33 784.708 389.539 783.783 391.632 781.932 393.726 780.081 395.8 777.224 397.853 773.361 395.476 769.227 393.287 766.282 391.288 764.526 389.289 762.77 387.195 761.891 385.006 761.891ZM418.279 753.097C419.63 753.097 420.792 753.219 421.764 753.462L420.468 759.743C419.657 759.608 418.901 759.541 418.198 759.541 416.361 759.541 414.719 759.96 413.274 760.797 411.829 761.635 410.356 763.013 408.857 764.931 407.357 766.849 405.554 769.659 403.446 773.361 404.77 775.927 406.06 778.123 407.316 779.946 408.573 781.77 409.775 783.189 410.923 784.202 412.072 785.215 413.227 785.958 414.389 786.431 415.55 786.904 416.834 787.14 418.239 787.14 419.076 787.14 419.806 787.086 420.427 786.978L421.805 792.895C420.076 793.327 418.509 793.543 417.104 793.543 413.646 793.543 410.633 792.341 408.066 789.936 405.5 787.532 403.027 783.709 400.65 778.467 398.002 782.952 395.415 786.181 392.889 788.153 390.363 790.125 387.6 791.112 384.601 791.112 382.034 791.112 379.758 790.328 377.772 788.761 375.786 787.194 374.26 785.066 373.192 782.378 372.125 779.69 371.592 776.711 371.592 773.442 371.592 770.118 372.186 767.059 373.375 764.262 374.564 761.466 376.171 759.304 378.198 757.778 380.224 756.251 382.493 755.488 385.006 755.488 387.141 755.488 389.025 755.9 390.66 756.724 392.294 757.548 393.875 758.838 395.401 760.595 396.928 762.351 398.677 764.904 400.65 768.254 402.46 764.796 404.223 761.939 405.939 759.683 407.654 757.427 409.464 755.765 411.369 754.698 413.274 753.631 415.577 753.097 418.279 753.097Z" fill="#FFFFFF" fill-rule="evenodd"/><text fill="#000000" fill-opacity="0" font-family="Arial,Arial_MSFontService,sans-serif" font-size="40.4463" x="371.592" y="788.487">∝</text><path d="M474.096 741.06 476.325 741.06C476.162 743.654 476.081 747.248 476.081 751.841L476.081 786.451C476.081 788.018 476.169 789.2 476.345 789.997 476.52 790.794 476.831 791.443 477.277 791.942 477.723 792.442 478.364 792.834 479.202 793.118 480.04 793.401 481.093 793.618 482.363 793.766 483.633 793.915 485.308 794.016 487.389 794.07L487.389 797.029 457.439 797.029 457.439 794.07C460.438 793.935 462.579 793.753 463.862 793.523 465.146 793.293 466.125 792.949 466.801 792.49 467.476 792.03 467.969 791.382 468.28 790.544 468.591 789.707 468.746 788.342 468.746 786.451L468.746 753.583C468.746 752.503 468.557 751.712 468.179 751.212 467.8 750.713 467.246 750.463 466.517 750.463 465.652 750.463 464.423 750.909 462.829 751.8 461.235 752.692 459.263 753.921 456.912 755.488L455.129 752.367Z" fill="#FFFFFF" fill-rule="evenodd"/><text fill="#000000" fill-opacity="0" font-family="Arial,Arial_MSFontService,sans-serif" font-size="55.9683" x="455.129" y="790.033">1</text><path d="M275.5 275.5 605.5 275.5 605.5 605.5 275.5 605.5Z" stroke="#E2F0D9" stroke-width="4.58333" stroke-miterlimit="8" fill-rule="evenodd"/><path d="M385.006 431.891C383.412 431.891 381.973 432.297 380.69 433.107 379.407 433.918 378.387 435.167 377.63 436.856 376.874 438.545 376.495 440.632 376.495 443.118 376.495 445.846 376.894 448.089 377.691 449.845 378.488 451.601 379.521 452.851 380.791 453.594 382.061 454.337 383.466 454.708 385.006 454.708 387.33 454.708 389.539 453.783 391.632 451.932 393.726 450.081 395.8 447.224 397.853 443.361 395.476 439.227 393.287 436.282 391.288 434.526 389.289 432.77 387.195 431.891 385.006 431.891ZM418.279 423.097C419.63 423.097 420.792 423.219 421.764 423.462L420.468 429.743C419.657 429.608 418.901 429.541 418.198 429.541 416.361 429.541 414.719 429.96 413.274 430.797 411.829 431.635 410.356 433.013 408.857 434.931 407.357 436.849 405.554 439.659 403.446 443.361 404.77 445.927 406.06 448.123 407.316 449.946 408.573 451.77 409.775 453.189 410.923 454.202 412.072 455.215 413.227 455.958 414.389 456.431 415.55 456.904 416.834 457.14 418.239 457.14 419.076 457.14 419.806 457.086 420.427 456.978L421.805 462.895C420.076 463.327 418.509 463.543 417.104 463.543 413.646 463.543 410.633 462.341 408.066 459.936 405.5 457.532 403.027 453.709 400.65 448.467 398.002 452.952 395.415 456.181 392.889 458.153 390.363 460.125 387.6 461.112 384.601 461.112 382.034 461.112 379.758 460.328 377.772 458.761 375.786 457.194 374.26 455.066 373.192 452.378 372.125 449.69 371.592 446.711 371.592 443.442 371.592 440.118 372.186 437.059 373.375 434.262 374.564 431.466 376.171 429.304 378.198 427.778 380.224 426.251 382.493 425.488 385.006 425.488 387.141 425.488 389.025 425.9 390.66 426.724 392.294 427.548 393.875 428.838 395.401 430.595 396.928 432.351 398.677 434.904 400.65 438.254 402.46 434.796 404.223 431.939 405.939 429.683 407.654 427.427 409.464 425.765 411.369 424.698 413.274 423.631 415.577 423.097 418.279 423.097Z" fill="#FFFFFF" fill-rule="evenodd"/><text fill="#000000" fill-opacity="0" font-family="Arial,Arial_MSFontService,sans-serif" font-size="40.4463" x="371.592" y="458.488">∝</text><path d="M474.096 411.06 476.325 411.06C476.162 413.654 476.081 417.248 476.081 421.841L476.081 456.451C476.081 458.018 476.169 459.2 476.345 459.997 476.52 460.794 476.831 461.443 477.277 461.942 477.723 462.442 478.364 462.834 479.202 463.118 480.04 463.401 481.093 463.618 482.363 463.766 483.633 463.915 485.308 464.016 487.389 464.07L487.389 467.029 457.439 467.029 457.439 464.07C460.438 463.935 462.579 463.753 463.862 463.523 465.146 463.293 466.125 462.949 466.801 462.49 467.476 462.03 467.969 461.382 468.28 460.544 468.591 459.707 468.746 458.342 468.746 456.451L468.746 423.583C468.746 422.503 468.557 421.712 468.179 421.212 467.8 420.713 467.246 420.463 466.517 420.463 465.652 420.463 464.423 420.909 462.829 421.8 461.235 422.692 459.263 423.921 456.912 425.488L455.129 422.368Z" fill="#FFFFFF" fill-rule="evenodd"/><text fill="#000000" fill-opacity="0" font-family="Arial,Arial_MSFontService,sans-serif" font-size="55.9683" x="455.129" y="460.033">1</text><path d="M275.5 1595.5 605.5 1595.5 605.5 1925.5 275.5 1925.5Z" stroke="#E2F0D9" stroke-width="4.58333" stroke-miterlimit="8" fill-rule="evenodd"/><path d="M385.006 1751.89C383.412 1751.89 381.973 1752.3 380.69 1753.11 379.407 1753.92 378.387 1755.17 377.63 1756.86 376.874 1758.54 376.495 1760.63 376.495 1763.12 376.495 1765.85 376.894 1768.09 377.691 1769.84 378.488 1771.6 379.521 1772.85 380.791 1773.59 382.061 1774.34 383.466 1774.71 385.006 1774.71 387.33 1774.71 389.539 1773.78 391.632 1771.93 393.726 1770.08 395.8 1767.22 397.853 1763.36 395.476 1759.23 393.287 1756.28 391.288 1754.53 389.289 1752.77 387.195 1751.89 385.006 1751.89ZM418.279 1743.1C419.63 1743.1 420.792 1743.22 421.764 1743.46L420.468 1749.74C419.657 1749.61 418.901 1749.54 418.198 1749.54 416.361 1749.54 414.719 1749.96 413.274 1750.8 411.829 1751.63 410.356 1753.01 408.857 1754.93 407.357 1756.85 405.554 1759.66 403.446 1763.36 404.77 1765.93 406.06 1768.12 407.316 1769.95 408.573 1771.77 409.775 1773.19 410.923 1774.2 412.072 1775.21 413.227 1775.96 414.389 1776.43 415.55 1776.9 416.834 1777.14 418.239 1777.14 419.076 1777.14 419.806 1777.09 420.427 1776.98L421.805 1782.89C420.076 1783.33 418.509 1783.54 417.104 1783.54 413.646 1783.54 410.633 1782.34 408.066 1779.94 405.5 1777.53 403.027 1773.71 400.65 1768.47 398.002 1772.95 395.415 1776.18 392.889 1778.15 390.363 1780.13 387.6 1781.11 384.601 1781.11 382.034 1781.11 379.758 1780.33 377.772 1778.76 375.786 1777.19 374.26 1775.07 373.192 1772.38 372.125 1769.69 371.592 1766.71 371.592 1763.44 371.592 1760.12 372.186 1757.06 373.375 1754.26 374.564 1751.47 376.171 1749.3 378.198 1747.78 380.224 1746.25 382.493 1745.49 385.006 1745.49 387.141 1745.49 389.025 1745.9 390.66 1746.72 392.294 1747.55 393.875 1748.84 395.401 1750.59 396.928 1752.35 398.677 1754.9 400.65 1758.25 402.46 1754.8 404.223 1751.94 405.939 1749.68 407.654 1747.43 409.464 1745.77 411.369 1744.7 413.274 1743.63 415.577 1743.1 418.279 1743.1Z" fill="#FFFFFF" fill-rule="evenodd"/><text fill="#000000" fill-opacity="0" font-family="Arial,Arial_MSFontService,sans-serif" font-size="40.4463" x="371.592" y="1778.49">∝</text><path d="M474.096 1731.06 476.325 1731.06C476.162 1733.65 476.081 1737.25 476.081 1741.84L476.081 1776.45C476.081 1778.02 476.169 1779.2 476.345 1780 476.52 1780.79 476.831 1781.44 477.277 1781.94 477.723 1782.44 478.364 1782.83 479.202 1783.12 480.04 1783.4 481.093 1783.62 482.363 1783.77 483.633 1783.91 485.308 1784.02 487.389 1784.07L487.389 1787.03 457.439 1787.03 457.439 1784.07C460.438 1783.93 462.579 1783.75 463.862 1783.52 465.146 1783.29 466.125 1782.95 466.801 1782.49 467.476 1782.03 467.969 1781.38 468.28 1780.54 468.591 1779.71 468.746 1778.34 468.746 1776.45L468.746 1743.58C468.746 1742.5 468.557 1741.71 468.179 1741.21 467.8 1740.71 467.246 1740.46 466.517 1740.46 465.652 1740.46 464.423 1740.91 462.829 1741.8 461.235 1742.69 459.263 1743.92 456.912 1745.49L455.129 1742.37Z" fill="#FFFFFF" fill-rule="evenodd"/><text fill="#000000" fill-opacity="0" font-family="Arial,Arial_MSFontService,sans-serif" font-size="55.9683" x="455.129" y="1780.03">1</text></g></svg>