<svg width="1655" height="1655" xmlns="http://www.w3.org/2000/svg" xmlns:xlink="http://www.w3.org/1999/xlink" overflow="hidden"><defs><clipPath id="clip0"><rect x="1964" y="272" width="1655" height="1655"/></clipPath><clipPath id="clip1"><rect x="2625" y="933" width="331" height="331"/></clipPath><clipPath id="clip2"><rect x="2625" y="933" width="331" height="331"/></clipPath><clipPath id="clip3"><rect x="2625" y="933" width="331" height="331"/></clipPath><clipPath id="clip4"><rect x="2625" y="933" width="331" height="331"/></clipPath><clipPath id="clip5"><rect x="2625" y="933" width="331" height="331"/></clipPath><clipPath id="clip6"><rect x="2625" y="933" width="331" height="331"/></clipPath></defs><g clip-path="url(#clip0)" transform="translate(-1964 -272)"><path d="M2626.5 934.5 2956.5 934.5 2956.5 1264.5 2626.5 1264.5Z" stroke="#E2F0D9" stroke-width="4.58333" stroke-miterlimit="8" fill-rule="evenodd"/><path d="M2296.5 934.5 2626.5 934.5 2626.5 1264.5 2296.5 1264.5Z" stroke="#E2F0D9" stroke-width="4.58333" stroke-miterlimit="8" fill-rule="evenodd"/><path d="M2406.15 1091.04C2404.55 1091.04 2403.11 1091.45 2401.83 1092.26 2400.55 1093.07 2399.53 1094.32 2398.77 1096.01 2398.01 1097.7 2397.63 1099.78 2397.63 1102.27 2397.63 1105 2398.03 1107.24 2398.83 1109 2399.63 1110.75 2400.66 1112 2401.93 1112.75 2403.2 1113.49 2404.61 1113.86 2406.15 1113.86 2408.47 1113.86 2410.68 1112.94 2412.77 1111.08 2414.87 1109.23 2416.94 1106.38 2418.99 1102.51 2416.61 1098.38 2414.43 1095.43 2412.43 1093.68 2410.43 1091.92 2408.33 1091.04 2406.15 1091.04ZM2439.42 1082.25C2440.77 1082.25 2441.93 1082.37 2442.9 1082.61L2441.61 1088.9C2440.8 1088.76 2440.04 1088.69 2439.34 1088.69 2437.5 1088.69 2435.86 1089.11 2434.41 1089.95 2432.97 1090.79 2431.5 1092.17 2430 1094.08 2428.5 1096 2426.69 1098.81 2424.59 1102.51 2425.91 1105.08 2427.2 1107.28 2428.46 1109.1 2429.71 1110.92 2430.91 1112.34 2432.06 1113.35 2433.21 1114.37 2434.37 1115.11 2435.53 1115.58 2436.69 1116.06 2437.97 1116.29 2439.38 1116.29 2440.22 1116.29 2440.94 1116.24 2441.57 1116.13L2442.94 1122.05C2441.21 1122.48 2439.65 1122.7 2438.24 1122.7 2434.78 1122.7 2431.77 1121.49 2429.21 1119.09 2426.64 1116.68 2424.17 1112.86 2421.79 1107.62 2419.14 1112.1 2416.55 1115.33 2414.03 1117.31 2411.5 1119.28 2408.74 1120.26 2405.74 1120.26 2403.17 1120.26 2400.9 1119.48 2398.91 1117.91 2396.93 1116.35 2395.4 1114.22 2394.33 1111.53 2393.26 1108.84 2392.73 1105.86 2392.73 1102.59 2392.73 1099.27 2393.33 1096.21 2394.51 1093.41 2395.7 1090.62 2397.31 1088.46 2399.34 1086.93 2401.36 1085.4 2403.63 1084.64 2406.15 1084.64 2408.28 1084.64 2410.16 1085.05 2411.8 1085.88 2413.43 1086.7 2415.01 1087.99 2416.54 1089.75 2418.07 1091.5 2419.82 1094.06 2421.79 1097.41 2423.6 1093.95 2425.36 1091.09 2427.08 1088.84 2428.79 1086.58 2430.6 1084.92 2432.51 1083.85 2434.41 1082.78 2436.72 1082.25 2439.42 1082.25Z" fill="#FFFFFF" fill-rule="evenodd"/><text fill="#000000" fill-opacity="0" font-family="Arial,Arial_MSFontService,sans-serif" font-size="40.4463" x="2392.73" y="1117.64">∝</text><path d="M2492.03 1073.66C2490.17 1073.66 2488.61 1074.21 2487.35 1075.32 2486.1 1076.43 2485.08 1078.02 2484.31 1080.1 2483.54 1082.18 2483 1084.72 2482.67 1087.7 2482.35 1090.69 2482.18 1094.06 2482.18 1097.81 2482.18 1106.62 2483 1113.08 2484.64 1117.2 2486.27 1121.32 2488.8 1123.38 2492.24 1123.38 2495.5 1123.38 2497.93 1121.45 2499.51 1117.57 2501.09 1113.69 2501.88 1107.69 2501.88 1099.55 2501.88 1093.34 2501.48 1088.31 2500.67 1084.46 2499.85 1080.61 2498.73 1077.85 2497.28 1076.17 2495.84 1074.5 2494.09 1073.66 2492.03 1073.66ZM2492.24 1070.21C2498.15 1070.21 2502.56 1072.5 2505.45 1077.06 2508.34 1081.63 2509.78 1088.53 2509.78 1097.77 2509.78 1107.34 2508.24 1114.57 2505.14 1119.47 2502.05 1124.38 2497.53 1126.83 2491.59 1126.83 2485.75 1126.83 2481.41 1124.53 2478.56 1119.94 2475.71 1115.35 2474.28 1108.38 2474.28 1099.03 2474.28 1094.06 2474.72 1089.76 2475.6 1086.14 2476.48 1082.52 2477.71 1079.53 2479.29 1077.16 2480.87 1074.8 2482.77 1073.05 2484.98 1071.92 2487.2 1070.78 2489.61 1070.21 2492.24 1070.21Z" fill="#FFFFFF" fill-rule="evenodd"/><text fill="#000000" fill-opacity="0" font-family="Arial,Arial_MSFontService,sans-serif" font-size="56.6167" x="2474.28" y="1119.75">0</text><path d="M2956 934 3286 934 3286 1264 2956 1264Z" fill="#AFABAB" fill-rule="evenodd"/><path d="M3066.15 1091.04C3064.55 1091.04 3063.11 1091.45 3061.83 1092.26 3060.55 1093.07 3059.53 1094.32 3058.77 1096.01 3058.01 1097.7 3057.63 1099.78 3057.63 1102.27 3057.63 1105 3058.03 1107.24 3058.83 1109 3059.63 1110.75 3060.66 1112 3061.93 1112.75 3063.2 1113.49 3064.61 1113.86 3066.15 1113.86 3068.47 1113.86 3070.68 1112.94 3072.77 1111.08 3074.87 1109.23 3076.94 1106.38 3078.99 1102.51 3076.61 1098.38 3074.43 1095.43 3072.43 1093.68 3070.43 1091.92 3068.33 1091.04 3066.15 1091.04ZM3099.42 1082.25C3100.77 1082.25 3101.93 1082.37 3102.9 1082.61L3101.61 1088.9C3100.8 1088.76 3100.04 1088.69 3099.34 1088.69 3097.5 1088.69 3095.86 1089.11 3094.41 1089.95 3092.97 1090.79 3091.5 1092.17 3090 1094.08 3088.5 1096 3086.69 1098.81 3084.59 1102.51 3085.91 1105.08 3087.2 1107.28 3088.46 1109.1 3089.71 1110.92 3090.91 1112.34 3092.06 1113.35 3093.21 1114.37 3094.37 1115.11 3095.53 1115.58 3096.69 1116.06 3097.97 1116.29 3099.38 1116.29 3100.22 1116.29 3100.94 1116.24 3101.57 1116.13L3102.94 1122.05C3101.21 1122.48 3099.65 1122.7 3098.24 1122.7 3094.78 1122.7 3091.77 1121.49 3089.21 1119.09 3086.64 1116.68 3084.17 1112.86 3081.79 1107.62 3079.14 1112.1 3076.55 1115.33 3074.03 1117.31 3071.5 1119.28 3068.74 1120.26 3065.74 1120.26 3063.17 1120.26 3060.9 1119.48 3058.91 1117.91 3056.93 1116.35 3055.4 1114.22 3054.33 1111.53 3053.26 1108.84 3052.73 1105.86 3052.73 1102.59 3052.73 1099.27 3053.33 1096.21 3054.51 1093.41 3055.7 1090.62 3057.31 1088.46 3059.34 1086.93 3061.36 1085.4 3063.63 1084.64 3066.15 1084.64 3068.28 1084.64 3070.16 1085.05 3071.8 1085.88 3073.43 1086.7 3075.01 1087.99 3076.54 1089.75 3078.07 1091.5 3079.82 1094.06 3081.79 1097.41 3083.6 1093.95 3085.36 1091.09 3087.08 1088.84 3088.79 1086.58 3090.6 1084.92 3092.51 1083.85 3094.41 1082.78 3096.72 1082.25 3099.42 1082.25Z" fill="#FFFFFF" fill-rule="evenodd"/><text fill="#000000" fill-opacity="0" font-family="Arial,Arial_MSFontService,sans-serif" font-size="40.4463" x="3052.73" y="1117.64">∝</text><path d="M3152.03 1073.66C3150.17 1073.66 3148.61 1074.21 3147.35 1075.32 3146.1 1076.43 3145.08 1078.02 3144.31 1080.1 3143.54 1082.18 3143 1084.72 3142.67 1087.7 3142.35 1090.69 3142.18 1094.06 3142.18 1097.81 3142.18 1106.62 3143 1113.08 3144.64 1117.2 3146.27 1121.32 3148.8 1123.38 3152.24 1123.38 3155.5 1123.38 3157.93 1121.45 3159.51 1117.57 3161.09 1113.69 3161.88 1107.69 3161.88 1099.55 3161.88 1093.34 3161.48 1088.31 3160.67 1084.46 3159.85 1080.61 3158.73 1077.85 3157.28 1076.17 3155.84 1074.5 3154.09 1073.66 3152.03 1073.66ZM3152.24 1070.21C3158.15 1070.21 3162.56 1072.5 3165.45 1077.06 3168.34 1081.63 3169.78 1088.53 3169.78 1097.77 3169.78 1107.34 3168.24 1114.57 3165.14 1119.47 3162.05 1124.38 3157.53 1126.83 3151.59 1126.83 3145.75 1126.83 3141.41 1124.53 3138.56 1119.94 3135.71 1115.35 3134.28 1108.38 3134.28 1099.03 3134.28 1094.06 3134.72 1089.76 3135.6 1086.14 3136.48 1082.52 3137.71 1079.53 3139.29 1077.16 3140.87 1074.8 3142.77 1073.05 3144.98 1071.92 3147.2 1070.78 3149.61 1070.21 3152.24 1070.21Z" fill="#FFFFFF" fill-rule="evenodd"/><text fill="#000000" fill-opacity="0" font-family="Arial,Arial_MSFontService,sans-serif" font-size="56.6167" x="3134.28" y="1119.75">0</text><path d="M2296.5 1264.5 2626.5 1264.5 2626.5 1594.5 2296.5 1594.5Z" stroke="#E2F0D9" stroke-width="4.58333" stroke-miterlimit="8" fill="#B4D99F" fill-rule="evenodd"/><path d="M2406.15 1421.04C2404.55 1421.04 2403.11 1421.45 2401.83 1422.26 2400.55 1423.07 2399.53 1424.32 2398.77 1426.01 2398.01 1427.7 2397.63 1429.78 2397.63 1432.27 2397.63 1435 2398.03 1437.24 2398.83 1439 2399.63 1440.75 2400.66 1442 2401.93 1442.75 2403.2 1443.49 2404.61 1443.86 2406.15 1443.86 2408.47 1443.86 2410.68 1442.94 2412.77 1441.08 2414.87 1439.23 2416.94 1436.38 2418.99 1432.51 2416.61 1428.38 2414.43 1425.43 2412.43 1423.68 2410.43 1421.92 2408.33 1421.04 2406.15 1421.04ZM2439.42 1412.25C2440.77 1412.25 2441.93 1412.37 2442.9 1412.61L2441.61 1418.9C2440.8 1418.76 2440.04 1418.69 2439.34 1418.69 2437.5 1418.69 2435.86 1419.11 2434.41 1419.95 2432.97 1420.79 2431.5 1422.17 2430 1424.08 2428.5 1426 2426.69 1428.81 2424.59 1432.51 2425.91 1435.08 2427.2 1437.28 2428.46 1439.1 2429.71 1440.92 2430.91 1442.34 2432.06 1443.35 2433.21 1444.37 2434.37 1445.11 2435.53 1445.58 2436.69 1446.06 2437.97 1446.29 2439.38 1446.29 2440.22 1446.29 2440.94 1446.24 2441.57 1446.13L2442.94 1452.05C2441.21 1452.48 2439.65 1452.7 2438.24 1452.7 2434.78 1452.7 2431.77 1451.49 2429.21 1449.09 2426.64 1446.68 2424.17 1442.86 2421.79 1437.62 2419.14 1442.1 2416.55 1445.33 2414.03 1447.31 2411.5 1449.28 2408.74 1450.26 2405.74 1450.26 2403.17 1450.26 2400.9 1449.48 2398.91 1447.91 2396.93 1446.35 2395.4 1444.22 2394.33 1441.53 2393.26 1438.84 2392.73 1435.86 2392.73 1432.59 2392.73 1429.27 2393.33 1426.21 2394.51 1423.41 2395.7 1420.62 2397.31 1418.46 2399.34 1416.93 2401.36 1415.4 2403.63 1414.64 2406.15 1414.64 2408.28 1414.64 2410.16 1415.05 2411.8 1415.88 2413.43 1416.7 2415.01 1417.99 2416.54 1419.75 2418.07 1421.5 2419.82 1424.06 2421.79 1427.41 2423.6 1423.95 2425.36 1421.09 2427.08 1418.84 2428.79 1416.58 2430.6 1414.92 2432.51 1413.85 2434.41 1412.78 2436.72 1412.25 2439.42 1412.25Z" fill="#FFFFFF" fill-rule="evenodd"/><text fill="#000000" fill-opacity="0" font-family="Arial,Arial_MSFontService,sans-serif" font-size="40.4463" x="2392.73" y="1447.64">∝</text><path d="M2491.83 1403.66C2489.8 1403.66 2488.09 1404.01 2486.68 1404.71 2485.28 1405.41 2484.14 1406.38 2483.26 1407.61 2482.38 1408.84 2481.74 1410.28 2481.33 1411.95 2480.93 1413.61 2480.73 1415.41 2480.73 1417.36 2480.73 1421.38 2481.55 1424.5 2483.2 1426.72 2484.85 1428.93 2487.17 1430.04 2490.17 1430.04 2491.2 1430.04 2492.17 1429.95 2493.11 1429.78 2494.04 1429.6 2494.95 1429.35 2495.84 1429.01 2496.73 1428.67 2497.61 1428.24 2498.46 1427.71 2499.31 1427.18 2500.07 1426.62 2500.75 1426.03 2500.99 1425.81 2501.21 1425.53 2501.39 1425.18 2501.58 1424.83 2501.73 1424.37 2501.84 1423.8 2501.95 1423.23 2502 1422.34 2502 1421.13 2502 1417.42 2501.63 1414.26 2500.89 1411.62 2500.15 1408.99 2499.01 1407 2497.48 1405.66 2495.96 1404.33 2494.07 1403.66 2491.83 1403.66ZM2492.28 1400.21C2497.95 1400.21 2502.27 1402.17 2505.24 1406.09 2508.22 1410.01 2509.7 1415.64 2509.7 1422.99 2509.7 1429.72 2508.61 1435.55 2506.42 1440.48 2504.23 1445.41 2501.17 1449.24 2497.22 1451.99 2493.28 1454.73 2488.67 1456.34 2483.4 1456.83L2481.74 1454.6 2481.74 1452.61C2485.52 1452.61 2488.8 1451.78 2491.57 1450.1 2494.34 1448.43 2496.57 1445.95 2498.25 1442.67 2499.94 1439.38 2501.07 1435.08 2501.64 1429.76L2501.23 1429.6C2498.96 1431.22 2496.73 1432.41 2494.53 1433.16 2492.32 1433.92 2489.94 1434.3 2487.37 1434.3 2484.32 1434.3 2481.72 1433.63 2479.57 1432.29 2477.42 1430.95 2475.81 1429.08 2474.73 1426.66 2473.65 1424.24 2473.11 1421.41 2473.11 1418.17 2473.11 1415.73 2473.51 1413.43 2474.32 1411.26 2475.13 1409.08 2476.34 1407.18 2477.93 1405.54 2479.52 1403.91 2481.52 1402.61 2483.91 1401.65 2486.3 1400.69 2489.09 1400.21 2492.28 1400.21Z" fill="#FFFFFF" fill-rule="evenodd"/><text fill="#000000" fill-opacity="0" font-family="Arial,Arial_MSFontService,sans-serif" font-size="56.6167" x="2473.11" y="1449.75">9</text><path d="M2626.5 1264.5 2956.5 1264.5 2956.5 1594.5 2626.5 1594.5Z" stroke="#E2F0D9" stroke-width="4.58333" stroke-miterlimit="8" fill-rule="evenodd"/><path d="M2736.15 1421.04C2734.55 1421.04 2733.11 1421.45 2731.83 1422.26 2730.55 1423.07 2729.53 1424.32 2728.77 1426.01 2728.01 1427.7 2727.63 1429.78 2727.63 1432.27 2727.63 1435 2728.03 1437.24 2728.83 1439 2729.63 1440.75 2730.66 1442 2731.93 1442.75 2733.2 1443.49 2734.61 1443.86 2736.15 1443.86 2738.47 1443.86 2740.68 1442.94 2742.77 1441.08 2744.87 1439.23 2746.94 1436.38 2748.99 1432.51 2746.61 1428.38 2744.43 1425.43 2742.43 1423.68 2740.43 1421.92 2738.33 1421.04 2736.15 1421.04ZM2769.42 1412.25C2770.77 1412.25 2771.93 1412.37 2772.9 1412.61L2771.61 1418.9C2770.8 1418.76 2770.04 1418.69 2769.34 1418.69 2767.5 1418.69 2765.86 1419.11 2764.41 1419.95 2762.97 1420.79 2761.5 1422.17 2760 1424.08 2758.5 1426 2756.69 1428.81 2754.59 1432.51 2755.91 1435.08 2757.2 1437.28 2758.46 1439.1 2759.71 1440.92 2760.91 1442.34 2762.06 1443.35 2763.21 1444.37 2764.37 1445.11 2765.53 1445.58 2766.69 1446.06 2767.97 1446.29 2769.38 1446.29 2770.22 1446.29 2770.94 1446.24 2771.57 1446.13L2772.94 1452.05C2771.21 1452.48 2769.65 1452.7 2768.24 1452.7 2764.78 1452.7 2761.77 1451.49 2759.21 1449.09 2756.64 1446.68 2754.17 1442.86 2751.79 1437.62 2749.14 1442.1 2746.55 1445.33 2744.03 1447.31 2741.5 1449.28 2738.74 1450.26 2735.74 1450.26 2733.17 1450.26 2730.9 1449.48 2728.91 1447.91 2726.93 1446.35 2725.4 1444.22 2724.33 1441.53 2723.26 1438.84 2722.73 1435.86 2722.73 1432.59 2722.73 1429.27 2723.33 1426.21 2724.51 1423.41 2725.7 1420.62 2727.31 1418.46 2729.34 1416.93 2731.36 1415.4 2733.63 1414.64 2736.15 1414.64 2738.28 1414.64 2740.16 1415.05 2741.8 1415.88 2743.43 1416.7 2745.01 1417.99 2746.54 1419.75 2748.07 1421.5 2749.82 1424.06 2751.79 1427.41 2753.6 1423.95 2755.36 1421.09 2757.08 1418.84 2758.79 1416.58 2760.6 1414.92 2762.51 1413.85 2764.41 1412.78 2766.72 1412.25 2769.42 1412.25Z" fill="#FFFFFF" fill-rule="evenodd"/><text fill="#000000" fill-opacity="0" font-family="Arial,Arial_MSFontService,sans-serif" font-size="40.4463" x="2722.73" y="1447.64">∝</text><path d="M2822.03 1403.66C2820.17 1403.66 2818.61 1404.21 2817.35 1405.32 2816.1 1406.43 2815.08 1408.02 2814.31 1410.1 2813.54 1412.18 2813 1414.72 2812.67 1417.7 2812.35 1420.69 2812.18 1424.06 2812.18 1427.81 2812.18 1436.62 2813 1443.08 2814.64 1447.2 2816.27 1451.32 2818.8 1453.38 2822.24 1453.38 2825.5 1453.38 2827.93 1451.45 2829.51 1447.57 2831.09 1443.69 2831.88 1437.69 2831.88 1429.55 2831.88 1423.34 2831.48 1418.31 2830.67 1414.46 2829.85 1410.61 2828.73 1407.85 2827.28 1406.17 2825.84 1404.5 2824.09 1403.66 2822.03 1403.66ZM2822.24 1400.21C2828.15 1400.21 2832.56 1402.5 2835.45 1407.06 2838.34 1411.63 2839.78 1418.53 2839.78 1427.77 2839.78 1437.34 2838.24 1444.57 2835.14 1449.47 2832.05 1454.38 2827.53 1456.83 2821.59 1456.83 2815.75 1456.83 2811.41 1454.53 2808.56 1449.94 2805.71 1445.35 2804.28 1438.38 2804.28 1429.03 2804.28 1424.06 2804.72 1419.76 2805.6 1416.14 2806.48 1412.52 2807.71 1409.53 2809.29 1407.16 2810.87 1404.8 2812.77 1403.05 2814.98 1401.92 2817.2 1400.78 2819.61 1400.21 2822.24 1400.21Z" fill="#FFFFFF" fill-rule="evenodd"/><text fill="#000000" fill-opacity="0" font-family="Arial,Arial_MSFontService,sans-serif" font-size="56.6167" x="2804.28" y="1449.75">0</text><path d="M2956 1264 3286 1264 3286 1594 2956 1594Z" fill="#AFABAB" fill-rule="evenodd"/><path d="M3066.15 1421.04C3064.55 1421.04 3063.11 1421.45 3061.83 1422.26 3060.55 1423.07 3059.53 1424.32 3058.77 1426.01 3058.01 1427.7 3057.63 1429.78 3057.63 1432.27 3057.63 1435 3058.03 1437.24 3058.83 1439 3059.63 1440.75 3060.66 1442 3061.93 1442.75 3063.2 1443.49 3064.61 1443.86 3066.15 1443.86 3068.47 1443.86 3070.68 1442.94 3072.77 1441.08 3074.87 1439.23 3076.94 1436.38 3078.99 1432.51 3076.61 1428.38 3074.43 1425.43 3072.43 1423.68 3070.43 1421.92 3068.33 1421.04 3066.15 1421.04ZM3099.42 1412.25C3100.77 1412.25 3101.93 1412.37 3102.9 1412.61L3101.61 1418.9C3100.8 1418.76 3100.04 1418.69 3099.34 1418.69 3097.5 1418.69 3095.86 1419.11 3094.41 1419.95 3092.97 1420.79 3091.5 1422.17 3090 1424.08 3088.5 1426 3086.69 1428.81 3084.59 1432.51 3085.91 1435.08 3087.2 1437.28 3088.46 1439.1 3089.71 1440.92 3090.91 1442.34 3092.06 1443.35 3093.21 1444.37 3094.37 1445.11 3095.53 1445.58 3096.69 1446.06 3097.97 1446.29 3099.38 1446.29 3100.22 1446.29 3100.94 1446.24 3101.57 1446.13L3102.94 1452.05C3101.21 1452.48 3099.65 1452.7 3098.24 1452.7 3094.78 1452.7 3091.77 1451.49 3089.21 1449.09 3086.64 1446.68 3084.17 1442.86 3081.79 1437.62 3079.14 1442.1 3076.55 1445.33 3074.03 1447.31 3071.5 1449.28 3068.74 1450.26 3065.74 1450.26 3063.17 1450.26 3060.9 1449.48 3058.91 1447.91 3056.93 1446.35 3055.4 1444.22 3054.33 1441.53 3053.26 1438.84 3052.73 1435.86 3052.73 1432.59 3052.73 1429.27 3053.33 1426.21 3054.51 1423.41 3055.7 1420.62 3057.31 1418.46 3059.34 1416.93 3061.36 1415.4 3063.63 1414.64 3066.15 1414.64 3068.28 1414.64 3070.16 1415.05 3071.8 1415.88 3073.43 1416.7 3075.01 1417.99 3076.54 1419.75 3078.07 1421.5 3079.82 1424.06 3081.79 1427.41 3083.6 1423.95 3085.36 1421.09 3087.08 1418.84 3088.79 1416.58 3090.6 1414.92 3092.51 1413.85 3094.41 1412.78 3096.72 1412.25 3099.42 1412.25Z" fill="#FFFFFF" fill-rule="evenodd"/><text fill="#000000" fill-opacity="0" font-family="Arial,Arial_MSFontService,sans-serif" font-size="40.4463" x="3052.73" y="1447.64">∝</text><path d="M3152.03 1403.66C3150.17 1403.66 3148.61 1404.21 3147.35 1405.32 3146.1 1406.43 3145.08 1408.02 3144.31 1410.1 3143.54 1412.18 3143 1414.72 3142.67 1417.7 3142.35 1420.69 3142.18 1424.06 3142.18 1427.81 3142.18 1436.62 3143 1443.08 3144.64 1447.2 3146.27 1451.32 3148.8 1453.38 3152.24 1453.38 3155.5 1453.38 3157.93 1451.45 3159.51 1447.57 3161.09 1443.69 3161.88 1437.69 3161.88 1429.55 3161.88 1423.34 3161.48 1418.31 3160.67 1414.46 3159.85 1410.61 3158.73 1407.85 3157.28 1406.17 3155.84 1404.5 3154.09 1403.66 3152.03 1403.66ZM3152.24 1400.21C3158.15 1400.21 3162.56 1402.5 3165.45 1407.06 3168.34 1411.63 3169.78 1418.53 3169.78 1427.77 3169.78 1437.34 3168.24 1444.57 3165.14 1449.47 3162.05 1454.38 3157.53 1456.83 3151.59 1456.83 3145.75 1456.83 3141.41 1454.53 3138.56 1449.94 3135.71 1445.35 3134.28 1438.38 3134.28 1429.03 3134.28 1424.06 3134.72 1419.76 3135.6 1416.14 3136.48 1412.52 3137.71 1409.53 3139.29 1407.16 3140.87 1404.8 3142.77 1403.05 3144.98 1401.92 3147.2 1400.78 3149.61 1400.21 3152.24 1400.21Z" fill="#FFFFFF" fill-rule="evenodd"/><text fill="#000000" fill-opacity="0" font-family="Arial,Arial_MSFontService,sans-serif" font-size="56.6167" x="3134.28" y="1449.75">0</text><path d="M2296.5 604.5 2626.5 604.5 2626.5 934.5 2296.5 934.5Z" stroke="#E2F0D9" stroke-width="4.58333" stroke-miterlimit="8" fill-rule="evenodd"/><path d="M2406.15 761.044C2404.55 761.044 2403.11 761.449 2401.83 762.26 2400.55 763.07 2399.53 764.32 2398.77 766.009 2398.01 767.697 2397.63 769.784 2397.63 772.27 2397.63 774.999 2398.03 777.242 2398.83 778.998 2399.63 780.754 2400.66 782.003 2401.93 782.746 2403.2 783.489 2404.61 783.861 2406.15 783.861 2408.47 783.861 2410.68 782.936 2412.77 781.085 2414.87 779.234 2416.94 776.377 2418.99 772.513 2416.61 768.38 2414.43 765.435 2412.43 763.678 2410.43 761.922 2408.33 761.044 2406.15 761.044ZM2439.42 752.25C2440.77 752.25 2441.93 752.371 2442.9 752.614L2441.61 758.896C2440.8 758.761 2440.04 758.693 2439.34 758.693 2437.5 758.693 2435.86 759.112 2434.41 759.95 2432.97 760.787 2431.5 762.165 2430 764.084 2428.5 766.002 2426.69 768.812 2424.59 772.513 2425.91 775.08 2427.2 777.275 2428.46 779.099 2429.71 780.923 2430.91 782.341 2432.06 783.354 2433.21 784.368 2434.37 785.111 2435.53 785.583 2436.69 786.056 2437.97 786.293 2439.38 786.293 2440.22 786.293 2440.94 786.239 2441.57 786.13L2442.94 792.047C2441.21 792.48 2439.65 792.696 2438.24 792.696 2434.78 792.696 2431.77 791.494 2429.21 789.089 2426.64 786.684 2424.17 782.861 2421.79 777.62 2419.14 782.105 2416.55 785.333 2414.03 787.306 2411.5 789.278 2408.74 790.264 2405.74 790.264 2403.17 790.264 2400.9 789.481 2398.91 787.914 2396.93 786.347 2395.4 784.219 2394.33 781.531 2393.26 778.842 2392.73 775.864 2392.73 772.594 2392.73 769.271 2393.33 766.211 2394.51 763.415 2395.7 760.619 2397.31 758.457 2399.34 756.931 2401.36 755.404 2403.63 754.641 2406.15 754.641 2408.28 754.641 2410.16 755.053 2411.8 755.877 2413.43 756.701 2415.01 757.991 2416.54 759.747 2418.07 761.503 2419.82 764.057 2421.79 767.407 2423.6 763.949 2425.36 761.091 2427.08 758.835 2428.79 756.579 2430.6 754.918 2432.51 753.85 2434.41 752.783 2436.72 752.25 2439.42 752.25Z" fill="#FFFFFF" fill-rule="evenodd"/><text fill="#000000" fill-opacity="0" font-family="Arial,Arial_MSFontService,sans-serif" font-size="40.4463" x="2392.73" y="787.64">∝</text><path d="M2492.03 743.658C2490.17 743.658 2488.61 744.212 2487.35 745.319 2486.1 746.427 2485.08 748.021 2484.31 750.102 2483.54 752.182 2483 754.715 2482.67 757.701 2482.35 760.686 2482.18 764.057 2482.18 767.812 2482.18 776.62 2483 783.084 2484.64 787.204 2486.27 791.325 2488.8 793.385 2492.24 793.385 2495.5 793.385 2497.93 791.446 2499.51 787.569 2501.09 783.692 2501.88 777.687 2501.88 769.555 2501.88 763.341 2501.48 758.308 2500.67 754.458 2499.85 750.608 2498.73 747.846 2497.28 746.171 2495.84 744.495 2494.09 743.658 2492.03 743.658ZM2492.24 740.213C2498.15 740.213 2502.56 742.496 2505.45 747.062 2508.34 751.628 2509.78 758.531 2509.78 767.772 2509.78 777.336 2508.24 784.57 2505.14 789.474 2502.05 794.378 2497.53 796.83 2491.59 796.83 2485.75 796.83 2481.41 794.533 2478.56 789.94 2475.71 785.347 2474.28 778.376 2474.28 769.028 2474.28 764.057 2474.72 759.761 2475.6 756.14 2476.48 752.52 2477.71 749.528 2479.29 747.163 2480.87 744.799 2482.77 743.05 2484.98 741.915 2487.2 740.78 2489.61 740.213 2492.24 740.213Z" fill="#FFFFFF" fill-rule="evenodd"/><text fill="#000000" fill-opacity="0" font-family="Arial,Arial_MSFontService,sans-serif" font-size="56.6167" x="2474.28" y="789.753">0</text><path d="M2626.5 604.5 2956.5 604.5 2956.5 934.5 2626.5 934.5Z" stroke="#E2F0D9" stroke-width="4.58333" stroke-miterlimit="8" fill-rule="evenodd"/><path d="M2736.15 761.044C2734.55 761.044 2733.11 761.449 2731.83 762.26 2730.55 763.07 2729.53 764.32 2728.77 766.009 2728.01 767.697 2727.63 769.784 2727.63 772.27 2727.63 774.999 2728.03 777.242 2728.83 778.998 2729.63 780.754 2730.66 782.003 2731.93 782.746 2733.2 783.489 2734.61 783.861 2736.15 783.861 2738.47 783.861 2740.68 782.936 2742.77 781.085 2744.87 779.234 2746.94 776.377 2748.99 772.513 2746.61 768.38 2744.43 765.435 2742.43 763.678 2740.43 761.922 2738.33 761.044 2736.15 761.044ZM2769.42 752.25C2770.77 752.25 2771.93 752.371 2772.9 752.614L2771.61 758.896C2770.8 758.761 2770.04 758.693 2769.34 758.693 2767.5 758.693 2765.86 759.112 2764.41 759.95 2762.97 760.787 2761.5 762.165 2760 764.084 2758.5 766.002 2756.69 768.812 2754.59 772.513 2755.91 775.08 2757.2 777.275 2758.46 779.099 2759.71 780.923 2760.91 782.341 2762.06 783.354 2763.21 784.368 2764.37 785.111 2765.53 785.583 2766.69 786.056 2767.97 786.293 2769.38 786.293 2770.22 786.293 2770.94 786.239 2771.57 786.13L2772.94 792.047C2771.21 792.48 2769.65 792.696 2768.24 792.696 2764.78 792.696 2761.77 791.494 2759.21 789.089 2756.64 786.684 2754.17 782.861 2751.79 777.62 2749.14 782.105 2746.55 785.333 2744.03 787.306 2741.5 789.278 2738.74 790.264 2735.74 790.264 2733.17 790.264 2730.9 789.481 2728.91 787.914 2726.93 786.347 2725.4 784.219 2724.33 781.531 2723.26 778.842 2722.73 775.864 2722.73 772.594 2722.73 769.271 2723.33 766.211 2724.51 763.415 2725.7 760.619 2727.31 758.457 2729.34 756.931 2731.36 755.404 2733.63 754.641 2736.15 754.641 2738.28 754.641 2740.16 755.053 2741.8 755.877 2743.43 756.701 2745.01 757.991 2746.54 759.747 2748.07 761.503 2749.82 764.057 2751.79 767.407 2753.6 763.949 2755.36 761.091 2757.08 758.835 2758.79 756.579 2760.6 754.918 2762.51 753.85 2764.41 752.783 2766.72 752.25 2769.42 752.25Z" fill="#FFFFFF" fill-rule="evenodd"/><text fill="#000000" fill-opacity="0" font-family="Arial,Arial_MSFontService,sans-serif" font-size="40.4463" x="2722.73" y="787.64">∝</text><path d="M2822.03 743.658C2820.17 743.658 2818.61 744.212 2817.35 745.319 2816.1 746.427 2815.08 748.021 2814.31 750.102 2813.54 752.182 2813 754.715 2812.67 757.701 2812.35 760.686 2812.18 764.057 2812.18 767.812 2812.18 776.62 2813 783.084 2814.64 787.204 2816.27 791.325 2818.8 793.385 2822.24 793.385 2825.5 793.385 2827.93 791.446 2829.51 787.569 2831.09 783.692 2831.88 777.687 2831.88 769.555 2831.88 763.341 2831.48 758.308 2830.67 754.458 2829.85 750.608 2828.73 747.846 2827.28 746.171 2825.84 744.495 2824.09 743.658 2822.03 743.658ZM2822.24 740.213C2828.15 740.213 2832.56 742.496 2835.45 747.062 2838.34 751.628 2839.78 758.531 2839.78 767.772 2839.78 777.336 2838.24 784.57 2835.14 789.474 2832.05 794.378 2827.53 796.83 2821.59 796.83 2815.75 796.83 2811.41 794.533 2808.56 789.94 2805.71 785.347 2804.28 778.376 2804.28 769.028 2804.28 764.057 2804.72 759.761 2805.6 756.14 2806.48 752.52 2807.71 749.528 2809.29 747.163 2810.87 744.799 2812.77 743.05 2814.98 741.915 2817.2 740.78 2819.61 740.213 2822.24 740.213Z" fill="#FFFFFF" fill-rule="evenodd"/><text fill="#000000" fill-opacity="0" font-family="Arial,Arial_MSFontService,sans-serif" font-size="56.6167" x="2804.28" y="789.753">0</text><path d="M2956 604 3286 604 3286 934 2956 934Z" fill="#AFABAB" fill-rule="evenodd"/><path d="M3066.15 761.044C3064.55 761.044 3063.11 761.449 3061.83 762.26 3060.55 763.07 3059.53 764.32 3058.77 766.009 3058.01 767.697 3057.63 769.784 3057.63 772.27 3057.63 774.999 3058.03 777.242 3058.83 778.998 3059.63 780.754 3060.66 782.003 3061.93 782.746 3063.2 783.489 3064.61 783.861 3066.15 783.861 3068.47 783.861 3070.68 782.936 3072.77 781.085 3074.87 779.234 3076.94 776.377 3078.99 772.513 3076.61 768.38 3074.43 765.435 3072.43 763.678 3070.43 761.922 3068.33 761.044 3066.15 761.044ZM3099.42 752.25C3100.77 752.25 3101.93 752.371 3102.9 752.614L3101.61 758.896C3100.8 758.761 3100.04 758.693 3099.34 758.693 3097.5 758.693 3095.86 759.112 3094.41 759.95 3092.97 760.787 3091.5 762.165 3090 764.084 3088.5 766.002 3086.69 768.812 3084.59 772.513 3085.91 775.08 3087.2 777.275 3088.46 779.099 3089.71 780.923 3090.91 782.341 3092.06 783.354 3093.21 784.368 3094.37 785.111 3095.53 785.583 3096.69 786.056 3097.97 786.293 3099.38 786.293 3100.22 786.293 3100.94 786.239 3101.57 786.13L3102.94 792.047C3101.21 792.48 3099.65 792.696 3098.24 792.696 3094.78 792.696 3091.77 791.494 3089.21 789.089 3086.64 786.684 3084.17 782.861 3081.79 777.62 3079.14 782.105 3076.55 785.333 3074.03 787.306 3071.5 789.278 3068.74 790.264 3065.74 790.264 3063.17 790.264 3060.9 789.481 3058.91 787.914 3056.93 786.347 3055.4 784.219 3054.33 781.531 3053.26 778.842 3052.73 775.864 3052.73 772.594 3052.73 769.271 3053.33 766.211 3054.51 763.415 3055.7 760.619 3057.31 758.457 3059.34 756.931 3061.36 755.404 3063.63 754.641 3066.15 754.641 3068.28 754.641 3070.16 755.053 3071.8 755.877 3073.43 756.701 3075.01 757.991 3076.54 759.747 3078.07 761.503 3079.82 764.057 3081.79 767.407 3083.6 763.949 3085.36 761.091 3087.08 758.835 3088.79 756.579 3090.6 754.918 3092.51 753.85 3094.41 752.783 3096.72 752.25 3099.42 752.25Z" fill="#FFFFFF" fill-rule="evenodd"/><text fill="#000000" fill-opacity="0" font-family="Arial,Arial_MSFontService,sans-serif" font-size="40.4463" x="3052.73" y="787.64">∝</text><path d="M3152.03 743.658C3150.17 743.658 3148.61 744.212 3147.35 745.319 3146.1 746.427 3145.08 748.021 3144.31 750.102 3143.54 752.182 3143 754.715 3142.67 757.701 3142.35 760.686 3142.18 764.057 3142.18 767.812 3142.18 776.62 3143 783.084 3144.64 787.204 3146.27 791.325 3148.8 793.385 3152.24 793.385 3155.5 793.385 3157.93 791.446 3159.51 787.569 3161.09 783.692 3161.88 777.687 3161.88 769.555 3161.88 763.341 3161.48 758.308 3160.67 754.458 3159.85 750.608 3158.73 747.846 3157.28 746.171 3155.84 744.495 3154.09 743.658 3152.03 743.658ZM3152.24 740.213C3158.15 740.213 3162.56 742.496 3165.45 747.062 3168.34 751.628 3169.78 758.531 3169.78 767.772 3169.78 777.336 3168.24 784.57 3165.14 789.474 3162.05 794.378 3157.53 796.83 3151.59 796.83 3145.75 796.83 3141.41 794.533 3138.56 789.94 3135.71 785.347 3134.28 778.376 3134.28 769.028 3134.28 764.057 3134.72 759.761 3135.6 756.14 3136.48 752.52 3137.71 749.528 3139.29 747.163 3140.87 744.799 3142.77 743.05 3144.98 741.915 3147.2 740.78 3149.61 740.213 3152.24 740.213Z" fill="#FFFFFF" fill-rule="evenodd"/><text fill="#000000" fill-opacity="0" font-family="Arial,Arial_MSFontService,sans-serif" font-size="56.6167" x="3134.28" y="789.753">0</text><rect x="2720" y="1151" width="15.9998" height="21"/><g clip-path="url(#clip1)"><g clip-path="url(#clip2)"><g clip-path="url(#clip3)"><path d="M2919.49 1059.06 2892.27 1031.83C2889.06 1028.63 2884.71 1026.82 2880.17 1026.81L2878.07 1026.81 2876.56 1021.69C2875.31 1017.43 2877.75 1012.96 2882.01 1011.7 2882.75 1011.49 2883.52 1011.38 2884.29 1011.38L2907.88 1011.38C2910.72 1011.38 2913.03 1009.07 2913.03 1006.22 2913.03 1003.37 2910.72 1001.07 2907.88 1001.07L2884.29 1001.07C2879 1001.08 2873.98 1003.4 2870.54 1007.42 2870.46 1006.06 2870.46 1004.7 2870.54 1003.33 2872.54 986.719 2885.94 973.794 2902.62 972.397L2906.67 971.812C2909.52 971.528 2911.6 968.988 2911.31 966.141 2911.03 963.293 2908.49 961.215 2905.64 961.5L2901.55 961.912C2879.93 963.83 2862.67 980.732 2860.3 1002.3 2859.51 1010.74 2861.08 1019.22 2864.84 1026.81L2846 1026.81 2859.75 1040.56 2835 1070.81C2831.08 1075.6 2825.23 1078.37 2819.05 1078.38L2691.31 1078.38C2679.92 1078.38 2670.69 1087.61 2670.69 1099L2670.69 1133.38 2684.44 1127.19 2684.44 1150.56C2684.44 1144.87 2679.82 1140.25 2674.13 1140.25 2674.02 1140.25 2673.92 1140.25 2673.82 1140.25 2668.16 1140.56 2663.75 1145.27 2663.81 1150.94L2663.81 1226.19C2663.81 1231.88 2668.43 1236.5 2674.12 1236.5 2679.82 1236.5 2684.44 1231.88 2684.44 1226.19L2684.44 1170.47C2689.78 1173.56 2696.52 1172.72 2700.94 1168.4L2722.59 1146.75C2732.11 1151.44 2742.57 1153.92 2753.19 1154L2797.88 1154 2797.88 1226.19C2797.75 1231.77 2802.18 1236.39 2807.76 1236.51 2808.01 1236.52 2808.25 1236.51 2808.5 1236.5 2814.18 1236.2 2818.6 1231.46 2818.5 1225.77L2818.5 1154C2823.18 1153.9 2827.81 1153.09 2832.25 1151.59L2832.25 1226.19C2832.13 1231.77 2836.55 1236.39 2842.13 1236.51 2842.38 1236.52 2842.63 1236.51 2842.87 1236.5 2848.55 1236.2 2852.98 1231.46 2852.88 1225.77L2852.88 1145.72 2864.8 1136.98C2868.94 1133.97 2871.81 1129.52 2872.85 1124.51L2883.81 1071.5 2914.34 1071.5C2918.36 1071.5 2921.63 1068.24 2921.63 1064.22 2921.63 1062.28 2920.86 1060.42 2919.49 1059.06Z" fill="#F5B68B"/><path d="M2705.78 1173.22C2703.62 1175.34 2701.03 1176.99 2698.19 1178.06L2698.19 1226.19C2698.19 1231.88 2702.8 1236.5 2708.5 1236.5 2714.2 1236.5 2718.81 1231.88 2718.81 1226.19L2718.81 1170.47C2724.15 1173.56 2730.9 1172.72 2735.31 1168.4L2743.56 1160.15C2736.81 1159.41 2730.21 1157.67 2723.97 1155Z" fill="#F5B68B"/></g></g></g><rect x="2694" y="1155" width="128" height="82.9999"/><rect x="2808" y="1146" width="35" height="76" fill="#F5B68B"/><rect x="2677" y="1147" width="27.9998" height="90.9998" fill="#F5B68B"/><rect x="2811" y="1221" width="43.0002" height="16.9999" fill="#F5B68B"/><rect x="2687" y="1221" width="22" height="16.9999" fill="#F5B68B"/><rect x="2689" y="1140" width="22" height="21" fill="#F5B68B"/><rect x="2657" y="1134" width="28.0002" height="16.9999"/><g clip-path="url(#clip4)"><g clip-path="url(#clip5)"><g clip-path="url(#clip6)"><path d="M2921.66 1056.31 2894.75 1029.4C2890.9 1025.54 2885.68 1023.37 2880.22 1023.37L2877.92 1023.37 2876.65 1018.28C2875.72 1014.54 2877.99 1010.76 2881.73 1009.83 2882.28 1009.69 2882.84 1009.63 2883.41 1009.62L2907.9 1009.62C2909.79 1009.62 2911.33 1008.09 2911.33 1006.19 2911.33 1004.29 2909.79 1002.75 2907.9 1002.75L2884.06 1002.75C2880.74 1002.68 2877.49 1003.73 2874.84 1005.73 2871.7 1008.19 2869.8 1011.91 2869.64 1015.9 2869.64 1016.03 2869.6 1016.03 2869.57 1015.9 2867.19 1005.83 2869.01 995.227 2874.61 986.528 2881.75 975.826 2893.87 969.528 2906.74 969.839 2908.64 969.839 2910.17 968.3 2910.17 966.402 2910.17 964.503 2908.64 962.964 2906.74 962.964 2891.55 962.633 2877.26 970.104 2868.86 982.761 2861.05 994.855 2859.52 1009.96 2864.75 1023.37L2846.05 1023.37C2844.15 1023.38 2842.61 1024.91 2842.61 1026.81 2842.61 1027.72 2842.98 1028.6 2843.62 1029.24L2855.17 1040.79 2832.38 1068.64C2829.13 1072.63 2824.25 1074.95 2819.09 1074.94L2687.91 1074.94C2674.62 1074.94 2663.84 1085.71 2663.84 1099L2663.84 1133.38C2663.84 1135.27 2665.38 1136.81 2667.28 1136.81 2667.77 1136.81 2668.25 1136.71 2668.69 1136.51L2681.04 1130.97 2681.04 1147.25 2673.9 1147.39C2666.43 1147.58 2660.46 1153.67 2660.41 1161.14L2660.41 1229.62C2660.41 1230.54 2660.77 1231.41 2661.42 1232.06L2668.29 1238.93C2668.94 1239.58 2669.82 1239.94 2670.73 1239.94L2691.35 1239.94C2693.25 1239.94 2694.79 1238.41 2694.79 1236.51L2694.79 1231.87C2694.79 1227.31 2692.98 1222.94 2689.76 1219.72L2687.92 1217.88 2687.92 1178.06 2689.11 1178.06C2693.66 1178.06 2698.03 1176.25 2701.25 1173.03L2723.42 1150.91C2732.8 1155.12 2742.95 1157.35 2753.23 1157.44L2804.79 1157.44 2804.79 1229.62C2804.79 1230.53 2805.15 1231.39 2805.79 1232.03L2812.67 1238.91C2813.31 1239.55 2814.19 1239.92 2815.1 1239.92L2835.73 1239.92C2837.62 1239.92 2839.16 1238.38 2839.16 1236.48L2839.16 1231.87C2839.16 1227.31 2837.35 1222.94 2834.13 1219.72L2832.29 1217.88 2832.29 1153.94C2836.93 1153.81 2841.54 1153.2 2846.04 1152.1L2846.04 1219.31C2846.04 1220.22 2846.41 1221.1 2847.05 1221.74L2849.9 1224.6C2851.83 1226.53 2852.91 1229.15 2852.91 1231.88L2852.91 1233.06 2846.03 1233.06C2844.14 1233.06 2842.6 1234.6 2842.6 1236.5 2842.6 1238.4 2844.14 1239.94 2846.03 1239.94L2856.35 1239.94C2858.25 1239.94 2859.78 1238.4 2859.78 1236.5L2859.78 1231.87C2859.78 1227.32 2857.98 1222.96 2854.77 1219.74L2852.92 1217.88 2852.92 1149.65C2853.63 1149.32 2854.31 1148.93 2854.95 1148.5L2866.88 1139.77C2871.71 1136.25 2875.05 1131.06 2876.27 1125.21L2886.67 1074.94 2914.41 1074.94C2920.34 1074.93 2925.15 1070.11 2925.14 1064.17 2925.14 1063.59 2925.09 1063 2924.99 1062.42 2924.55 1060.09 2923.39 1057.95 2921.66 1056.31ZM2808.19 1150.56 2753.25 1150.56C2743.15 1150.48 2733.21 1148.13 2724.15 1143.69 2722.81 1143.08 2721.24 1143.37 2720.2 1144.42L2696.38 1168.18C2694.45 1170.11 2691.83 1171.19 2689.1 1171.19L2684.48 1171.19C2682.58 1171.19 2681.04 1172.73 2681.04 1174.62L2681.04 1219.31C2681.04 1220.22 2681.4 1221.1 2682.04 1221.74L2684.89 1224.59C2686.82 1226.53 2687.91 1229.15 2687.91 1231.88L2687.91 1233.06 2672.15 1233.06 2667.29 1228.2 2667.29 1161.14C2667.32 1157.4 2670.3 1154.36 2674.04 1154.26L2684.55 1154.06C2686.42 1154.02 2687.92 1152.49 2687.92 1150.62L2687.92 1112.48C2687.95 1109.04 2689.06 1099.14 2693.73 1094.6 2695.14 1093.33 2695.26 1091.16 2693.99 1089.75 2692.72 1088.34 2690.54 1088.22 2689.13 1089.49 2689.07 1089.55 2689 1089.62 2688.94 1089.68 2681.28 1097.14 2681.05 1111.81 2681.03 1112.46L2681.03 1123.41 2670.72 1128.08 2670.72 1099C2670.72 1089.51 2678.42 1081.81 2687.91 1081.81L2819.1 1081.81C2826.31 1081.82 2833.15 1078.58 2837.71 1072.99L2862.46 1042.74C2863.57 1041.38 2863.47 1039.38 2862.23 1038.14L2854.4 1030.31C2854.39 1030.3 2854.38 1030.28 2854.4 1030.26 2854.4 1030.25 2854.42 1030.25 2854.43 1030.25L2880.21 1030.25C2883.84 1030.25 2887.32 1031.69 2889.89 1034.26L2917.12 1061.49C2918.62 1062.99 2918.63 1065.42 2917.13 1066.93 2916.41 1067.65 2915.43 1068.06 2914.41 1068.06L2883.87 1068.06C2882.23 1068.06 2880.83 1069.21 2880.5 1070.81L2869.53 1123.82C2868.67 1128 2866.27 1131.71 2862.82 1134.22L2850.98 1142.89C2850.92 1142.93 2844.45 1147.12 2828.84 1147.12 2826.94 1147.12 2825.41 1148.66 2825.41 1150.56L2825.41 1219.31C2825.41 1220.23 2825.77 1221.1 2826.41 1221.75L2829.26 1224.6C2831.19 1226.53 2832.27 1229.15 2832.27 1231.88L2832.27 1233.06 2816.52 1233.06 2811.67 1228.2 2811.67 1154.05C2811.67 1152.13 2810.11 1150.57 2808.19 1150.56Z" fill="#C55A11"/><path d="M2708.55 1217.88 2708.55 1181.49C2708.55 1179.59 2707.01 1178.05 2705.11 1178.05 2703.21 1178.05 2701.67 1179.59 2701.67 1181.49L2701.67 1219.3C2701.67 1220.21 2702.03 1221.08 2702.68 1221.73L2705.53 1224.59C2707.45 1226.52 2708.54 1229.14 2708.54 1231.87L2708.54 1233.06 2701.66 1233.06C2699.76 1233.06 2698.23 1234.6 2698.23 1236.5 2698.23 1238.4 2699.76 1239.94 2701.66 1239.94L2711.98 1239.94C2713.87 1239.94 2715.41 1238.4 2715.41 1236.5L2715.41 1231.87C2715.41 1227.32 2713.61 1222.96 2710.4 1219.74Z" fill="#C55A11"/><path d="M2890.7 1045.72C2890.7 1048.57 2888.39 1050.88 2885.54 1050.88 2882.7 1050.88 2880.39 1048.57 2880.39 1045.72 2880.39 1042.87 2882.7 1040.56 2885.54 1040.56 2888.39 1040.56 2890.7 1042.87 2890.7 1045.72Z" fill="#C55A11"/></g></g></g><path d="M2296.5 274.5 2626.5 274.5 2626.5 604.5 2296.5 604.5Z" stroke="#E2F0D9" stroke-width="4.58333" stroke-miterlimit="8" fill-rule="evenodd"/><path d="M2406.15 431.044C2404.55 431.044 2403.11 431.449 2401.83 432.26 2400.55 433.07 2399.53 434.32 2398.77 436.009 2398.01 437.697 2397.63 439.784 2397.63 442.27 2397.63 444.999 2398.03 447.241 2398.83 448.998 2399.63 450.754 2400.66 452.003 2401.93 452.746 2403.2 453.489 2404.61 453.861 2406.15 453.861 2408.47 453.861 2410.68 452.936 2412.77 451.085 2414.87 449.234 2416.94 446.377 2418.99 442.513 2416.61 438.38 2414.43 435.435 2412.43 433.678 2410.43 431.922 2408.33 431.044 2406.15 431.044ZM2439.42 422.25C2440.77 422.25 2441.93 422.371 2442.9 422.614L2441.61 428.896C2440.8 428.761 2440.04 428.693 2439.34 428.693 2437.5 428.693 2435.86 429.112 2434.41 429.95 2432.97 430.787 2431.5 432.165 2430 434.084 2428.5 436.002 2426.69 438.812 2424.59 442.513 2425.91 445.08 2427.2 447.275 2428.46 449.099 2429.71 450.923 2430.91 452.341 2432.06 453.354 2433.21 454.368 2434.37 455.111 2435.53 455.583 2436.69 456.056 2437.97 456.293 2439.38 456.293 2440.22 456.293 2440.94 456.239 2441.57 456.13L2442.94 462.047C2441.21 462.48 2439.65 462.696 2438.24 462.696 2434.78 462.696 2431.77 461.494 2429.21 459.089 2426.64 456.684 2424.17 452.861 2421.79 447.62 2419.14 452.105 2416.55 455.333 2414.03 457.306 2411.5 459.278 2408.74 460.264 2405.74 460.264 2403.17 460.264 2400.9 459.481 2398.91 457.914 2396.93 456.347 2395.4 454.219 2394.33 451.531 2393.26 448.842 2392.73 445.864 2392.73 442.594 2392.73 439.271 2393.33 436.211 2394.51 433.415 2395.7 430.619 2397.31 428.457 2399.34 426.931 2401.36 425.404 2403.63 424.641 2406.15 424.641 2408.28 424.641 2410.16 425.053 2411.8 425.877 2413.43 426.701 2415.01 427.991 2416.54 429.747 2418.07 431.503 2419.82 434.057 2421.79 437.407 2423.6 433.949 2425.36 431.091 2427.08 428.835 2428.79 426.579 2430.6 424.918 2432.51 423.85 2434.41 422.783 2436.72 422.25 2439.42 422.25Z" fill="#FFFFFF" fill-rule="evenodd"/><text fill="#000000" fill-opacity="0" font-family="Arial,Arial_MSFontService,sans-serif" font-size="40.4463" x="2392.73" y="457.64">∝</text><path d="M2492.03 413.658C2490.17 413.658 2488.61 414.212 2487.35 415.319 2486.1 416.427 2485.08 418.021 2484.31 420.102 2483.54 422.182 2483 424.715 2482.67 427.701 2482.35 430.686 2482.18 434.057 2482.18 437.812 2482.18 446.62 2483 453.084 2484.64 457.204 2486.27 461.325 2488.8 463.385 2492.24 463.385 2495.5 463.385 2497.93 461.446 2499.51 457.569 2501.09 453.692 2501.88 447.687 2501.88 439.555 2501.88 433.341 2501.48 428.308 2500.67 424.458 2499.85 420.608 2498.73 417.846 2497.28 416.171 2495.84 414.495 2494.09 413.658 2492.03 413.658ZM2492.24 410.213C2498.15 410.213 2502.56 412.496 2505.45 417.062 2508.34 421.628 2509.78 428.531 2509.78 437.772 2509.78 447.336 2508.24 454.57 2505.14 459.474 2502.05 464.378 2497.53 466.83 2491.59 466.83 2485.75 466.83 2481.41 464.533 2478.56 459.94 2475.71 455.347 2474.28 448.376 2474.28 439.028 2474.28 434.057 2474.72 429.761 2475.6 426.14 2476.48 422.52 2477.71 419.528 2479.29 417.163 2480.87 414.799 2482.77 413.05 2484.98 411.915 2487.2 410.78 2489.61 410.213 2492.24 410.213Z" fill="#FFFFFF" fill-rule="evenodd"/><text fill="#000000" fill-opacity="0" font-family="Arial,Arial_MSFontService,sans-serif" font-size="56.6167" x="2474.28" y="459.753">0</text><path d="M2626.5 274.5 2956.5 274.5 2956.5 604.5 2626.5 604.5Z" stroke="#E2F0D9" stroke-width="4.58333" stroke-miterlimit="8" fill-rule="evenodd"/><path d="M2736.15 431.044C2734.55 431.044 2733.11 431.449 2731.83 432.26 2730.55 433.07 2729.53 434.32 2728.77 436.009 2728.01 437.697 2727.63 439.784 2727.63 442.27 2727.63 444.999 2728.03 447.241 2728.83 448.998 2729.63 450.754 2730.66 452.003 2731.93 452.746 2733.2 453.489 2734.61 453.861 2736.15 453.861 2738.47 453.861 2740.68 452.936 2742.77 451.085 2744.87 449.234 2746.94 446.377 2748.99 442.513 2746.61 438.38 2744.43 435.435 2742.43 433.678 2740.43 431.922 2738.33 431.044 2736.15 431.044ZM2769.42 422.25C2770.77 422.25 2771.93 422.371 2772.9 422.614L2771.61 428.896C2770.8 428.761 2770.04 428.693 2769.34 428.693 2767.5 428.693 2765.86 429.112 2764.41 429.95 2762.97 430.787 2761.5 432.165 2760 434.084 2758.5 436.002 2756.69 438.812 2754.59 442.513 2755.91 445.08 2757.2 447.275 2758.46 449.099 2759.71 450.923 2760.91 452.341 2762.06 453.354 2763.21 454.368 2764.37 455.111 2765.53 455.583 2766.69 456.056 2767.97 456.293 2769.38 456.293 2770.22 456.293 2770.94 456.239 2771.57 456.13L2772.94 462.047C2771.21 462.48 2769.65 462.696 2768.24 462.696 2764.78 462.696 2761.77 461.494 2759.21 459.089 2756.64 456.684 2754.17 452.861 2751.79 447.62 2749.14 452.105 2746.55 455.333 2744.03 457.306 2741.5 459.278 2738.74 460.264 2735.74 460.264 2733.17 460.264 2730.9 459.481 2728.91 457.914 2726.93 456.347 2725.4 454.219 2724.33 451.531 2723.26 448.842 2722.73 445.864 2722.73 442.594 2722.73 439.271 2723.33 436.211 2724.51 433.415 2725.7 430.619 2727.31 428.457 2729.34 426.931 2731.36 425.404 2733.63 424.641 2736.15 424.641 2738.28 424.641 2740.16 425.053 2741.8 425.877 2743.43 426.701 2745.01 427.991 2746.54 429.747 2748.07 431.503 2749.82 434.057 2751.79 437.407 2753.6 433.949 2755.36 431.091 2757.08 428.835 2758.79 426.579 2760.6 424.918 2762.51 423.85 2764.41 422.783 2766.72 422.25 2769.42 422.25Z" fill="#FFFFFF" fill-rule="evenodd"/><text fill="#000000" fill-opacity="0" font-family="Arial,Arial_MSFontService,sans-serif" font-size="40.4463" x="2722.73" y="457.64">∝</text><path d="M2822.03 413.658C2820.17 413.658 2818.61 414.212 2817.35 415.319 2816.1 416.427 2815.08 418.021 2814.31 420.102 2813.54 422.182 2813 424.715 2812.67 427.701 2812.35 430.686 2812.18 434.057 2812.18 437.812 2812.18 446.62 2813 453.084 2814.64 457.204 2816.27 461.325 2818.8 463.385 2822.24 463.385 2825.5 463.385 2827.93 461.446 2829.51 457.569 2831.09 453.692 2831.88 447.687 2831.88 439.555 2831.88 433.341 2831.48 428.308 2830.67 424.458 2829.85 420.608 2828.73 417.846 2827.28 416.171 2825.84 414.495 2824.09 413.658 2822.03 413.658ZM2822.24 410.213C2828.15 410.213 2832.56 412.496 2835.45 417.062 2838.34 421.628 2839.78 428.531 2839.78 437.772 2839.78 447.336 2838.24 454.57 2835.14 459.474 2832.05 464.378 2827.53 466.83 2821.59 466.83 2815.75 466.83 2811.41 464.533 2808.56 459.94 2805.71 455.347 2804.28 448.376 2804.28 439.028 2804.28 434.057 2804.72 429.761 2805.6 426.14 2806.48 422.52 2807.71 419.528 2809.29 417.163 2810.87 414.799 2812.77 413.05 2814.98 411.915 2817.2 410.78 2819.61 410.213 2822.24 410.213Z" fill="#FFFFFF" fill-rule="evenodd"/><text fill="#000000" fill-opacity="0" font-family="Arial,Arial_MSFontService,sans-serif" font-size="56.6167" x="2804.28" y="459.753">0</text><path d="M2956 274 3286 274 3286 604 2956 604Z" fill="#AFABAB" fill-rule="evenodd"/><path d="M3066.15 431.044C3064.55 431.044 3063.11 431.449 3061.83 432.26 3060.55 433.07 3059.53 434.32 3058.77 436.009 3058.01 437.697 3057.63 439.784 3057.63 442.27 3057.63 444.999 3058.03 447.241 3058.83 448.998 3059.63 450.754 3060.66 452.003 3061.93 452.746 3063.2 453.489 3064.61 453.861 3066.15 453.861 3068.47 453.861 3070.68 452.936 3072.77 451.085 3074.87 449.234 3076.94 446.377 3078.99 442.513 3076.61 438.38 3074.43 435.435 3072.43 433.678 3070.43 431.922 3068.33 431.044 3066.15 431.044ZM3099.42 422.25C3100.77 422.25 3101.93 422.371 3102.9 422.614L3101.61 428.896C3100.8 428.761 3100.04 428.693 3099.34 428.693 3097.5 428.693 3095.86 429.112 3094.41 429.95 3092.97 430.787 3091.5 432.165 3090 434.084 3088.5 436.002 3086.69 438.812 3084.59 442.513 3085.91 445.08 3087.2 447.275 3088.46 449.099 3089.71 450.923 3090.91 452.341 3092.06 453.354 3093.21 454.368 3094.37 455.111 3095.53 455.583 3096.69 456.056 3097.97 456.293 3099.38 456.293 3100.22 456.293 3100.94 456.239 3101.57 456.13L3102.94 462.047C3101.21 462.48 3099.65 462.696 3098.24 462.696 3094.78 462.696 3091.77 461.494 3089.21 459.089 3086.64 456.684 3084.17 452.861 3081.79 447.62 3079.14 452.105 3076.55 455.333 3074.03 457.306 3071.5 459.278 3068.74 460.264 3065.74 460.264 3063.17 460.264 3060.9 459.481 3058.91 457.914 3056.93 456.347 3055.4 454.219 3054.33 451.531 3053.26 448.842 3052.73 445.864 3052.73 442.594 3052.73 439.271 3053.33 436.211 3054.51 433.415 3055.7 430.619 3057.31 428.457 3059.34 426.931 3061.36 425.404 3063.63 424.641 3066.15 424.641 3068.28 424.641 3070.16 425.053 3071.8 425.877 3073.43 426.701 3075.01 427.991 3076.54 429.747 3078.07 431.503 3079.82 434.057 3081.79 437.407 3083.6 433.949 3085.36 431.091 3087.08 428.835 3088.79 426.579 3090.6 424.918 3092.51 423.85 3094.41 422.783 3096.72 422.25 3099.42 422.25Z" fill="#FFFFFF" fill-rule="evenodd"/><text fill="#000000" fill-opacity="0" font-family="Arial,Arial_MSFontService,sans-serif" font-size="40.4463" x="3052.73" y="457.64">∝</text><path d="M3152.03 413.658C3150.17 413.658 3148.61 414.212 3147.35 415.319 3146.1 416.427 3145.08 418.021 3144.31 420.102 3143.54 422.182 3143 424.715 3142.67 427.701 3142.35 430.686 3142.18 434.057 3142.18 437.812 3142.18 446.62 3143 453.084 3144.64 457.204 3146.27 461.325 3148.8 463.385 3152.24 463.385 3155.5 463.385 3157.93 461.446 3159.51 457.569 3161.09 453.692 3161.88 447.687 3161.88 439.555 3161.88 433.341 3161.48 428.308 3160.67 424.458 3159.85 420.608 3158.73 417.846 3157.28 416.171 3155.84 414.495 3154.09 413.658 3152.03 413.658ZM3152.24 410.213C3158.15 410.213 3162.56 412.496 3165.45 417.062 3168.34 421.628 3169.78 428.531 3169.78 437.772 3169.78 447.336 3168.24 454.57 3165.14 459.474 3162.05 464.378 3157.53 466.83 3151.59 466.83 3145.75 466.83 3141.41 464.533 3138.56 459.94 3135.71 455.347 3134.28 448.376 3134.28 439.028 3134.28 434.057 3134.72 429.761 3135.6 426.14 3136.48 422.52 3137.71 419.528 3139.29 417.163 3140.87 414.799 3142.77 413.05 3144.98 411.915 3147.2 410.78 3149.61 410.213 3152.24 410.213Z" fill="#FFFFFF" fill-rule="evenodd"/><text fill="#000000" fill-opacity="0" font-family="Arial,Arial_MSFontService,sans-serif" font-size="56.6167" x="3134.28" y="459.753">0</text><path d="M2296.5 1594.5 2626.5 1594.5 2626.5 1924.5 2296.5 1924.5Z" stroke="#E2F0D9" stroke-width="4.58333" stroke-miterlimit="8" fill-rule="evenodd"/><path d="M2406.15 1751.04C2404.55 1751.04 2403.11 1751.45 2401.83 1752.26 2400.55 1753.07 2399.53 1754.32 2398.77 1756.01 2398.01 1757.7 2397.63 1759.78 2397.63 1762.27 2397.63 1765 2398.03 1767.24 2398.83 1769 2399.63 1770.75 2400.66 1772 2401.93 1772.75 2403.2 1773.49 2404.61 1773.86 2406.15 1773.86 2408.47 1773.86 2410.68 1772.94 2412.77 1771.08 2414.87 1769.23 2416.94 1766.38 2418.99 1762.51 2416.61 1758.38 2414.43 1755.43 2412.43 1753.68 2410.43 1751.92 2408.33 1751.04 2406.15 1751.04ZM2439.42 1742.25C2440.77 1742.25 2441.93 1742.37 2442.9 1742.61L2441.61 1748.9C2440.8 1748.76 2440.04 1748.69 2439.34 1748.69 2437.5 1748.69 2435.86 1749.11 2434.41 1749.95 2432.97 1750.79 2431.5 1752.17 2430 1754.08 2428.5 1756 2426.69 1758.81 2424.59 1762.51 2425.91 1765.08 2427.2 1767.28 2428.46 1769.1 2429.71 1770.92 2430.91 1772.34 2432.06 1773.35 2433.21 1774.37 2434.37 1775.11 2435.53 1775.58 2436.69 1776.06 2437.97 1776.29 2439.38 1776.29 2440.22 1776.29 2440.94 1776.24 2441.57 1776.13L2442.94 1782.05C2441.21 1782.48 2439.65 1782.7 2438.24 1782.7 2434.78 1782.7 2431.77 1781.49 2429.21 1779.09 2426.64 1776.68 2424.17 1772.86 2421.79 1767.62 2419.14 1772.1 2416.55 1775.33 2414.03 1777.31 2411.5 1779.28 2408.74 1780.26 2405.74 1780.26 2403.17 1780.26 2400.9 1779.48 2398.91 1777.91 2396.93 1776.35 2395.4 1774.22 2394.33 1771.53 2393.26 1768.84 2392.73 1765.86 2392.73 1762.59 2392.73 1759.27 2393.33 1756.21 2394.51 1753.41 2395.7 1750.62 2397.31 1748.46 2399.34 1746.93 2401.36 1745.4 2403.63 1744.64 2406.15 1744.64 2408.28 1744.64 2410.16 1745.05 2411.8 1745.88 2413.43 1746.7 2415.01 1747.99 2416.54 1749.75 2418.07 1751.5 2419.82 1754.06 2421.79 1757.41 2423.6 1753.95 2425.36 1751.09 2427.08 1748.84 2428.79 1746.58 2430.6 1744.92 2432.51 1743.85 2434.41 1742.78 2436.72 1742.25 2439.42 1742.25Z" fill="#FFFFFF" fill-rule="evenodd"/><text fill="#000000" fill-opacity="0" font-family="Arial,Arial_MSFontService,sans-serif" font-size="40.4463" x="2392.73" y="1777.64">∝</text><path d="M2492.03 1733.66C2490.17 1733.66 2488.61 1734.21 2487.35 1735.32 2486.1 1736.43 2485.08 1738.02 2484.31 1740.1 2483.54 1742.18 2483 1744.71 2482.67 1747.7 2482.35 1750.69 2482.18 1754.06 2482.18 1757.81 2482.18 1766.62 2483 1773.08 2484.64 1777.2 2486.27 1781.32 2488.8 1783.38 2492.24 1783.38 2495.5 1783.38 2497.93 1781.45 2499.51 1777.57 2501.09 1773.69 2501.88 1767.69 2501.88 1759.55 2501.88 1753.34 2501.48 1748.31 2500.67 1744.46 2499.85 1740.61 2498.73 1737.85 2497.28 1736.17 2495.84 1734.5 2494.09 1733.66 2492.03 1733.66ZM2492.24 1730.21C2498.15 1730.21 2502.56 1732.5 2505.45 1737.06 2508.34 1741.63 2509.78 1748.53 2509.78 1757.77 2509.78 1767.34 2508.24 1774.57 2505.14 1779.47 2502.05 1784.38 2497.53 1786.83 2491.59 1786.83 2485.75 1786.83 2481.41 1784.53 2478.56 1779.94 2475.71 1775.35 2474.28 1768.38 2474.28 1759.03 2474.28 1754.06 2474.72 1749.76 2475.6 1746.14 2476.48 1742.52 2477.71 1739.53 2479.29 1737.16 2480.87 1734.8 2482.77 1733.05 2484.98 1731.92 2487.2 1730.78 2489.61 1730.21 2492.24 1730.21Z" fill="#FFFFFF" fill-rule="evenodd"/><text fill="#000000" fill-opacity="0" font-family="Arial,Arial_MSFontService,sans-serif" font-size="56.6167" x="2474.28" y="1779.75">0</text><path d="M2626.5 1594.5 2956.5 1594.5 2956.5 1924.5 2626.5 1924.5Z" stroke="#E2F0D9" stroke-width="4.58333" stroke-miterlimit="8" fill-rule="evenodd"/><path d="M2736.15 1751.04C2734.55 1751.04 2733.11 1751.45 2731.83 1752.26 2730.55 1753.07 2729.53 1754.32 2728.77 1756.01 2728.01 1757.7 2727.63 1759.78 2727.63 1762.27 2727.63 1765 2728.03 1767.24 2728.83 1769 2729.63 1770.75 2730.66 1772 2731.93 1772.75 2733.2 1773.49 2734.61 1773.86 2736.15 1773.86 2738.47 1773.86 2740.68 1772.94 2742.77 1771.08 2744.87 1769.23 2746.94 1766.38 2748.99 1762.51 2746.61 1758.38 2744.43 1755.43 2742.43 1753.68 2740.43 1751.92 2738.33 1751.04 2736.15 1751.04ZM2769.42 1742.25C2770.77 1742.25 2771.93 1742.37 2772.9 1742.61L2771.61 1748.9C2770.8 1748.76 2770.04 1748.69 2769.34 1748.69 2767.5 1748.69 2765.86 1749.11 2764.41 1749.95 2762.97 1750.79 2761.5 1752.17 2760 1754.08 2758.5 1756 2756.69 1758.81 2754.59 1762.51 2755.91 1765.08 2757.2 1767.28 2758.46 1769.1 2759.71 1770.92 2760.91 1772.34 2762.06 1773.35 2763.21 1774.37 2764.37 1775.11 2765.53 1775.58 2766.69 1776.06 2767.97 1776.29 2769.38 1776.29 2770.22 1776.29 2770.94 1776.24 2771.57 1776.13L2772.94 1782.05C2771.21 1782.48 2769.65 1782.7 2768.24 1782.7 2764.78 1782.7 2761.77 1781.49 2759.21 1779.09 2756.64 1776.68 2754.17 1772.86 2751.79 1767.62 2749.14 1772.1 2746.55 1775.33 2744.03 1777.31 2741.5 1779.28 2738.74 1780.26 2735.74 1780.26 2733.17 1780.26 2730.9 1779.48 2728.91 1777.91 2726.93 1776.35 2725.4 1774.22 2724.33 1771.53 2723.26 1768.84 2722.73 1765.86 2722.73 1762.59 2722.73 1759.27 2723.33 1756.21 2724.51 1753.41 2725.7 1750.62 2727.31 1748.46 2729.34 1746.93 2731.36 1745.4 2733.63 1744.64 2736.15 1744.64 2738.28 1744.64 2740.16 1745.05 2741.8 1745.88 2743.43 1746.7 2745.01 1747.99 2746.54 1749.75 2748.07 1751.5 2749.82 1754.06 2751.79 1757.41 2753.6 1753.95 2755.36 1751.09 2757.08 1748.84 2758.79 1746.58 2760.6 1744.92 2762.51 1743.85 2764.41 1742.78 2766.72 1742.25 2769.42 1742.25Z" fill="#FFFFFF" fill-rule="evenodd"/><text fill="#000000" fill-opacity="0" font-family="Arial,Arial_MSFontService,sans-serif" font-size="40.4463" x="2722.73" y="1777.64">∝</text><path d="M2822.03 1733.66C2820.17 1733.66 2818.61 1734.21 2817.35 1735.32 2816.1 1736.43 2815.08 1738.02 2814.31 1740.1 2813.54 1742.18 2813 1744.71 2812.67 1747.7 2812.35 1750.69 2812.18 1754.06 2812.18 1757.81 2812.18 1766.62 2813 1773.08 2814.64 1777.2 2816.27 1781.32 2818.8 1783.38 2822.24 1783.38 2825.5 1783.38 2827.93 1781.45 2829.51 1777.57 2831.09 1773.69 2831.88 1767.69 2831.88 1759.55 2831.88 1753.34 2831.48 1748.31 2830.67 1744.46 2829.85 1740.61 2828.73 1737.85 2827.28 1736.17 2825.84 1734.5 2824.09 1733.66 2822.03 1733.66ZM2822.24 1730.21C2828.15 1730.21 2832.56 1732.5 2835.45 1737.06 2838.34 1741.63 2839.78 1748.53 2839.78 1757.77 2839.78 1767.34 2838.24 1774.57 2835.14 1779.47 2832.05 1784.38 2827.53 1786.83 2821.59 1786.83 2815.75 1786.83 2811.41 1784.53 2808.56 1779.94 2805.71 1775.35 2804.28 1768.38 2804.28 1759.03 2804.28 1754.06 2804.72 1749.76 2805.6 1746.14 2806.48 1742.52 2807.71 1739.53 2809.29 1737.16 2810.87 1734.8 2812.77 1733.05 2814.98 1731.92 2817.2 1730.78 2819.61 1730.21 2822.24 1730.21Z" fill="#FFFFFF" fill-rule="evenodd"/><text fill="#000000" fill-opacity="0" font-family="Arial,Arial_MSFontService,sans-serif" font-size="56.6167" x="2804.28" y="1779.75">0</text><path d="M2956 1594 3286 1594 3286 1924 2956 1924Z" fill="#AFABAB" fill-rule="evenodd"/><path d="M3066.15 1751.04C3064.55 1751.04 3063.11 1751.45 3061.83 1752.26 3060.55 1753.07 3059.53 1754.32 3058.77 1756.01 3058.01 1757.7 3057.63 1759.78 3057.63 1762.27 3057.63 1765 3058.03 1767.24 3058.83 1769 3059.63 1770.75 3060.66 1772 3061.93 1772.75 3063.2 1773.49 3064.61 1773.86 3066.15 1773.86 3068.47 1773.86 3070.68 1772.94 3072.77 1771.08 3074.87 1769.23 3076.94 1766.38 3078.99 1762.51 3076.61 1758.38 3074.43 1755.43 3072.43 1753.68 3070.43 1751.92 3068.33 1751.04 3066.15 1751.04ZM3099.42 1742.25C3100.77 1742.25 3101.93 1742.37 3102.9 1742.61L3101.61 1748.9C3100.8 1748.76 3100.04 1748.69 3099.34 1748.69 3097.5 1748.69 3095.86 1749.11 3094.41 1749.95 3092.97 1750.79 3091.5 1752.17 3090 1754.08 3088.5 1756 3086.69 1758.81 3084.59 1762.51 3085.91 1765.08 3087.2 1767.28 3088.46 1769.1 3089.71 1770.92 3090.91 1772.34 3092.06 1773.35 3093.21 1774.37 3094.37 1775.11 3095.53 1775.58 3096.69 1776.06 3097.97 1776.29 3099.38 1776.29 3100.22 1776.29 3100.94 1776.24 3101.57 1776.13L3102.94 1782.05C3101.21 1782.48 3099.65 1782.7 3098.24 1782.7 3094.78 1782.7 3091.77 1781.49 3089.21 1779.09 3086.64 1776.68 3084.17 1772.86 3081.79 1767.62 3079.14 1772.1 3076.55 1775.33 3074.03 1777.31 3071.5 1779.28 3068.74 1780.26 3065.74 1780.26 3063.17 1780.26 3060.9 1779.48 3058.91 1777.91 3056.93 1776.35 3055.4 1774.22 3054.33 1771.53 3053.26 1768.84 3052.73 1765.86 3052.73 1762.59 3052.73 1759.27 3053.33 1756.21 3054.51 1753.41 3055.7 1750.62 3057.31 1748.46 3059.34 1746.93 3061.36 1745.4 3063.63 1744.64 3066.15 1744.64 3068.28 1744.64 3070.16 1745.05 3071.8 1745.88 3073.43 1746.7 3075.01 1747.99 3076.54 1749.75 3078.07 1751.5 3079.82 1754.06 3081.79 1757.41 3083.6 1753.95 3085.36 1751.09 3087.08 1748.84 3088.79 1746.58 3090.6 1744.92 3092.51 1743.85 3094.41 1742.78 3096.72 1742.25 3099.42 1742.25Z" fill="#FFFFFF" fill-rule="evenodd"/><text fill="#000000" fill-opacity="0" font-family="Arial,Arial_MSFontService,sans-serif" font-size="40.4463" x="3052.73" y="1777.64">∝</text><path d="M3152.03 1733.66C3150.17 1733.66 3148.61 1734.21 3147.35 1735.32 3146.1 1736.43 3145.08 1738.02 3144.31 1740.1 3143.54 1742.18 3143 1744.71 3142.67 1747.7 3142.35 1750.69 3142.18 1754.06 3142.18 1757.81 3142.18 1766.62 3143 1773.08 3144.64 1777.2 3146.27 1781.32 3148.8 1783.38 3152.24 1783.38 3155.5 1783.38 3157.93 1781.45 3159.51 1777.57 3161.09 1773.69 3161.88 1767.69 3161.88 1759.55 3161.88 1753.34 3161.48 1748.31 3160.67 1744.46 3159.85 1740.61 3158.73 1737.85 3157.28 1736.17 3155.84 1734.5 3154.09 1733.66 3152.03 1733.66ZM3152.24 1730.21C3158.15 1730.21 3162.56 1732.5 3165.45 1737.06 3168.34 1741.63 3169.78 1748.53 3169.78 1757.77 3169.78 1767.34 3168.24 1774.57 3165.14 1779.47 3162.05 1784.38 3157.53 1786.83 3151.59 1786.83 3145.75 1786.83 3141.41 1784.53 3138.56 1779.94 3135.71 1775.35 3134.28 1768.38 3134.28 1759.03 3134.28 1754.06 3134.72 1749.76 3135.6 1746.14 3136.48 1742.52 3137.71 1739.53 3139.29 1737.16 3140.87 1734.8 3142.77 1733.05 3144.98 1731.92 3147.2 1730.78 3149.61 1730.21 3152.24 1730.21Z" fill="#FFFFFF" fill-rule="evenodd"/><text fill="#000000" fill-opacity="0" font-family="Arial,Arial_MSFontService,sans-serif" font-size="56.6167" x="3134.28" y="1779.75">0</text><path d="M3286.5 934.5 3616.5 934.5 3616.5 1264.5 3286.5 1264.5Z" stroke="#E2F0D9" stroke-width="4.58333" stroke-miterlimit="8" fill-rule="evenodd"/><path d="M3396.15 1091.04C3394.55 1091.04 3393.11 1091.45 3391.83 1092.26 3390.55 1093.07 3389.53 1094.32 3388.77 1096.01 3388.01 1097.7 3387.63 1099.78 3387.63 1102.27 3387.63 1105 3388.03 1107.24 3388.83 1109 3389.63 1110.75 3390.66 1112 3391.93 1112.75 3393.2 1113.49 3394.61 1113.86 3396.15 1113.86 3398.47 1113.86 3400.68 1112.94 3402.77 1111.08 3404.87 1109.23 3406.94 1106.38 3408.99 1102.51 3406.61 1098.38 3404.43 1095.43 3402.43 1093.68 3400.43 1091.92 3398.33 1091.04 3396.15 1091.04ZM3429.42 1082.25C3430.77 1082.25 3431.93 1082.37 3432.9 1082.61L3431.61 1088.9C3430.8 1088.76 3430.04 1088.69 3429.34 1088.69 3427.5 1088.69 3425.86 1089.11 3424.41 1089.95 3422.97 1090.79 3421.5 1092.17 3420 1094.08 3418.5 1096 3416.69 1098.81 3414.59 1102.51 3415.91 1105.08 3417.2 1107.28 3418.46 1109.1 3419.71 1110.92 3420.91 1112.34 3422.06 1113.35 3423.21 1114.37 3424.37 1115.11 3425.53 1115.58 3426.69 1116.06 3427.97 1116.29 3429.38 1116.29 3430.22 1116.29 3430.94 1116.24 3431.57 1116.13L3432.94 1122.05C3431.21 1122.48 3429.65 1122.7 3428.24 1122.7 3424.78 1122.7 3421.77 1121.49 3419.21 1119.09 3416.64 1116.68 3414.17 1112.86 3411.79 1107.62 3409.14 1112.1 3406.55 1115.33 3404.03 1117.31 3401.5 1119.28 3398.74 1120.26 3395.74 1120.26 3393.17 1120.26 3390.9 1119.48 3388.91 1117.91 3386.93 1116.35 3385.4 1114.22 3384.33 1111.53 3383.26 1108.84 3382.73 1105.86 3382.73 1102.59 3382.73 1099.27 3383.33 1096.21 3384.51 1093.41 3385.7 1090.62 3387.31 1088.46 3389.34 1086.93 3391.36 1085.4 3393.63 1084.64 3396.15 1084.64 3398.28 1084.64 3400.16 1085.05 3401.8 1085.88 3403.43 1086.7 3405.01 1087.99 3406.54 1089.75 3408.07 1091.5 3409.82 1094.06 3411.79 1097.41 3413.6 1093.95 3415.36 1091.09 3417.08 1088.84 3418.79 1086.58 3420.6 1084.92 3422.51 1083.85 3424.41 1082.78 3426.72 1082.25 3429.42 1082.25Z" fill="#FFFFFF" fill-rule="evenodd"/><text fill="#000000" fill-opacity="0" font-family="Arial,Arial_MSFontService,sans-serif" font-size="40.4463" x="3382.73" y="1117.64">∝</text><path d="M3482.03 1073.66C3480.17 1073.66 3478.61 1074.21 3477.35 1075.32 3476.1 1076.43 3475.08 1078.02 3474.31 1080.1 3473.54 1082.18 3473 1084.72 3472.67 1087.7 3472.35 1090.69 3472.18 1094.06 3472.18 1097.81 3472.18 1106.62 3473 1113.08 3474.64 1117.2 3476.27 1121.32 3478.8 1123.38 3482.24 1123.38 3485.5 1123.38 3487.93 1121.45 3489.51 1117.57 3491.09 1113.69 3491.88 1107.69 3491.88 1099.55 3491.88 1093.34 3491.48 1088.31 3490.67 1084.46 3489.85 1080.61 3488.73 1077.85 3487.28 1076.17 3485.84 1074.5 3484.09 1073.66 3482.03 1073.66ZM3482.24 1070.21C3488.15 1070.21 3492.56 1072.5 3495.45 1077.06 3498.34 1081.63 3499.78 1088.53 3499.78 1097.77 3499.78 1107.34 3498.24 1114.57 3495.14 1119.47 3492.05 1124.38 3487.53 1126.83 3481.59 1126.83 3475.75 1126.83 3471.41 1124.53 3468.56 1119.94 3465.71 1115.35 3464.28 1108.38 3464.28 1099.03 3464.28 1094.06 3464.72 1089.76 3465.6 1086.14 3466.48 1082.52 3467.71 1079.53 3469.29 1077.16 3470.87 1074.8 3472.77 1073.05 3474.98 1071.92 3477.2 1070.78 3479.61 1070.21 3482.24 1070.21Z" fill="#FFFFFF" fill-rule="evenodd"/><text fill="#000000" fill-opacity="0" font-family="Arial,Arial_MSFontService,sans-serif" font-size="56.6167" x="3464.28" y="1119.75">0</text><path d="M3286.5 1264.5 3616.5 1264.5 3616.5 1594.5 3286.5 1594.5Z" stroke="#E2F0D9" stroke-width="4.58333" stroke-miterlimit="8" fill-rule="evenodd"/><path d="M3396.15 1421.04C3394.55 1421.04 3393.11 1421.45 3391.83 1422.26 3390.55 1423.07 3389.53 1424.32 3388.77 1426.01 3388.01 1427.7 3387.63 1429.78 3387.63 1432.27 3387.63 1435 3388.03 1437.24 3388.83 1439 3389.63 1440.75 3390.66 1442 3391.93 1442.75 3393.2 1443.49 3394.61 1443.86 3396.15 1443.86 3398.47 1443.86 3400.68 1442.94 3402.77 1441.08 3404.87 1439.23 3406.94 1436.38 3408.99 1432.51 3406.61 1428.38 3404.43 1425.43 3402.43 1423.68 3400.43 1421.92 3398.33 1421.04 3396.15 1421.04ZM3429.42 1412.25C3430.77 1412.25 3431.93 1412.37 3432.9 1412.61L3431.61 1418.9C3430.8 1418.76 3430.04 1418.69 3429.34 1418.69 3427.5 1418.69 3425.86 1419.11 3424.41 1419.95 3422.97 1420.79 3421.5 1422.17 3420 1424.08 3418.5 1426 3416.69 1428.81 3414.59 1432.51 3415.91 1435.08 3417.2 1437.28 3418.46 1439.1 3419.71 1440.92 3420.91 1442.34 3422.06 1443.35 3423.21 1444.37 3424.37 1445.11 3425.53 1445.58 3426.69 1446.06 3427.97 1446.29 3429.38 1446.29 3430.22 1446.29 3430.94 1446.24 3431.57 1446.13L3432.94 1452.05C3431.21 1452.48 3429.65 1452.7 3428.24 1452.7 3424.78 1452.7 3421.77 1451.49 3419.21 1449.09 3416.64 1446.68 3414.17 1442.86 3411.79 1437.62 3409.14 1442.1 3406.55 1445.33 3404.03 1447.31 3401.5 1449.28 3398.74 1450.26 3395.74 1450.26 3393.17 1450.26 3390.9 1449.48 3388.91 1447.91 3386.93 1446.35 3385.4 1444.22 3384.33 1441.53 3383.26 1438.84 3382.73 1435.86 3382.73 1432.59 3382.73 1429.27 3383.33 1426.21 3384.51 1423.41 3385.7 1420.62 3387.31 1418.46 3389.34 1416.93 3391.36 1415.4 3393.63 1414.64 3396.15 1414.64 3398.28 1414.64 3400.16 1415.05 3401.8 1415.88 3403.43 1416.7 3405.01 1417.99 3406.54 1419.75 3408.07 1421.5 3409.82 1424.06 3411.79 1427.41 3413.6 1423.95 3415.36 1421.09 3417.08 1418.84 3418.79 1416.58 3420.6 1414.92 3422.51 1413.85 3424.41 1412.78 3426.72 1412.25 3429.42 1412.25Z" fill="#FFFFFF" fill-rule="evenodd"/><text fill="#000000" fill-opacity="0" font-family="Arial,Arial_MSFontService,sans-serif" font-size="40.4463" x="3382.73" y="1447.64">∝</text><path d="M3482.03 1403.66C3480.17 1403.66 3478.61 1404.21 3477.35 1405.32 3476.1 1406.43 3475.08 1408.02 3474.31 1410.1 3473.54 1412.18 3473 1414.72 3472.67 1417.7 3472.35 1420.69 3472.18 1424.06 3472.18 1427.81 3472.18 1436.62 3473 1443.08 3474.64 1447.2 3476.27 1451.32 3478.8 1453.38 3482.24 1453.38 3485.5 1453.38 3487.93 1451.45 3489.51 1447.57 3491.09 1443.69 3491.88 1437.69 3491.88 1429.55 3491.88 1423.34 3491.48 1418.31 3490.67 1414.46 3489.85 1410.61 3488.73 1407.85 3487.28 1406.17 3485.84 1404.5 3484.09 1403.66 3482.03 1403.66ZM3482.24 1400.21C3488.15 1400.21 3492.56 1402.5 3495.45 1407.06 3498.34 1411.63 3499.78 1418.53 3499.78 1427.77 3499.78 1437.34 3498.24 1444.57 3495.14 1449.47 3492.05 1454.38 3487.53 1456.83 3481.59 1456.83 3475.75 1456.83 3471.41 1454.53 3468.56 1449.94 3465.71 1445.35 3464.28 1438.38 3464.28 1429.03 3464.28 1424.06 3464.72 1419.76 3465.6 1416.14 3466.48 1412.52 3467.71 1409.53 3469.29 1407.16 3470.87 1404.8 3472.77 1403.05 3474.98 1401.92 3477.2 1400.78 3479.61 1400.21 3482.24 1400.21Z" fill="#FFFFFF" fill-rule="evenodd"/><text fill="#000000" fill-opacity="0" font-family="Arial,Arial_MSFontService,sans-serif" font-size="56.6167" x="3464.28" y="1449.75">0</text><path d="M3286.5 604.5 3616.5 604.5 3616.5 934.5 3286.5 934.5Z" stroke="#E2F0D9" stroke-width="4.58333" stroke-miterlimit="8" fill="#8EC26A" fill-rule="evenodd"/><path d="M3396.15 761.044C3394.55 761.044 3393.11 761.449 3391.83 762.26 3390.55 763.07 3389.53 764.32 3388.77 766.009 3388.01 767.697 3387.63 769.784 3387.63 772.27 3387.63 774.999 3388.03 777.242 3388.83 778.998 3389.63 780.754 3390.66 782.003 3391.93 782.746 3393.2 783.489 3394.61 783.861 3396.15 783.861 3398.47 783.861 3400.68 782.936 3402.77 781.085 3404.87 779.234 3406.94 776.377 3408.99 772.513 3406.61 768.38 3404.43 765.435 3402.43 763.678 3400.43 761.922 3398.33 761.044 3396.15 761.044ZM3429.42 752.25C3430.77 752.25 3431.93 752.371 3432.9 752.614L3431.61 758.896C3430.8 758.761 3430.04 758.693 3429.34 758.693 3427.5 758.693 3425.86 759.112 3424.41 759.95 3422.97 760.787 3421.5 762.165 3420 764.084 3418.5 766.002 3416.69 768.812 3414.59 772.513 3415.91 775.08 3417.2 777.275 3418.46 779.099 3419.71 780.923 3420.91 782.341 3422.06 783.354 3423.21 784.368 3424.37 785.111 3425.53 785.583 3426.69 786.056 3427.97 786.293 3429.38 786.293 3430.22 786.293 3430.94 786.239 3431.57 786.13L3432.94 792.047C3431.21 792.48 3429.65 792.696 3428.24 792.696 3424.78 792.696 3421.77 791.494 3419.21 789.089 3416.64 786.684 3414.17 782.861 3411.79 777.62 3409.14 782.105 3406.55 785.333 3404.03 787.306 3401.5 789.278 3398.74 790.264 3395.74 790.264 3393.17 790.264 3390.9 789.481 3388.91 787.914 3386.93 786.347 3385.4 784.219 3384.33 781.531 3383.26 778.842 3382.73 775.864 3382.73 772.594 3382.73 769.271 3383.33 766.211 3384.51 763.415 3385.7 760.619 3387.31 758.457 3389.34 756.931 3391.36 755.404 3393.63 754.641 3396.15 754.641 3398.28 754.641 3400.16 755.053 3401.8 755.877 3403.43 756.701 3405.01 757.991 3406.54 759.747 3408.07 761.503 3409.82 764.057 3411.79 767.407 3413.6 763.949 3415.36 761.091 3417.08 758.835 3418.79 756.579 3420.6 754.918 3422.51 753.85 3424.41 752.783 3426.72 752.25 3429.42 752.25Z" fill="#FFFFFF" fill-rule="evenodd"/><text fill="#000000" fill-opacity="0" font-family="Arial,Arial_MSFontService,sans-serif" font-size="40.4463" x="3382.73" y="787.64">∝</text><path d="M3482.03 743.658C3480.17 743.658 3478.61 744.212 3477.35 745.319 3476.1 746.427 3475.08 748.021 3474.31 750.102 3473.54 752.182 3473 754.715 3472.67 757.701 3472.35 760.686 3472.18 764.057 3472.18 767.812 3472.18 776.62 3473 783.084 3474.64 787.204 3476.27 791.325 3478.8 793.385 3482.24 793.385 3485.5 793.385 3487.93 791.446 3489.51 787.569 3491.09 783.692 3491.88 777.687 3491.88 769.555 3491.88 763.341 3491.48 758.308 3490.67 754.458 3489.85 750.608 3488.73 747.846 3487.28 746.171 3485.84 744.495 3484.09 743.658 3482.03 743.658ZM3482.24 740.213C3488.15 740.213 3492.56 742.496 3495.45 747.062 3498.34 751.628 3499.78 758.531 3499.78 767.772 3499.78 777.336 3498.24 784.57 3495.14 789.474 3492.05 794.378 3487.53 796.83 3481.59 796.83 3475.75 796.83 3471.41 794.533 3468.56 789.94 3465.71 785.347 3464.28 778.376 3464.28 769.028 3464.28 764.057 3464.72 759.761 3465.6 756.14 3466.48 752.52 3467.71 749.528 3469.29 747.163 3470.87 744.799 3472.77 743.05 3474.98 741.915 3477.2 740.78 3479.61 740.213 3482.24 740.213Z" fill="#FFFFFF" fill-rule="evenodd"/><text fill="#000000" fill-opacity="0" font-family="Arial,Arial_MSFontService,sans-serif" font-size="56.6167" x="3464.28" y="789.753">0</text><path d="M3286.5 274.5 3616.5 274.5 3616.5 604.5 3286.5 604.5Z" stroke="#E2F0D9" stroke-width="4.58333" stroke-miterlimit="8" fill-rule="evenodd"/><path d="M3396.15 431.044C3394.55 431.044 3393.11 431.449 3391.83 432.26 3390.55 433.07 3389.53 434.32 3388.77 436.009 3388.01 437.697 3387.63 439.784 3387.63 442.27 3387.63 444.999 3388.03 447.241 3388.83 448.998 3389.63 450.754 3390.66 452.003 3391.93 452.746 3393.2 453.489 3394.61 453.861 3396.15 453.861 3398.47 453.861 3400.68 452.936 3402.77 451.085 3404.87 449.234 3406.94 446.377 3408.99 442.513 3406.61 438.38 3404.43 435.435 3402.43 433.678 3400.43 431.922 3398.33 431.044 3396.15 431.044ZM3429.42 422.25C3430.77 422.25 3431.93 422.371 3432.9 422.614L3431.61 428.896C3430.8 428.761 3430.04 428.693 3429.34 428.693 3427.5 428.693 3425.86 429.112 3424.41 429.95 3422.97 430.787 3421.5 432.165 3420 434.084 3418.5 436.002 3416.69 438.812 3414.59 442.513 3415.91 445.08 3417.2 447.275 3418.46 449.099 3419.71 450.923 3420.91 452.341 3422.06 453.354 3423.21 454.368 3424.37 455.111 3425.53 455.583 3426.69 456.056 3427.97 456.293 3429.38 456.293 3430.22 456.293 3430.94 456.239 3431.57 456.13L3432.94 462.047C3431.21 462.48 3429.65 462.696 3428.24 462.696 3424.78 462.696 3421.77 461.494 3419.21 459.089 3416.64 456.684 3414.17 452.861 3411.79 447.62 3409.14 452.105 3406.55 455.333 3404.03 457.306 3401.5 459.278 3398.74 460.264 3395.74 460.264 3393.17 460.264 3390.9 459.481 3388.91 457.914 3386.93 456.347 3385.4 454.219 3384.33 451.531 3383.26 448.842 3382.73 445.864 3382.73 442.594 3382.73 439.271 3383.33 436.211 3384.51 433.415 3385.7 430.619 3387.31 428.457 3389.34 426.931 3391.36 425.404 3393.63 424.641 3396.15 424.641 3398.28 424.641 3400.16 425.053 3401.8 425.877 3403.43 426.701 3405.01 427.991 3406.54 429.747 3408.07 431.503 3409.82 434.057 3411.79 437.407 3413.6 433.949 3415.36 431.091 3417.08 428.835 3418.79 426.579 3420.6 424.918 3422.51 423.85 3424.41 422.783 3426.72 422.25 3429.42 422.25Z" fill="#FFFFFF" fill-rule="evenodd"/><text fill="#000000" fill-opacity="0" font-family="Arial,Arial_MSFontService,sans-serif" font-size="40.4463" x="3382.73" y="457.64">∝</text><path d="M3482.03 413.658C3480.17 413.658 3478.61 414.212 3477.35 415.319 3476.1 416.427 3475.08 418.021 3474.31 420.102 3473.54 422.182 3473 424.715 3472.67 427.701 3472.35 430.686 3472.18 434.057 3472.18 437.812 3472.18 446.62 3473 453.084 3474.64 457.204 3476.27 461.325 3478.8 463.385 3482.24 463.385 3485.5 463.385 3487.93 461.446 3489.51 457.569 3491.09 453.692 3491.88 447.687 3491.88 439.555 3491.88 433.341 3491.48 428.308 3490.67 424.458 3489.85 420.608 3488.73 417.846 3487.28 416.171 3485.84 414.495 3484.09 413.658 3482.03 413.658ZM3482.24 410.213C3488.15 410.213 3492.56 412.496 3495.45 417.062 3498.34 421.628 3499.78 428.531 3499.78 437.772 3499.78 447.336 3498.24 454.57 3495.14 459.474 3492.05 464.378 3487.53 466.83 3481.59 466.83 3475.75 466.83 3471.41 464.533 3468.56 459.94 3465.71 455.347 3464.28 448.376 3464.28 439.028 3464.28 434.057 3464.72 429.761 3465.6 426.14 3466.48 422.52 3467.71 419.528 3469.29 417.163 3470.87 414.799 3472.77 413.05 3474.98 411.915 3477.2 410.78 3479.61 410.213 3482.24 410.213Z" fill="#FFFFFF" fill-rule="evenodd"/><text fill="#000000" fill-opacity="0" font-family="Arial,Arial_MSFontService,sans-serif" font-size="56.6167" x="3464.28" y="459.753">0</text><path d="M3286.5 1594.5 3616.5 1594.5 3616.5 1924.5 3286.5 1924.5Z" stroke="#E2F0D9" stroke-width="4.58333" stroke-miterlimit="8" fill-rule="evenodd"/><path d="M3396.15 1751.04C3394.55 1751.04 3393.11 1751.45 3391.83 1752.26 3390.55 1753.07 3389.53 1754.32 3388.77 1756.01 3388.01 1757.7 3387.63 1759.78 3387.63 1762.27 3387.63 1765 3388.03 1767.24 3388.83 1769 3389.63 1770.75 3390.66 1772 3391.93 1772.75 3393.2 1773.49 3394.61 1773.86 3396.15 1773.86 3398.47 1773.86 3400.68 1772.94 3402.77 1771.08 3404.87 1769.23 3406.94 1766.38 3408.99 1762.51 3406.61 1758.38 3404.43 1755.43 3402.43 1753.68 3400.43 1751.92 3398.33 1751.04 3396.15 1751.04ZM3429.42 1742.25C3430.77 1742.25 3431.93 1742.37 3432.9 1742.61L3431.61 1748.9C3430.8 1748.76 3430.04 1748.69 3429.34 1748.69 3427.5 1748.69 3425.86 1749.11 3424.41 1749.95 3422.97 1750.79 3421.5 1752.17 3420 1754.08 3418.5 1756 3416.69 1758.81 3414.59 1762.51 3415.91 1765.08 3417.2 1767.28 3418.46 1769.1 3419.71 1770.92 3420.91 1772.34 3422.06 1773.35 3423.21 1774.37 3424.37 1775.11 3425.53 1775.58 3426.69 1776.06 3427.97 1776.29 3429.38 1776.29 3430.22 1776.29 3430.94 1776.24 3431.57 1776.13L3432.94 1782.05C3431.21 1782.48 3429.65 1782.7 3428.24 1782.7 3424.78 1782.7 3421.77 1781.49 3419.21 1779.09 3416.64 1776.68 3414.17 1772.86 3411.79 1767.62 3409.14 1772.1 3406.55 1775.33 3404.03 1777.31 3401.5 1779.28 3398.74 1780.26 3395.74 1780.26 3393.17 1780.26 3390.9 1779.48 3388.91 1777.91 3386.93 1776.35 3385.4 1774.22 3384.33 1771.53 3383.26 1768.84 3382.73 1765.86 3382.73 1762.59 3382.73 1759.27 3383.33 1756.21 3384.51 1753.41 3385.7 1750.62 3387.31 1748.46 3389.34 1746.93 3391.36 1745.4 3393.63 1744.64 3396.15 1744.64 3398.28 1744.64 3400.16 1745.05 3401.8 1745.88 3403.43 1746.7 3405.01 1747.99 3406.54 1749.75 3408.07 1751.5 3409.82 1754.06 3411.79 1757.41 3413.6 1753.95 3415.36 1751.09 3417.08 1748.84 3418.79 1746.58 3420.6 1744.92 3422.51 1743.85 3424.41 1742.78 3426.72 1742.25 3429.42 1742.25Z" fill="#FFFFFF" fill-rule="evenodd"/><text fill="#000000" fill-opacity="0" font-family="Arial,Arial_MSFontService,sans-serif" font-size="40.4463" x="3382.73" y="1777.64">∝</text><path d="M3482.03 1733.66C3480.17 1733.66 3478.61 1734.21 3477.35 1735.32 3476.1 1736.43 3475.08 1738.02 3474.31 1740.1 3473.54 1742.18 3473 1744.71 3472.67 1747.7 3472.35 1750.69 3472.18 1754.06 3472.18 1757.81 3472.18 1766.62 3473 1773.08 3474.64 1777.2 3476.27 1781.32 3478.8 1783.38 3482.24 1783.38 3485.5 1783.38 3487.93 1781.45 3489.51 1777.57 3491.09 1773.69 3491.88 1767.69 3491.88 1759.55 3491.88 1753.34 3491.48 1748.31 3490.67 1744.46 3489.85 1740.61 3488.73 1737.85 3487.28 1736.17 3485.84 1734.5 3484.09 1733.66 3482.03 1733.66ZM3482.24 1730.21C3488.15 1730.21 3492.56 1732.5 3495.45 1737.06 3498.34 1741.63 3499.78 1748.53 3499.78 1757.77 3499.78 1767.34 3498.24 1774.57 3495.14 1779.47 3492.05 1784.38 3487.53 1786.83 3481.59 1786.83 3475.75 1786.83 3471.41 1784.53 3468.56 1779.94 3465.71 1775.35 3464.28 1768.38 3464.28 1759.03 3464.28 1754.06 3464.72 1749.76 3465.6 1746.14 3466.48 1742.52 3467.71 1739.53 3469.29 1737.16 3470.87 1734.8 3472.77 1733.05 3474.98 1731.92 3477.2 1730.78 3479.61 1730.21 3482.24 1730.21Z" fill="#FFFFFF" fill-rule="evenodd"/><text fill="#000000" fill-opacity="0" font-family="Arial,Arial_MSFontService,sans-serif" font-size="56.6167" x="3464.28" y="1779.75">0</text><path d="M1966.5 934.5 2296.5 934.5 2296.5 1264.5 1966.5 1264.5Z" stroke="#E2F0D9" stroke-width="4.58333" stroke-miterlimit="8" fill-rule="evenodd"/><path d="M2076.15 1091.04C2074.55 1091.04 2073.11 1091.45 2071.83 1092.26 2070.55 1093.07 2069.53 1094.32 2068.77 1096.01 2068.01 1097.7 2067.63 1099.78 2067.63 1102.27 2067.63 1105 2068.03 1107.24 2068.83 1109 2069.63 1110.75 2070.66 1112 2071.93 1112.75 2073.2 1113.49 2074.61 1113.86 2076.15 1113.86 2078.47 1113.86 2080.68 1112.94 2082.77 1111.08 2084.87 1109.23 2086.94 1106.38 2088.99 1102.51 2086.61 1098.38 2084.43 1095.43 2082.43 1093.68 2080.43 1091.92 2078.33 1091.04 2076.15 1091.04ZM2109.42 1082.25C2110.77 1082.25 2111.93 1082.37 2112.9 1082.61L2111.61 1088.9C2110.8 1088.76 2110.04 1088.69 2109.34 1088.69 2107.5 1088.69 2105.86 1089.11 2104.41 1089.95 2102.97 1090.79 2101.5 1092.17 2100 1094.08 2098.5 1096 2096.69 1098.81 2094.59 1102.51 2095.91 1105.08 2097.2 1107.28 2098.46 1109.1 2099.71 1110.92 2100.91 1112.34 2102.06 1113.35 2103.21 1114.37 2104.37 1115.11 2105.53 1115.58 2106.69 1116.06 2107.97 1116.29 2109.38 1116.29 2110.22 1116.29 2110.94 1116.24 2111.57 1116.13L2112.94 1122.05C2111.21 1122.48 2109.65 1122.7 2108.24 1122.7 2104.78 1122.7 2101.77 1121.49 2099.21 1119.09 2096.64 1116.68 2094.17 1112.86 2091.79 1107.62 2089.14 1112.1 2086.55 1115.33 2084.03 1117.31 2081.5 1119.28 2078.74 1120.26 2075.74 1120.26 2073.17 1120.26 2070.9 1119.48 2068.91 1117.91 2066.93 1116.35 2065.4 1114.22 2064.33 1111.53 2063.26 1108.84 2062.73 1105.86 2062.73 1102.59 2062.73 1099.27 2063.33 1096.21 2064.51 1093.41 2065.7 1090.62 2067.31 1088.46 2069.34 1086.93 2071.36 1085.4 2073.63 1084.64 2076.15 1084.64 2078.28 1084.64 2080.16 1085.05 2081.8 1085.88 2083.43 1086.7 2085.01 1087.99 2086.54 1089.75 2088.07 1091.5 2089.82 1094.06 2091.79 1097.41 2093.6 1093.95 2095.36 1091.09 2097.08 1088.84 2098.79 1086.58 2100.6 1084.92 2102.51 1083.85 2104.41 1082.78 2106.72 1082.25 2109.42 1082.25Z" fill="#FFFFFF" fill-rule="evenodd"/><text fill="#000000" fill-opacity="0" font-family="Arial,Arial_MSFontService,sans-serif" font-size="40.4463" x="2062.73" y="1117.64">∝</text><path d="M2162.03 1073.66C2160.17 1073.66 2158.61 1074.21 2157.35 1075.32 2156.1 1076.43 2155.08 1078.02 2154.31 1080.1 2153.54 1082.18 2153 1084.72 2152.67 1087.7 2152.35 1090.69 2152.18 1094.06 2152.18 1097.81 2152.18 1106.62 2153 1113.08 2154.64 1117.2 2156.27 1121.32 2158.8 1123.38 2162.24 1123.38 2165.5 1123.38 2167.93 1121.45 2169.51 1117.57 2171.09 1113.69 2171.88 1107.69 2171.88 1099.55 2171.88 1093.34 2171.48 1088.31 2170.67 1084.46 2169.85 1080.61 2168.73 1077.85 2167.28 1076.17 2165.84 1074.5 2164.09 1073.66 2162.03 1073.66ZM2162.24 1070.21C2168.15 1070.21 2172.56 1072.5 2175.45 1077.06 2178.34 1081.63 2179.78 1088.53 2179.78 1097.77 2179.78 1107.34 2178.24 1114.57 2175.14 1119.47 2172.05 1124.38 2167.53 1126.83 2161.59 1126.83 2155.75 1126.83 2151.41 1124.53 2148.56 1119.94 2145.71 1115.35 2144.28 1108.38 2144.28 1099.03 2144.28 1094.06 2144.72 1089.76 2145.6 1086.14 2146.48 1082.52 2147.71 1079.53 2149.29 1077.16 2150.87 1074.8 2152.77 1073.05 2154.98 1071.92 2157.2 1070.78 2159.61 1070.21 2162.24 1070.21Z" fill="#FFFFFF" fill-rule="evenodd"/><text fill="#000000" fill-opacity="0" font-family="Arial,Arial_MSFontService,sans-serif" font-size="56.6167" x="2144.28" y="1119.75">0</text><path d="M1966.5 1264.5 2296.5 1264.5 2296.5 1594.5 1966.5 1594.5Z" stroke="#E2F0D9" stroke-width="4.58333" stroke-miterlimit="8" fill-rule="evenodd"/><path d="M2076.15 1421.04C2074.55 1421.04 2073.11 1421.45 2071.83 1422.26 2070.55 1423.07 2069.53 1424.32 2068.77 1426.01 2068.01 1427.7 2067.63 1429.78 2067.63 1432.27 2067.63 1435 2068.03 1437.24 2068.83 1439 2069.63 1440.75 2070.66 1442 2071.93 1442.75 2073.2 1443.49 2074.61 1443.86 2076.15 1443.86 2078.47 1443.86 2080.68 1442.94 2082.77 1441.08 2084.87 1439.23 2086.94 1436.38 2088.99 1432.51 2086.61 1428.38 2084.43 1425.43 2082.43 1423.68 2080.43 1421.92 2078.33 1421.04 2076.15 1421.04ZM2109.42 1412.25C2110.77 1412.25 2111.93 1412.37 2112.9 1412.61L2111.61 1418.9C2110.8 1418.76 2110.04 1418.69 2109.34 1418.69 2107.5 1418.69 2105.86 1419.11 2104.41 1419.95 2102.97 1420.79 2101.5 1422.17 2100 1424.08 2098.5 1426 2096.69 1428.81 2094.59 1432.51 2095.91 1435.08 2097.2 1437.28 2098.46 1439.1 2099.71 1440.92 2100.91 1442.34 2102.06 1443.35 2103.21 1444.37 2104.37 1445.11 2105.53 1445.58 2106.69 1446.06 2107.97 1446.29 2109.38 1446.29 2110.22 1446.29 2110.94 1446.24 2111.57 1446.13L2112.94 1452.05C2111.21 1452.48 2109.65 1452.7 2108.24 1452.7 2104.78 1452.7 2101.77 1451.49 2099.21 1449.09 2096.64 1446.68 2094.17 1442.86 2091.79 1437.62 2089.14 1442.1 2086.55 1445.33 2084.03 1447.31 2081.5 1449.28 2078.74 1450.26 2075.74 1450.26 2073.17 1450.26 2070.9 1449.48 2068.91 1447.91 2066.93 1446.35 2065.4 1444.22 2064.33 1441.53 2063.26 1438.84 2062.73 1435.86 2062.73 1432.59 2062.73 1429.27 2063.33 1426.21 2064.51 1423.41 2065.7 1420.62 2067.31 1418.46 2069.34 1416.93 2071.36 1415.4 2073.63 1414.64 2076.15 1414.64 2078.28 1414.64 2080.16 1415.05 2081.8 1415.88 2083.43 1416.7 2085.01 1417.99 2086.54 1419.75 2088.07 1421.5 2089.82 1424.06 2091.79 1427.41 2093.6 1423.95 2095.36 1421.09 2097.08 1418.84 2098.79 1416.58 2100.6 1414.92 2102.51 1413.85 2104.41 1412.78 2106.72 1412.25 2109.42 1412.25Z" fill="#FFFFFF" fill-rule="evenodd"/><text fill="#000000" fill-opacity="0" font-family="Arial,Arial_MSFontService,sans-serif" font-size="40.4463" x="2062.73" y="1447.64">∝</text><path d="M2162.03 1403.66C2160.17 1403.66 2158.61 1404.21 2157.35 1405.32 2156.1 1406.43 2155.08 1408.02 2154.31 1410.1 2153.54 1412.18 2153 1414.72 2152.67 1417.7 2152.35 1420.69 2152.18 1424.06 2152.18 1427.81 2152.18 1436.62 2153 1443.08 2154.64 1447.2 2156.27 1451.32 2158.8 1453.38 2162.24 1453.38 2165.5 1453.38 2167.93 1451.45 2169.51 1447.57 2171.09 1443.69 2171.88 1437.69 2171.88 1429.55 2171.88 1423.34 2171.48 1418.31 2170.67 1414.46 2169.85 1410.61 2168.73 1407.85 2167.28 1406.17 2165.84 1404.5 2164.09 1403.66 2162.03 1403.66ZM2162.24 1400.21C2168.15 1400.21 2172.56 1402.5 2175.45 1407.06 2178.34 1411.63 2179.78 1418.53 2179.78 1427.77 2179.78 1437.34 2178.24 1444.57 2175.14 1449.47 2172.05 1454.38 2167.53 1456.83 2161.59 1456.83 2155.75 1456.83 2151.41 1454.53 2148.56 1449.94 2145.71 1445.35 2144.28 1438.38 2144.28 1429.03 2144.28 1424.06 2144.72 1419.76 2145.6 1416.14 2146.48 1412.52 2147.71 1409.53 2149.29 1407.16 2150.87 1404.8 2152.77 1403.05 2154.98 1401.92 2157.2 1400.78 2159.61 1400.21 2162.24 1400.21Z" fill="#FFFFFF" fill-rule="evenodd"/><text fill="#000000" fill-opacity="0" font-family="Arial,Arial_MSFontService,sans-serif" font-size="56.6167" x="2144.28" y="1449.75">0</text><path d="M1966.5 604.5 2296.5 604.5 2296.5 934.5 1966.5 934.5Z" stroke="#E2F0D9" stroke-width="4.58333" stroke-miterlimit="8" fill-rule="evenodd"/><path d="M2076.15 761.044C2074.55 761.044 2073.11 761.449 2071.83 762.26 2070.55 763.07 2069.53 764.32 2068.77 766.009 2068.01 767.697 2067.63 769.784 2067.63 772.27 2067.63 774.999 2068.03 777.242 2068.83 778.998 2069.63 780.754 2070.66 782.003 2071.93 782.746 2073.2 783.489 2074.61 783.861 2076.15 783.861 2078.47 783.861 2080.68 782.936 2082.77 781.085 2084.87 779.234 2086.94 776.377 2088.99 772.513 2086.61 768.38 2084.43 765.435 2082.43 763.678 2080.43 761.922 2078.33 761.044 2076.15 761.044ZM2109.42 752.25C2110.77 752.25 2111.93 752.371 2112.9 752.614L2111.61 758.896C2110.8 758.761 2110.04 758.693 2109.34 758.693 2107.5 758.693 2105.86 759.112 2104.41 759.95 2102.97 760.787 2101.5 762.165 2100 764.084 2098.5 766.002 2096.69 768.812 2094.59 772.513 2095.91 775.08 2097.2 777.275 2098.46 779.099 2099.71 780.923 2100.91 782.341 2102.06 783.354 2103.21 784.368 2104.37 785.111 2105.53 785.583 2106.69 786.056 2107.97 786.293 2109.38 786.293 2110.22 786.293 2110.94 786.239 2111.57 786.13L2112.94 792.047C2111.21 792.48 2109.65 792.696 2108.24 792.696 2104.78 792.696 2101.77 791.494 2099.21 789.089 2096.64 786.684 2094.17 782.861 2091.79 777.62 2089.14 782.105 2086.55 785.333 2084.03 787.306 2081.5 789.278 2078.74 790.264 2075.74 790.264 2073.17 790.264 2070.9 789.481 2068.91 787.914 2066.93 786.347 2065.4 784.219 2064.33 781.531 2063.26 778.842 2062.73 775.864 2062.73 772.594 2062.73 769.271 2063.33 766.211 2064.51 763.415 2065.7 760.619 2067.31 758.457 2069.34 756.931 2071.36 755.404 2073.63 754.641 2076.15 754.641 2078.28 754.641 2080.16 755.053 2081.8 755.877 2083.43 756.701 2085.01 757.991 2086.54 759.747 2088.07 761.503 2089.82 764.057 2091.79 767.407 2093.6 763.949 2095.36 761.091 2097.08 758.835 2098.79 756.579 2100.6 754.918 2102.51 753.85 2104.41 752.783 2106.72 752.25 2109.42 752.25Z" fill="#FFFFFF" fill-rule="evenodd"/><text fill="#000000" fill-opacity="0" font-family="Arial,Arial_MSFontService,sans-serif" font-size="40.4463" x="2062.73" y="787.64">∝</text><path d="M2162.03 743.658C2160.17 743.658 2158.61 744.212 2157.35 745.319 2156.1 746.427 2155.08 748.021 2154.31 750.102 2153.54 752.182 2153 754.715 2152.67 757.701 2152.35 760.686 2152.18 764.057 2152.18 767.812 2152.18 776.62 2153 783.084 2154.64 787.204 2156.27 791.325 2158.8 793.385 2162.24 793.385 2165.5 793.385 2167.93 791.446 2169.51 787.569 2171.09 783.692 2171.88 777.687 2171.88 769.555 2171.88 763.341 2171.48 758.308 2170.67 754.458 2169.85 750.608 2168.73 747.846 2167.28 746.171 2165.84 744.495 2164.09 743.658 2162.03 743.658ZM2162.24 740.213C2168.15 740.213 2172.56 742.496 2175.45 747.062 2178.34 751.628 2179.78 758.531 2179.78 767.772 2179.78 777.336 2178.24 784.57 2175.14 789.474 2172.05 794.378 2167.53 796.83 2161.59 796.83 2155.75 796.83 2151.41 794.533 2148.56 789.94 2145.71 785.347 2144.28 778.376 2144.28 769.028 2144.28 764.057 2144.72 759.761 2145.6 756.14 2146.48 752.52 2147.71 749.528 2149.29 747.163 2150.87 744.799 2152.77 743.05 2154.98 741.915 2157.2 740.78 2159.61 740.213 2162.24 740.213Z" fill="#FFFFFF" fill-rule="evenodd"/><text fill="#000000" fill-opacity="0" font-family="Arial,Arial_MSFontService,sans-serif" font-size="56.6167" x="2144.28" y="789.753">0</text><path d="M1966.5 274.5 2296.5 274.5 2296.5 604.5 1966.5 604.5Z" stroke="#E2F0D9" stroke-width="4.58333" stroke-miterlimit="8" fill="#385723" fill-rule="evenodd"/><path d="M2076.15 431.044C2074.55 431.044 2073.11 431.449 2071.83 432.26 2070.55 433.07 2069.53 434.32 2068.77 436.009 2068.01 437.697 2067.63 439.784 2067.63 442.27 2067.63 444.999 2068.03 447.241 2068.83 448.998 2069.63 450.754 2070.66 452.003 2071.93 452.746 2073.2 453.489 2074.61 453.861 2076.15 453.861 2078.47 453.861 2080.68 452.936 2082.77 451.085 2084.87 449.234 2086.94 446.377 2088.99 442.513 2086.61 438.38 2084.43 435.435 2082.43 433.678 2080.43 431.922 2078.33 431.044 2076.15 431.044ZM2109.42 422.25C2110.77 422.25 2111.93 422.371 2112.9 422.614L2111.61 428.896C2110.8 428.761 2110.04 428.693 2109.34 428.693 2107.5 428.693 2105.86 429.112 2104.41 429.95 2102.97 430.787 2101.5 432.165 2100 434.084 2098.5 436.002 2096.69 438.812 2094.59 442.513 2095.91 445.08 2097.2 447.275 2098.46 449.099 2099.71 450.923 2100.91 452.341 2102.06 453.354 2103.21 454.368 2104.37 455.111 2105.53 455.583 2106.69 456.056 2107.97 456.293 2109.38 456.293 2110.22 456.293 2110.94 456.239 2111.57 456.13L2112.94 462.047C2111.21 462.48 2109.65 462.696 2108.24 462.696 2104.78 462.696 2101.77 461.494 2099.21 459.089 2096.64 456.684 2094.17 452.861 2091.79 447.62 2089.14 452.105 2086.55 455.333 2084.03 457.306 2081.5 459.278 2078.74 460.264 2075.74 460.264 2073.17 460.264 2070.9 459.481 2068.91 457.914 2066.93 456.347 2065.4 454.219 2064.33 451.531 2063.26 448.842 2062.73 445.864 2062.73 442.594 2062.73 439.271 2063.33 436.211 2064.51 433.415 2065.7 430.619 2067.31 428.457 2069.34 426.931 2071.36 425.404 2073.63 424.641 2076.15 424.641 2078.28 424.641 2080.16 425.053 2081.8 425.877 2083.43 426.701 2085.01 427.991 2086.54 429.747 2088.07 431.503 2089.82 434.057 2091.79 437.407 2093.6 433.949 2095.36 431.091 2097.08 428.835 2098.79 426.579 2100.6 424.918 2102.51 423.85 2104.41 422.783 2106.72 422.25 2109.42 422.25Z" fill="#FFFFFF" fill-rule="evenodd"/><text fill="#000000" fill-opacity="0" font-family="Arial,Arial_MSFontService,sans-serif" font-size="40.4463" x="2062.73" y="457.64">∝</text><path d="M2165.23 410.213 2167.46 410.213C2167.3 412.807 2167.22 416.4 2167.22 420.993L2167.22 455.604C2167.22 457.171 2167.31 458.353 2167.48 459.15 2167.66 459.947 2167.97 460.595 2168.42 461.095 2168.86 461.595 2169.5 461.987 2170.34 462.27 2171.18 462.554 2172.23 462.77 2173.5 462.919 2174.77 463.067 2176.45 463.169 2178.53 463.223L2178.53 466.181 2148.58 466.181 2148.58 463.223C2151.58 463.088 2153.72 462.905 2155 462.676 2156.28 462.446 2157.26 462.102 2157.94 461.642 2158.62 461.183 2159.11 460.534 2159.42 459.697 2159.73 458.859 2159.89 457.495 2159.89 455.604L2159.89 422.736C2159.89 421.655 2159.7 420.865 2159.32 420.365 2158.94 419.865 2158.39 419.615 2157.66 419.615 2156.79 419.615 2155.56 420.061 2153.97 420.953 2152.37 421.844 2150.4 423.074 2148.05 424.641L2146.27 421.52Z" fill="#FFFFFF" fill-rule="evenodd"/><text fill="#000000" fill-opacity="0" font-family="Arial,Arial_MSFontService,sans-serif" font-size="55.9683" x="2146.27" y="459.185">1</text><path d="M1966.5 1594.5 2296.5 1594.5 2296.5 1924.5 1966.5 1924.5Z" stroke="#E2F0D9" stroke-width="4.58333" stroke-miterlimit="8" fill-rule="evenodd"/><path d="M2076.15 1751.04C2074.55 1751.04 2073.11 1751.45 2071.83 1752.26 2070.55 1753.07 2069.53 1754.32 2068.77 1756.01 2068.01 1757.7 2067.63 1759.78 2067.63 1762.27 2067.63 1765 2068.03 1767.24 2068.83 1769 2069.63 1770.75 2070.66 1772 2071.93 1772.75 2073.2 1773.49 2074.61 1773.86 2076.15 1773.86 2078.47 1773.86 2080.68 1772.94 2082.77 1771.08 2084.87 1769.23 2086.94 1766.38 2088.99 1762.51 2086.61 1758.38 2084.43 1755.43 2082.43 1753.68 2080.43 1751.92 2078.33 1751.04 2076.15 1751.04ZM2109.42 1742.25C2110.77 1742.25 2111.93 1742.37 2112.9 1742.61L2111.61 1748.9C2110.8 1748.76 2110.04 1748.69 2109.34 1748.69 2107.5 1748.69 2105.86 1749.11 2104.41 1749.95 2102.97 1750.79 2101.5 1752.17 2100 1754.08 2098.5 1756 2096.69 1758.81 2094.59 1762.51 2095.91 1765.08 2097.2 1767.28 2098.46 1769.1 2099.71 1770.92 2100.91 1772.34 2102.06 1773.35 2103.21 1774.37 2104.37 1775.11 2105.53 1775.58 2106.69 1776.06 2107.97 1776.29 2109.38 1776.29 2110.22 1776.29 2110.94 1776.24 2111.57 1776.13L2112.94 1782.05C2111.21 1782.48 2109.65 1782.7 2108.24 1782.7 2104.78 1782.7 2101.77 1781.49 2099.21 1779.09 2096.64 1776.68 2094.17 1772.86 2091.79 1767.62 2089.14 1772.1 2086.55 1775.33 2084.03 1777.31 2081.5 1779.28 2078.74 1780.26 2075.74 1780.26 2073.17 1780.26 2070.9 1779.48 2068.91 1777.91 2066.93 1776.35 2065.4 1774.22 2064.33 1771.53 2063.26 1768.84 2062.73 1765.86 2062.73 1762.59 2062.73 1759.27 2063.33 1756.21 2064.51 1753.41 2065.7 1750.62 2067.31 1748.46 2069.34 1746.93 2071.36 1745.4 2073.63 1744.64 2076.15 1744.64 2078.28 1744.64 2080.16 1745.05 2081.8 1745.88 2083.43 1746.7 2085.01 1747.99 2086.54 1749.75 2088.07 1751.5 2089.82 1754.06 2091.79 1757.41 2093.6 1753.95 2095.36 1751.09 2097.08 1748.84 2098.79 1746.58 2100.6 1744.92 2102.51 1743.85 2104.41 1742.78 2106.72 1742.25 2109.42 1742.25Z" fill="#FFFFFF" fill-rule="evenodd"/><text fill="#000000" fill-opacity="0" font-family="Arial,Arial_MSFontService,sans-serif" font-size="40.4463" x="2062.73" y="1777.64">∝</text><path d="M2162.03 1733.66C2160.17 1733.66 2158.61 1734.21 2157.35 1735.32 2156.1 1736.43 2155.08 1738.02 2154.31 1740.1 2153.54 1742.18 2153 1744.71 2152.67 1747.7 2152.35 1750.69 2152.18 1754.06 2152.18 1757.81 2152.18 1766.62 2153 1773.08 2154.64 1777.2 2156.27 1781.32 2158.8 1783.38 2162.24 1783.38 2165.5 1783.38 2167.93 1781.45 2169.51 1777.57 2171.09 1773.69 2171.88 1767.69 2171.88 1759.55 2171.88 1753.34 2171.48 1748.31 2170.67 1744.46 2169.85 1740.61 2168.73 1737.85 2167.28 1736.17 2165.84 1734.5 2164.09 1733.66 2162.03 1733.66ZM2162.24 1730.21C2168.15 1730.21 2172.56 1732.5 2175.45 1737.06 2178.34 1741.63 2179.78 1748.53 2179.78 1757.77 2179.78 1767.34 2178.24 1774.57 2175.14 1779.47 2172.05 1784.38 2167.53 1786.83 2161.59 1786.83 2155.75 1786.83 2151.41 1784.53 2148.56 1779.94 2145.71 1775.35 2144.28 1768.38 2144.28 1759.03 2144.28 1754.06 2144.72 1749.76 2145.6 1746.14 2146.48 1742.52 2147.71 1739.53 2149.29 1737.16 2150.87 1734.8 2152.77 1733.05 2154.98 1731.92 2157.2 1730.78 2159.61 1730.21 2162.24 1730.21Z" fill="#FFFFFF" fill-rule="evenodd"/><text fill="#000000" fill-opacity="0" font-family="Arial,Arial_MSFontService,sans-serif" font-size="56.6167" x="2144.28" y="1779.75">0</text></g></svg>